ply
format ascii 1.0
comment Created by Blender 2.79 (sub 0) - www.blender.org, source file: 'king.blend'
element vertex 688
property float x
property float y
property float z
property float nx
property float ny
property float nz
element face 182
property list uchar uint vertex_indices
end_header
-0.612257 -0.000000 8.970687 -0.713396 0.295498 0.635411
-0.470468 -0.000000 9.129877 -0.713396 0.295498 0.635411
-0.338435 0.318757 9.129877 -0.713396 0.295498 0.635411
-0.438686 0.419037 8.970687 -0.713396 0.295498 0.635411
-0.438686 -0.000000 8.777035 -0.711581 0.294746 -0.637791
-0.612257 -0.000000 8.970687 -0.711581 0.294746 -0.637791
-0.438686 0.419037 8.970687 -0.711581 0.294746 -0.637791
-0.315953 0.296304 8.777035 -0.711581 0.294746 -0.637791
-0.438686 0.419037 8.970687 -0.295484 0.713362 0.635456
-0.338435 0.318757 9.129877 -0.295484 0.713362 0.635456
-0.019678 0.450790 9.129877 -0.295484 0.713362 0.635456
-0.019649 0.592607 8.970687 -0.295484 0.713362 0.635456
-0.315953 0.296304 8.777035 -0.294747 0.711581 -0.637791
-0.438686 0.419037 8.970687 -0.294747 0.711581 -0.637791
-0.019649 0.592607 8.970687 -0.294747 0.711581 -0.637791
-0.019649 0.419037 8.777035 -0.294747 0.711581 -0.637791
-0.019649 0.592607 8.970687 0.295464 0.713313 0.635520
-0.019678 0.450790 9.129877 0.295464 0.713313 0.635520
0.299078 0.318757 9.129877 0.295464 0.713313 0.635520
0.399387 0.419037 8.970687 0.295464 0.713313 0.635520
-0.019649 0.419037 8.777035 0.294747 0.711581 -0.637791
-0.019649 0.592607 8.970687 0.294747 0.711581 -0.637791
0.399387 0.419037 8.970687 0.294747 0.711581 -0.637791
0.276654 0.296304 8.777035 0.294747 0.711581 -0.637791
0.399387 0.419037 8.970687 0.713279 0.295450 0.635565
0.299078 0.318757 9.129877 0.713279 0.295450 0.635565
0.431112 0.000000 9.129877 0.713279 0.295450 0.635565
0.572958 -0.000000 8.970687 0.713279 0.295450 0.635565
0.276654 0.296304 8.777035 0.711581 0.294746 -0.637791
0.399387 0.419037 8.970687 0.711581 0.294746 -0.637791
0.572958 -0.000000 8.970687 0.711581 0.294746 -0.637791
0.399387 -0.000000 8.777035 0.711581 0.294746 -0.637791
0.399387 -0.000000 8.777035 0.711581 -0.294747 -0.637791
0.572958 -0.000000 8.970687 0.711581 -0.294747 -0.637791
0.399387 -0.419037 8.970687 0.711581 -0.294747 -0.637791
0.276654 -0.296304 8.777035 0.711581 -0.294747 -0.637791
0.572958 -0.000000 8.970687 0.713278 -0.295450 0.635565
0.431112 0.000000 9.129877 0.713278 -0.295450 0.635565
0.299078 -0.318757 9.129877 0.713278 -0.295450 0.635565
0.399387 -0.419037 8.970687 0.713278 -0.295450 0.635565
0.276654 -0.296304 8.777035 0.294746 -0.711581 -0.637791
0.399387 -0.419037 8.970687 0.294746 -0.711581 -0.637791
-0.019649 -0.592607 8.970687 0.294746 -0.711581 -0.637791
-0.019649 -0.419037 8.777035 0.294746 -0.711581 -0.637791
0.399387 -0.419037 8.970687 0.295464 -0.713313 0.635520
0.299078 -0.318757 9.129877 0.295464 -0.713313 0.635520
-0.019678 -0.450790 9.129877 0.295464 -0.713313 0.635520
-0.019649 -0.592607 8.970687 0.295464 -0.713313 0.635520
-0.019649 -0.419037 8.777035 -0.294746 -0.711581 -0.637791
-0.019649 -0.592607 8.970687 -0.294746 -0.711581 -0.637791
-0.438686 -0.419037 8.970687 -0.294746 -0.711581 -0.637791
-0.315953 -0.296304 8.777035 -0.294746 -0.711581 -0.637791
-0.019649 -0.592607 8.970687 -0.295484 -0.713362 0.635456
-0.019678 -0.450790 9.129877 -0.295484 -0.713362 0.635456
-0.338435 -0.318757 9.129877 -0.295484 -0.713362 0.635456
-0.438686 -0.419037 8.970687 -0.295484 -0.713362 0.635456
-0.315953 -0.296304 8.777035 -0.711581 -0.294747 -0.637791
-0.438686 -0.419037 8.970687 -0.711581 -0.294747 -0.637791
-0.612257 -0.000000 8.970687 -0.711581 -0.294747 -0.637791
-0.438686 -0.000000 8.777035 -0.711581 -0.294747 -0.637791
-0.470468 -0.000000 9.129877 -0.713396 -0.295499 0.635411
-0.612257 -0.000000 8.970687 -0.713396 -0.295499 0.635411
-0.438686 -0.419037 8.970687 -0.713396 -0.295499 0.635411
-0.338435 -0.318757 9.129877 -0.713396 -0.295499 0.635411
1.105277 1.105276 1.756079 0.889865 0.368594 0.268848
1.013555 1.013555 2.185421 0.889865 0.368594 0.268848
1.433383 0.000000 2.185421 0.889865 0.368594 0.268848
1.563097 0.000000 1.756079 0.889865 0.368594 0.268848
1.707729 0.000000 0.897035 0.659531 -0.273187 -0.700277
2.032458 0.000000 1.202869 0.659531 -0.273187 -0.700277
1.437165 -1.437165 1.202869 0.659531 -0.273187 -0.700277
1.207546 -1.207546 0.897035 0.659531 -0.273187 -0.700277
1.207546 -1.207546 0.897035 0.273187 -0.659531 -0.700277
1.437165 -1.437165 1.202869 0.273187 -0.659531 -0.700277
-0.000001 -2.032458 1.202869 0.273187 -0.659531 -0.700277
-0.000001 -1.707729 0.897035 0.273187 -0.659531 -0.700277
1.523369 -1.523370 0.053042 0.375937 -0.907593 0.186941
1.432770 -1.432770 0.675098 0.375937 -0.907593 0.186941
-0.000001 -2.026242 0.675098 0.375937 -0.907593 0.186941
-0.000001 -2.154370 0.053042 0.375937 -0.907593 0.186941
2.154370 0.000000 0.053042 0.907593 -0.375937 0.186941
2.026242 0.000000 0.675098 0.907593 -0.375937 0.186941
1.432770 -1.432770 0.675098 0.907593 -0.375937 0.186941
1.523369 -1.523370 0.053042 0.907593 -0.375937 0.186941
0.000000 1.563097 1.756079 0.368594 0.889865 0.268848
0.000000 1.433383 2.185421 0.368594 0.889865 0.268848
1.013555 1.013555 2.185421 0.368594 0.889865 0.268848
1.105277 1.105276 1.756079 0.368594 0.889865 0.268848
-0.000001 -1.707729 0.897035 -0.273187 -0.659531 -0.700277
-0.000001 -2.032458 1.202869 -0.273187 -0.659531 -0.700277
-1.437166 -1.437164 1.202869 -0.273187 -0.659531 -0.700277
-1.207547 -1.207546 0.897035 -0.273187 -0.659531 -0.700277
-1.207547 -1.207546 0.897035 -0.659531 -0.273186 -0.700277
-1.437166 -1.437164 1.202869 -0.659531 -0.273186 -0.700277
-2.032458 0.000002 1.202869 -0.659531 -0.273186 -0.700277
-1.707729 0.000002 0.897035 -0.659531 -0.273186 -0.700277
-1.523371 -1.523369 0.053042 -0.907593 -0.375936 0.186941
-1.432770 -1.432769 0.675098 -0.907593 -0.375936 0.186941
-2.026242 0.000002 0.675098 -0.907593 -0.375936 0.186941
-2.154370 0.000002 0.053042 -0.907593 -0.375936 0.186941
-0.000001 -2.154370 0.053042 -0.375938 -0.907592 0.186941
-0.000001 -2.026242 0.675098 -0.375938 -0.907592 0.186941
-1.432770 -1.432769 0.675098 -0.375938 -0.907592 0.186941
-1.523371 -1.523369 0.053042 -0.375938 -0.907592 0.186941
-1.105275 1.105278 1.756079 -0.368593 0.889865 0.268848
-1.013554 1.013556 2.185421 -0.368593 0.889865 0.268848
0.000000 1.433383 2.185421 -0.368593 0.889865 0.268848
0.000000 1.563097 1.756079 -0.368593 0.889865 0.268848
-2.032458 0.000002 1.202869 -0.727121 0.301184 0.616914
-1.563097 0.000002 1.756079 -0.727121 0.301184 0.616914
-1.105275 1.105278 1.756079 -0.727121 0.301184 0.616914
-1.437163 1.437167 1.202869 -0.727121 0.301184 0.616914
-1.437163 1.437167 1.202869 -0.301183 0.727122 0.616914
-1.105275 1.105278 1.756079 -0.301183 0.727122 0.616914
0.000000 1.563097 1.756079 -0.301183 0.727122 0.616914
-0.000000 2.032458 1.202869 -0.301183 0.727122 0.616914
-1.432768 1.432771 0.675098 -0.230430 0.556307 0.798389
-1.207545 1.207548 0.897035 -0.230430 0.556307 0.798389
0.000000 1.707729 0.897035 -0.230430 0.556307 0.798389
-0.000000 2.026242 0.675098 -0.230430 0.556307 0.798389
-2.026242 0.000002 0.675098 -0.556307 0.230431 0.798388
-1.707729 0.000002 0.897035 -0.556307 0.230431 0.798388
-1.207545 1.207548 0.897035 -0.556307 0.230431 0.798388
-1.432768 1.432771 0.675098 -0.556307 0.230431 0.798388
-1.563097 0.000002 1.756079 -0.889864 0.368595 0.268848
-1.433383 0.000002 2.185421 -0.889864 0.368595 0.268848
-1.013554 1.013556 2.185421 -0.889864 0.368595 0.268848
-1.105275 1.105278 1.756079 -0.889864 0.368595 0.268848
-0.000000 2.032458 1.202869 0.301184 0.727122 0.616914
0.000000 1.563097 1.756079 0.301184 0.727122 0.616914
1.105277 1.105276 1.756079 0.301184 0.727122 0.616914
1.437165 1.437165 1.202869 0.301184 0.727122 0.616914
1.437165 1.437165 1.202869 0.727122 0.301184 0.616913
1.105277 1.105276 1.756079 0.727122 0.301184 0.616913
1.563097 0.000000 1.756079 0.727122 0.301184 0.616913
2.032458 0.000000 1.202869 0.727122 0.301184 0.616913
1.432770 1.432769 0.675098 0.556307 0.230430 0.798388
1.207546 1.207546 0.897035 0.556307 0.230430 0.798388
1.707729 0.000000 0.897035 0.556307 0.230430 0.798388
2.026242 0.000000 0.675098 0.556307 0.230430 0.798388
-0.000000 2.026242 0.675098 0.230430 0.556307 0.798388
0.000000 1.707729 0.897035 0.230430 0.556307 0.798388
1.207546 1.207546 0.897035 0.230430 0.556307 0.798388
1.432770 1.432769 0.675098 0.230430 0.556307 0.798388
-0.000000 -1.563097 1.756079 -0.368594 -0.889864 0.268848
-0.000000 -1.433383 2.185421 -0.368594 -0.889864 0.268848
-1.013555 -1.013554 2.185421 -0.368594 -0.889864 0.268848
-1.105277 -1.105276 1.756079 -0.368594 -0.889864 0.268848
-0.000001 -2.032458 1.202869 -0.301184 -0.727122 0.616914
-0.000000 -1.563097 1.756079 -0.301184 -0.727122 0.616914
-1.105277 -1.105276 1.756079 -0.301184 -0.727122 0.616914
-1.437166 -1.437164 1.202869 -0.301184 -0.727122 0.616914
2.032458 0.000000 1.202869 0.727122 -0.301184 0.616914
1.563097 0.000000 1.756079 0.727122 -0.301184 0.616914
1.105277 -1.105276 1.756079 0.727122 -0.301184 0.616914
1.437165 -1.437165 1.202869 0.727122 -0.301184 0.616914
2.026242 0.000000 0.675098 0.556307 -0.230430 0.798388
1.707729 0.000000 0.897035 0.556307 -0.230430 0.798388
1.207546 -1.207546 0.897035 0.556307 -0.230430 0.798388
1.432770 -1.432770 0.675098 0.556307 -0.230430 0.798388
-0.000001 -2.026242 0.675098 -0.230430 -0.556307 0.798388
-0.000001 -1.707729 0.897035 -0.230430 -0.556307 0.798388
-1.207547 -1.207546 0.897035 -0.230430 -0.556307 0.798388
-1.432770 -1.432769 0.675098 -0.230430 -0.556307 0.798388
-1.105277 -1.105276 1.756079 -0.889865 -0.368593 0.268849
-1.013555 -1.013554 2.185421 -0.889865 -0.368593 0.268849
-1.433383 0.000002 2.185421 -0.889865 -0.368593 0.268849
-1.563097 0.000002 1.756079 -0.889865 -0.368593 0.268849
-1.437166 -1.437164 1.202869 -0.727122 -0.301183 0.616914
-1.105277 -1.105276 1.756079 -0.727122 -0.301183 0.616914
-1.563097 0.000002 1.756079 -0.727122 -0.301183 0.616914
-2.032458 0.000002 1.202869 -0.727122 -0.301183 0.616914
1.437165 -1.437165 1.202869 0.301183 -0.727122 0.616914
1.105277 -1.105276 1.756079 0.301183 -0.727122 0.616914
-0.000000 -1.563097 1.756079 0.301183 -0.727122 0.616914
-0.000001 -2.032458 1.202869 0.301183 -0.727122 0.616914
1.432770 -1.432770 0.675098 0.230430 -0.556307 0.798388
1.207546 -1.207546 0.897035 0.230430 -0.556307 0.798388
-0.000001 -1.707729 0.897035 0.230430 -0.556307 0.798388
-0.000001 -2.026242 0.675098 0.230430 -0.556307 0.798388
-1.432770 -1.432769 0.675098 -0.556308 -0.230430 0.798388
-1.207547 -1.207546 0.897035 -0.556308 -0.230430 0.798388
-1.707729 0.000002 0.897035 -0.556308 -0.230430 0.798388
-2.026242 0.000002 0.675098 -0.556308 -0.230430 0.798388
1.013555 1.013555 2.185421 0.560328 0.232096 0.795087
0.887298 0.887298 2.311255 0.560328 0.232096 0.795087
1.254829 0.000000 2.311255 0.560328 0.232096 0.795087
1.433383 0.000000 2.185421 0.560328 0.232096 0.795087
1.433383 0.000000 2.185421 0.560328 -0.232096 0.795087
1.254829 0.000000 2.311255 0.560328 -0.232096 0.795087
0.887298 -0.887298 2.311255 0.560328 -0.232096 0.795087
1.013555 -1.013555 2.185421 0.560328 -0.232096 0.795087
-1.013554 1.013556 2.185421 -0.232095 0.560328 0.795088
-0.887297 0.887299 2.311255 -0.232095 0.560328 0.795088
0.000000 1.254829 2.311255 -0.232095 0.560328 0.795088
0.000000 1.433383 2.185421 -0.232095 0.560328 0.795088
-1.433383 0.000002 2.185421 -0.560328 0.232096 0.795087
-1.254829 0.000001 2.311255 -0.560328 0.232096 0.795087
-0.887297 0.887299 2.311255 -0.560328 0.232096 0.795087
-1.013554 1.013556 2.185421 -0.560328 0.232096 0.795087
0.000000 1.433383 2.185421 0.232096 0.560328 0.795087
0.000000 1.254829 2.311255 0.232096 0.560328 0.795087
0.887298 0.887298 2.311255 0.232096 0.560328 0.795087
1.013555 1.013555 2.185421 0.232096 0.560328 0.795087
1.105277 -1.105276 1.756079 0.368594 -0.889865 0.268848
1.013555 -1.013555 2.185421 0.368594 -0.889865 0.268848
-0.000000 -1.433383 2.185421 0.368594 -0.889865 0.268848
-0.000000 -1.563097 1.756079 0.368594 -0.889865 0.268848
-1.707729 0.000002 0.897035 -0.659530 0.273187 -0.700277
-2.032458 0.000002 1.202869 -0.659530 0.273187 -0.700277
-1.437163 1.437167 1.202869 -0.659530 0.273187 -0.700277
-1.207545 1.207548 0.897035 -0.659530 0.273187 -0.700277
-1.207545 1.207548 0.897035 -0.273186 0.659531 -0.700277
-1.437163 1.437167 1.202869 -0.273186 0.659531 -0.700277
-0.000000 2.032458 1.202869 -0.273186 0.659531 -0.700277
0.000000 1.707729 0.897035 -0.273186 0.659531 -0.700277
-1.523368 1.523371 0.053042 -0.375937 0.907593 0.186941
-1.432768 1.432771 0.675098 -0.375937 0.907593 0.186941
-0.000000 2.026242 0.675098 -0.375937 0.907593 0.186941
-0.000000 2.154370 0.053042 -0.375937 0.907593 0.186941
-2.154370 0.000002 0.053042 -0.907592 0.375938 0.186941
-2.026242 0.000002 0.675098 -0.907592 0.375938 0.186941
-1.432768 1.432771 0.675098 -0.907592 0.375938 0.186941
-1.523368 1.523371 0.053042 -0.907592 0.375938 0.186941
-1.523371 -1.523369 0.053042 0.000000 -0.000000 -1.000000
-2.154370 0.000002 0.053042 0.000000 -0.000000 -1.000000
-1.523368 1.523371 0.053042 0.000000 -0.000000 -1.000000
-0.000000 2.154370 0.053042 -0.000000 0.000000 -1.000000
1.523369 1.523369 0.053042 -0.000000 0.000000 -1.000000
2.154370 0.000000 0.053042 0.000000 0.000000 -1.000000
1.523369 -1.523370 0.053042 0.000000 0.000000 -1.000000
-0.000001 -2.154370 0.053042 0.000000 0.000000 -1.000000
-0.000000 2.154370 0.053042 0.375937 0.907593 0.186941
-0.000000 2.026242 0.675098 0.375937 0.907593 0.186941
1.432770 1.432769 0.675098 0.375937 0.907593 0.186941
1.523369 1.523369 0.053042 0.375937 0.907593 0.186941
1.523369 1.523369 0.053042 0.907593 0.375937 0.186941
1.432770 1.432769 0.675098 0.907593 0.375937 0.186941
2.026242 0.000000 0.675098 0.907593 0.375937 0.186941
2.154370 0.000000 0.053042 0.907593 0.375937 0.186941
1.207546 1.207546 0.897035 0.659531 0.273187 -0.700277
1.437165 1.437165 1.202869 0.659531 0.273187 -0.700277
2.032458 0.000000 1.202869 0.659531 0.273187 -0.700277
1.707729 0.000000 0.897035 0.659531 0.273187 -0.700277
0.000000 1.707729 0.897035 0.273187 0.659531 -0.700277
-0.000000 2.032458 1.202869 0.273187 0.659531 -0.700277
1.437165 1.437165 1.202869 0.273187 0.659531 -0.700277
1.207546 1.207546 0.897035 0.273187 0.659531 -0.700277
1.563097 0.000000 1.756079 0.889865 -0.368594 0.268848
1.433383 0.000000 2.185421 0.889865 -0.368594 0.268848
1.013555 -1.013555 2.185421 0.889865 -0.368594 0.268848
1.105277 -1.105276 1.756079 0.889865 -0.368594 0.268848
-1.013555 -1.013554 2.185421 -0.560329 -0.232095 0.795087
-0.887298 -0.887297 2.311255 -0.560329 -0.232095 0.795087
-1.254829 0.000001 2.311255 -0.560329 -0.232095 0.795087
-1.433383 0.000002 2.185421 -0.560329 -0.232095 0.795087
1.013555 -1.013555 2.185421 0.232095 -0.560328 0.795087
0.887298 -0.887298 2.311255 0.232095 -0.560328 0.795087
-0.000000 -1.254829 2.311255 0.232095 -0.560328 0.795087
-0.000000 -1.433383 2.185421 0.232095 -0.560328 0.795087
-0.000000 -1.433383 2.185421 -0.232096 -0.560328 0.795087
-0.000000 -1.254829 2.311255 -0.232096 -0.560328 0.795087
-0.887298 -0.887297 2.311255 -0.232096 -0.560328 0.795087
-1.013555 -1.013554 2.185421 -0.232096 -0.560328 0.795087
-0.887298 -0.887297 2.311255 -0.375049 -0.905447 0.198758
-0.000000 -1.254829 2.311255 -0.375049 -0.905447 0.198758
-0.000000 -0.825162 4.268614 -0.375049 -0.905447 0.198758
-0.583478 -0.583477 4.268614 -0.375049 -0.905447 0.198758
-0.000000 -1.254829 2.311255 0.375048 -0.905447 0.198758
0.887298 -0.887298 2.311255 0.375048 -0.905447 0.198758
0.583478 -0.583477 4.268614 0.375048 -0.905447 0.198758
-0.000000 -0.825162 4.268614 0.375048 -0.905447 0.198758
1.254829 0.000000 2.311255 0.905447 0.375048 0.198758
0.887298 0.887298 2.311255 0.905447 0.375048 0.198758
0.583478 0.583478 4.268614 0.905447 0.375048 0.198758
0.825162 0.000000 4.268614 0.905447 0.375048 0.198758
-1.254829 0.000001 2.311255 -0.905447 -0.375048 0.198758
-0.887298 -0.887297 2.311255 -0.905447 -0.375048 0.198758
-0.583478 -0.583477 4.268614 -0.905447 -0.375048 0.198758
-0.825162 0.000001 4.268614 -0.905447 -0.375048 0.198758
0.000000 1.254829 2.311255 -0.375048 0.905447 0.198758
-0.887297 0.887299 2.311255 -0.375048 0.905447 0.198758
-0.583477 0.583479 4.268614 -0.375048 0.905447 0.198758
0.000000 0.825163 4.268614 -0.375048 0.905447 0.198758
0.887298 -0.887298 2.311255 0.905447 -0.375048 0.198758
1.254829 0.000000 2.311255 0.905447 -0.375048 0.198758
0.825162 0.000000 4.268614 0.905447 -0.375048 0.198758
0.583478 -0.583477 4.268614 0.905447 -0.375048 0.198758
0.887298 0.887298 2.311255 0.375048 0.905447 0.198758
0.000000 1.254829 2.311255 0.375048 0.905447 0.198758
0.000000 0.825163 4.268614 0.375048 0.905447 0.198758
0.583478 0.583478 4.268614 0.375048 0.905447 0.198758
-0.887297 0.887299 2.311255 -0.905446 0.375050 0.198758
-1.254829 0.000001 2.311255 -0.905446 0.375050 0.198758
-0.825162 0.000001 4.268614 -0.905446 0.375050 0.198758
-0.583477 0.583479 4.268614 -0.905446 0.375050 0.198758
0.583478 -0.583477 4.268614 0.923880 -0.382683 0.000000
0.825162 0.000000 4.268614 0.923880 -0.382683 0.000000
0.825162 0.000000 6.145258 0.923880 -0.382683 0.000000
0.583478 -0.583477 6.145258 0.923880 -0.382683 0.000000
0.825162 0.000000 4.268614 0.923880 0.382683 0.000000
0.583478 0.583478 4.268614 0.923880 0.382683 0.000000
0.583478 0.583478 6.145258 0.923880 0.382683 0.000000
0.825162 0.000000 6.145258 0.923880 0.382683 0.000000
-0.583477 0.583479 4.268614 -0.923879 0.382685 0.000000
-0.825162 0.000001 4.268614 -0.923879 0.382685 0.000000
-0.825162 0.000001 6.145258 -0.923879 0.382685 0.000000
-0.583477 0.583479 6.145258 -0.923879 0.382685 0.000000
-0.583478 -0.583477 4.268614 -0.382684 -0.923879 0.000000
-0.000000 -0.825162 4.268614 -0.382684 -0.923879 0.000000
-0.000000 -0.825162 6.145258 -0.382684 -0.923879 0.000000
-0.583478 -0.583477 6.145258 -0.382684 -0.923879 0.000000
-0.000000 -0.825162 4.268614 0.382683 -0.923880 0.000000
0.583478 -0.583477 4.268614 0.382683 -0.923880 0.000000
0.583478 -0.583477 6.145258 0.382683 -0.923880 0.000000
-0.000000 -0.825162 6.145258 0.382683 -0.923880 0.000000
0.583478 0.583478 4.268614 0.382684 0.923880 0.000000
0.000000 0.825163 4.268614 0.382684 0.923880 0.000000
0.000000 0.825163 6.145258 0.382684 0.923880 0.000000
0.583478 0.583478 6.145258 0.382684 0.923880 0.000000
0.000000 0.825163 4.268614 -0.382683 0.923880 0.000000
-0.583477 0.583479 4.268614 -0.382683 0.923880 0.000000
-0.583477 0.583479 6.145258 -0.382683 0.923880 0.000000
0.000000 0.825163 6.145258 -0.382683 0.923880 0.000000
-0.825162 0.000001 4.268614 -0.923880 -0.382683 0.000000
-0.583478 -0.583477 4.268614 -0.923880 -0.382683 0.000000
-0.583478 -0.583477 6.145258 -0.923880 -0.382683 0.000000
-0.825162 0.000001 6.145258 -0.923880 -0.382683 0.000000
-0.825162 0.000001 6.145258 -0.194903 -0.080731 -0.977494
-0.583478 -0.583477 6.145258 -0.194903 -0.080731 -0.977494
-1.155968 -1.155967 6.306689 -0.194903 -0.080731 -0.977494
-1.634785 0.000002 6.306689 -0.194903 -0.080731 -0.977494
0.583478 -0.583477 6.145258 0.194903 -0.080732 -0.977494
0.825162 0.000000 6.145258 0.194903 -0.080732 -0.977494
1.634786 0.000000 6.306689 0.194903 -0.080732 -0.977494
1.155968 -1.155968 6.306689 0.194903 -0.080732 -0.977494
0.825162 0.000000 6.145258 0.194903 0.080732 -0.977494
0.583478 0.583478 6.145258 0.194903 0.080732 -0.977494
1.155968 1.155968 6.306689 0.194903 0.080732 -0.977494
1.634786 0.000000 6.306689 0.194903 0.080732 -0.977494
-0.583477 0.583479 6.145258 -0.194903 0.080732 -0.977494
-0.825162 0.000001 6.145258 -0.194903 0.080732 -0.977494
-1.634785 0.000002 6.306689 -0.194903 0.080732 -0.977494
-1.155966 1.155970 6.306689 -0.194903 0.080732 -0.977494
-0.583478 -0.583477 6.145258 -0.080732 -0.194903 -0.977494
-0.000000 -0.825162 6.145258 -0.080732 -0.194903 -0.977494
-0.000000 -1.634786 6.306689 -0.080732 -0.194903 -0.977494
-1.155968 -1.155967 6.306689 -0.080732 -0.194903 -0.977494
-0.000000 -0.825162 6.145258 0.080731 -0.194903 -0.977494
0.583478 -0.583477 6.145258 0.080731 -0.194903 -0.977494
1.155968 -1.155968 6.306689 0.080731 -0.194903 -0.977494
-0.000000 -1.634786 6.306689 0.080731 -0.194903 -0.977494
0.583478 0.583478 6.145258 0.080732 0.194903 -0.977494
0.000000 0.825163 6.145258 0.080732 0.194903 -0.977494
0.000000 1.634786 6.306689 0.080732 0.194903 -0.977494
1.155968 1.155968 6.306689 0.080732 0.194903 -0.977494
0.000000 0.825163 6.145258 -0.080731 0.194903 -0.977494
-0.583477 0.583479 6.145258 -0.080731 0.194903 -0.977494
-1.155966 1.155970 6.306689 -0.080731 0.194903 -0.977494
0.000000 1.634786 6.306689 -0.080731 0.194903 -0.977494
-0.000000 -1.634786 6.306689 0.177536 -0.428610 0.885875
1.155968 -1.155968 6.306689 0.177536 -0.428610 0.885875
0.669839 -0.690017 6.629553 0.177536 -0.428610 0.885875
-0.020179 -0.975832 6.629553 0.177536 -0.428610 0.885875
1.155968 1.155968 6.306689 0.177536 0.428610 0.885875
0.000000 1.634786 6.306689 0.177536 0.428610 0.885875
-0.020179 0.975832 6.629553 0.177536 0.428610 0.885875
0.669839 0.690018 6.629553 0.177536 0.428610 0.885875
0.000000 1.634786 6.306689 -0.181086 0.437181 0.880954
-1.155966 1.155970 6.306689 -0.181086 0.437181 0.880954
-0.710195 0.690018 6.629553 -0.181086 0.437181 0.880954
-0.020179 0.975832 6.629553 -0.181086 0.437181 0.880954
-1.634785 0.000002 6.306689 -0.443421 -0.183671 0.877293
-1.155968 -1.155967 6.306689 -0.443421 -0.183671 0.877293
-0.710197 -0.690017 6.629553 -0.443421 -0.183671 0.877293
-0.996011 0.000001 6.629553 -0.443421 -0.183671 0.877293
1.155968 -1.155968 6.306689 0.422723 -0.175097 0.889183
1.634786 0.000000 6.306689 0.422723 -0.175097 0.889183
0.955653 0.000000 6.629553 0.422723 -0.175097 0.889183
0.669839 -0.690017 6.629553 0.422723 -0.175097 0.889183
1.634786 0.000000 6.306689 0.422723 0.175097 0.889183
1.155968 1.155968 6.306689 0.422723 0.175097 0.889183
0.669839 0.690018 6.629553 0.422723 0.175097 0.889183
0.955653 0.000000 6.629553 0.422723 0.175097 0.889183
-1.155966 1.155970 6.306689 -0.443421 0.183672 0.877293
-1.634785 0.000002 6.306689 -0.443421 0.183672 0.877293
-0.996011 0.000001 6.629553 -0.443421 0.183672 0.877293
-0.710195 0.690018 6.629553 -0.443421 0.183672 0.877293
-1.155968 -1.155967 6.306689 -0.181087 -0.437181 0.880954
-0.000000 -1.634786 6.306689 -0.181087 -0.437181 0.880954
-0.020179 -0.975832 6.629553 -0.181087 -0.437181 0.880954
-0.710197 -0.690017 6.629553 -0.181087 -0.437181 0.880954
-0.710195 0.690018 6.629553 -0.916654 0.379692 0.124817
-0.996011 0.000001 6.629553 -0.916654 0.379692 0.124817
-0.974029 0.000001 6.790985 -0.916654 0.379692 0.124817
-0.694652 0.674475 6.790985 -0.916654 0.379692 0.124817
-0.710197 -0.690017 6.629553 -0.379691 -0.916654 0.124817
-0.020179 -0.975832 6.629553 -0.379691 -0.916654 0.124817
-0.020179 -0.953850 6.790985 -0.379691 -0.916654 0.124817
-0.694653 -0.674473 6.790985 -0.379691 -0.916654 0.124817
-0.020179 -0.975832 6.629553 0.379690 -0.916655 0.124817
0.669839 -0.690017 6.629553 0.379690 -0.916655 0.124817
0.654295 -0.674474 6.790985 0.379690 -0.916655 0.124817
-0.020179 -0.953850 6.790985 0.379690 -0.916655 0.124817
0.669839 0.690018 6.629553 0.379691 0.916655 0.124817
-0.020179 0.975832 6.629553 0.379691 0.916655 0.124817
-0.020179 0.953851 6.790985 0.379691 0.916655 0.124817
0.654295 0.674474 6.790985 0.379691 0.916655 0.124817
-0.020179 0.975832 6.629553 -0.379690 0.916655 0.124817
-0.710195 0.690018 6.629553 -0.379690 0.916655 0.124817
-0.694652 0.674475 6.790985 -0.379690 0.916655 0.124817
-0.020179 0.953851 6.790985 -0.379690 0.916655 0.124817
-0.996011 0.000001 6.629553 -0.916655 -0.379690 0.124817
-0.710197 -0.690017 6.629553 -0.916655 -0.379690 0.124817
-0.694653 -0.674473 6.790985 -0.916655 -0.379690 0.124817
-0.974029 0.000001 6.790985 -0.916655 -0.379690 0.124817
0.669839 -0.690017 6.629553 0.916655 -0.379691 0.124817
0.955653 0.000000 6.629553 0.916655 -0.379691 0.124817
0.933672 0.000000 6.790985 0.916655 -0.379691 0.124817
0.654295 -0.674474 6.790985 0.916655 -0.379691 0.124817
0.955653 0.000000 6.629553 0.916655 0.379691 0.124817
0.669839 0.690018 6.629553 0.916655 0.379691 0.124817
0.654295 0.674474 6.790985 0.916655 0.379691 0.124817
0.933672 0.000000 6.790985 0.916655 0.379691 0.124817
0.654295 -0.674474 6.790985 0.393603 -0.163036 0.904707
0.933672 0.000000 6.790985 0.393603 -0.163036 0.904707
0.748146 0.000000 6.871700 0.393603 -0.163036 0.904707
0.523109 -0.543287 6.871700 0.393603 -0.163036 0.904707
0.933672 0.000000 6.790985 0.393604 0.163036 0.904707
0.654295 0.674474 6.790985 0.393604 0.163036 0.904707
0.523109 0.543288 6.871700 0.393604 0.163036 0.904707
0.748146 0.000000 6.871700 0.393604 0.163036 0.904707
-0.694652 0.674475 6.790985 -0.393603 0.163036 0.904707
-0.974029 0.000001 6.790985 -0.393603 0.163036 0.904707
-0.788503 0.000001 6.871700 -0.393603 0.163036 0.904707
-0.563465 0.543288 6.871700 -0.393603 0.163036 0.904707
-0.694653 -0.674473 6.790985 -0.163036 -0.393603 0.904708
-0.020179 -0.953850 6.790985 -0.163036 -0.393603 0.904708
-0.020179 -0.768324 6.871700 -0.163036 -0.393603 0.904708
-0.563466 -0.543287 6.871700 -0.163036 -0.393603 0.904708
-0.020179 -0.953850 6.790985 0.163036 -0.393603 0.904708
0.654295 -0.674474 6.790985 0.163036 -0.393603 0.904708
0.523109 -0.543287 6.871700 0.163036 -0.393603 0.904708
-0.020179 -0.768324 6.871700 0.163036 -0.393603 0.904708
0.654295 0.674474 6.790985 0.163036 0.393603 0.904707
-0.020179 0.953851 6.790985 0.163036 0.393603 0.904707
-0.020179 0.768325 6.871700 0.163036 0.393603 0.904707
0.523109 0.543288 6.871700 0.163036 0.393603 0.904707
-0.020179 0.953851 6.790985 -0.163036 0.393603 0.904708
-0.694652 0.674475 6.790985 -0.163036 0.393603 0.904708
-0.563465 0.543288 6.871700 -0.163036 0.393603 0.904708
-0.020179 0.768325 6.871700 -0.163036 0.393603 0.904708
-0.974029 0.000001 6.790985 -0.393603 -0.163036 0.904707
-0.694653 -0.674473 6.790985 -0.393603 -0.163036 0.904707
-0.563466 -0.543287 6.871700 -0.393603 -0.163036 0.904707
-0.788503 0.000001 6.871700 -0.393603 -0.163036 0.904707
-0.020179 0.799586 7.416466 -0.351730 0.849154 -0.393985
-0.585570 0.565393 7.416466 -0.351730 0.849154 -0.393985
-0.905988 0.885812 8.393117 -0.351730 0.849154 -0.393985
-0.020179 1.252726 8.393117 -0.351730 0.849154 -0.393985
-0.819764 0.000001 7.416466 -0.849154 -0.351730 -0.393985
-0.585571 -0.565392 7.416466 -0.849154 -0.351730 -0.393985
-0.905990 -0.885810 8.393117 -0.849154 -0.351730 -0.393985
-1.272905 0.000001 8.393117 -0.849154 -0.351730 -0.393985
0.545214 -0.565392 7.416466 0.849153 -0.351731 -0.393985
0.779407 0.000000 7.416466 0.849153 -0.351731 -0.393985
1.232547 0.000000 8.393117 0.849153 -0.351731 -0.393985
0.865632 -0.885811 8.393117 0.849153 -0.351731 -0.393985
0.779407 0.000000 7.416466 0.849153 0.351731 -0.393985
0.545214 0.565393 7.416466 0.849153 0.351731 -0.393985
0.865632 0.885811 8.393117 0.849153 0.351731 -0.393985
1.232547 0.000000 8.393117 0.849153 0.351731 -0.393985
-0.585570 0.565393 7.416466 -0.849153 0.351732 -0.393985
-0.819764 0.000001 7.416466 -0.849153 0.351732 -0.393985
-1.272905 0.000001 8.393117 -0.849153 0.351732 -0.393985
-0.905988 0.885812 8.393117 -0.849153 0.351732 -0.393985
-0.585571 -0.565392 7.416466 -0.351731 -0.849153 -0.393985
-0.020179 -0.799585 7.416466 -0.351731 -0.849153 -0.393985
-0.020179 -1.252726 8.393117 -0.351731 -0.849153 -0.393985
-0.905990 -0.885810 8.393117 -0.351731 -0.849153 -0.393985
-0.020179 -0.799585 7.416466 0.351731 -0.849153 -0.393985
0.545214 -0.565392 7.416466 0.351731 -0.849153 -0.393985
0.865632 -0.885811 8.393117 0.351731 -0.849153 -0.393985
-0.020179 -1.252726 8.393117 0.351731 -0.849153 -0.393985
0.545214 0.565393 7.416466 0.351731 0.849153 -0.393984
-0.020179 0.799586 7.416466 0.351731 0.849153 -0.393984
-0.020179 1.252726 8.393117 0.351731 0.849153 -0.393984
0.865632 0.885811 8.393117 0.351731 0.849153 -0.393984
0.523109 0.543288 6.871700 0.382147 0.922584 -0.052942
-0.020179 0.768325 6.871700 0.382147 0.922584 -0.052942
-0.020179 0.799586 7.416466 0.382147 0.922584 -0.052942
0.545214 0.565393 7.416466 0.382147 0.922584 -0.052942
-0.020179 -0.768324 6.871700 0.382147 -0.922584 -0.052942
0.523109 -0.543287 6.871700 0.382147 -0.922584 -0.052942
0.545214 -0.565392 7.416466 0.382147 -0.922584 -0.052942
-0.020179 -0.799585 7.416466 0.382147 -0.922584 -0.052942
-0.563466 -0.543287 6.871700 -0.382147 -0.922584 -0.052942
-0.020179 -0.768324 6.871700 -0.382147 -0.922584 -0.052942
-0.020179 -0.799585 7.416466 -0.382147 -0.922584 -0.052942
-0.585571 -0.565392 7.416466 -0.382147 -0.922584 -0.052942
-0.563465 0.543288 6.871700 -0.922583 0.382148 -0.052942
-0.788503 0.000001 6.871700 -0.922583 0.382148 -0.052942
-0.819764 0.000001 7.416466 -0.922583 0.382148 -0.052942
-0.585570 0.565393 7.416466 -0.922583 0.382148 -0.052942
0.748146 0.000000 6.871700 0.922584 0.382147 -0.052942
0.523109 0.543288 6.871700 0.922584 0.382147 -0.052942
0.545214 0.565393 7.416466 0.922584 0.382147 -0.052942
0.779407 0.000000 7.416466 0.922584 0.382147 -0.052942
0.523109 -0.543287 6.871700 0.922584 -0.382146 -0.052942
0.748146 0.000000 6.871700 0.922584 -0.382146 -0.052942
0.779407 0.000000 7.416466 0.922584 -0.382146 -0.052942
0.545214 -0.565392 7.416466 0.922584 -0.382146 -0.052942
-0.788503 0.000001 6.871700 -0.922584 -0.382146 -0.052942
-0.563466 -0.543287 6.871700 -0.922584 -0.382146 -0.052942
-0.585571 -0.565392 7.416466 -0.922584 -0.382146 -0.052942
-0.819764 0.000001 7.416466 -0.922584 -0.382146 -0.052942
-0.020179 0.768325 6.871700 -0.382146 0.922584 -0.052942
-0.563465 0.543288 6.871700 -0.382146 0.922584 -0.052942
-0.585570 0.565393 7.416466 -0.382146 0.922584 -0.052942
-0.020179 0.799586 7.416466 -0.382146 0.922584 -0.052942
-0.020179 -1.252726 8.393117 0.321527 -0.776235 0.542291
0.865632 -0.885811 8.393117 0.321527 -0.776235 0.542291
0.779866 -0.800045 8.566733 0.321527 -0.776235 0.542291
-0.020179 -1.131434 8.566733 0.321527 -0.776235 0.542291
0.865632 0.885811 8.393117 0.321527 0.776235 0.542291
-0.020179 1.252726 8.393117 0.321527 0.776235 0.542291
-0.020179 1.131435 8.566733 0.321527 0.776235 0.542291
0.779866 0.800045 8.566733 0.321527 0.776235 0.542291
-0.020179 1.252726 8.393117 -0.321527 0.776235 0.542291
-0.905988 0.885812 8.393117 -0.321527 0.776235 0.542291
-0.820223 0.800046 8.566733 -0.321527 0.776235 0.542291
-0.020179 1.131435 8.566733 -0.321527 0.776235 0.542291
-1.272905 0.000001 8.393117 -0.776235 -0.321527 0.542291
-0.905990 -0.885810 8.393117 -0.776235 -0.321527 0.542291
-0.820224 -0.800044 8.566733 -0.776235 -0.321527 0.542291
-1.151613 0.000001 8.566733 -0.776235 -0.321527 0.542291
0.865632 -0.885811 8.393117 0.776235 -0.321527 0.542291
1.232547 0.000000 8.393117 0.776235 -0.321527 0.542291
1.111256 0.000000 8.566733 0.776235 -0.321527 0.542291
0.779866 -0.800045 8.566733 0.776235 -0.321527 0.542291
1.232547 0.000000 8.393117 0.776235 0.321527 0.542291
0.865632 0.885811 8.393117 0.776235 0.321527 0.542291
0.779866 0.800045 8.566733 0.776235 0.321527 0.542291
1.111256 0.000000 8.566733 0.776235 0.321527 0.542291
-0.905988 0.885812 8.393117 -0.776235 0.321528 0.542291
-1.272905 0.000001 8.393117 -0.776235 0.321528 0.542291
-1.151613 0.000001 8.566733 -0.776235 0.321528 0.542291
-0.820223 0.800046 8.566733 -0.776235 0.321528 0.542291
-0.905990 -0.885810 8.393117 -0.321527 -0.776235 0.542291
-0.020179 -1.252726 8.393117 -0.321527 -0.776235 0.542291
-0.020179 -1.131434 8.566733 -0.321527 -0.776235 0.542291
-0.820224 -0.800044 8.566733 -0.321527 -0.776235 0.542291
0.779866 -0.800045 8.566733 0.176985 -0.073309 0.981480
1.111256 0.000000 8.566733 0.176985 -0.073309 0.981480
0.409346 0.000000 8.693305 0.176985 -0.073309 0.981480
0.283524 -0.303760 8.693305 0.176985 -0.073309 0.981480
1.111256 0.000000 8.566733 0.176985 0.073310 0.981480
0.779866 0.800045 8.566733 0.176985 0.073310 0.981480
0.283524 0.303761 8.693305 0.176985 0.073310 0.981480
0.409346 0.000000 8.693305 0.176985 0.073310 0.981480
-0.820223 0.800046 8.566733 -0.177013 0.073321 0.981474
-1.151613 0.000001 8.566733 -0.177013 0.073321 0.981474
-0.449819 0.000001 8.693305 -0.177013 0.073321 0.981474
-0.323997 0.303762 8.693305 -0.177013 0.073321 0.981474
-0.820224 -0.800044 8.566733 -0.073318 -0.177005 0.981475
-0.020179 -1.131434 8.566733 -0.073318 -0.177005 0.981475
-0.020237 -0.429582 8.693305 -0.073318 -0.177005 0.981475
-0.323997 -0.303760 8.693305 -0.073318 -0.177005 0.981475
-0.020179 -1.131434 8.566733 0.073313 -0.176993 0.981478
0.779866 -0.800045 8.566733 0.073313 -0.176993 0.981478
0.283524 -0.303760 8.693305 0.073313 -0.176993 0.981478
-0.020237 -0.429582 8.693305 0.073313 -0.176993 0.981478
0.779866 0.800045 8.566733 0.073313 0.176993 0.981478
-0.020179 1.131435 8.566733 0.073313 0.176993 0.981478
-0.020237 0.429583 8.693305 0.073313 0.176993 0.981478
0.283524 0.303761 8.693305 0.073313 0.176993 0.981478
-0.020179 1.131435 8.566733 -0.073318 0.177005 0.981475
-0.820223 0.800046 8.566733 -0.073318 0.177005 0.981475
-0.323997 0.303762 8.693305 -0.073318 0.177005 0.981475
-0.020237 0.429583 8.693305 -0.073318 0.177005 0.981475
-1.151613 0.000001 8.566733 -0.177013 -0.073321 0.981474
-0.820224 -0.800044 8.566733 -0.177013 -0.073321 0.981474
-0.323997 -0.303760 8.693305 -0.177013 -0.073321 0.981474
-0.449819 0.000001 8.693305 -0.177013 -0.073321 0.981474
-0.438686 -0.000000 8.777035 -0.916987 -0.379828 0.121925
-0.449819 0.000001 8.693305 -0.916987 -0.379828 0.121925
-0.323997 -0.303760 8.693305 -0.916987 -0.379828 0.121925
-0.315953 -0.296304 8.777035 -0.916987 -0.379828 0.121925
-0.315953 -0.296304 8.777035 -0.380001 -0.917402 0.118209
-0.323997 -0.303760 8.693305 -0.380001 -0.917402 0.118209
-0.020237 -0.429582 8.693305 -0.380001 -0.917402 0.118209
-0.019649 -0.419037 8.777035 -0.380001 -0.917402 0.118209
-0.019649 -0.419037 8.777035 0.380234 -0.917968 0.112948
-0.020237 -0.429582 8.693305 0.380234 -0.917968 0.112948
0.283524 -0.303760 8.693305 0.380234 -0.917968 0.112948
0.276654 -0.296304 8.777035 0.380234 -0.917968 0.112948
0.276654 -0.296304 8.777035 0.918352 -0.380394 0.109224
0.283524 -0.303760 8.693305 0.918352 -0.380394 0.109224
0.409346 0.000000 8.693305 0.918352 -0.380394 0.109224
0.399387 -0.000000 8.777035 0.918352 -0.380394 0.109224
0.399387 -0.000000 8.777035 0.918352 0.380394 0.109228
0.409346 0.000000 8.693305 0.918352 0.380394 0.109228
0.283524 0.303761 8.693305 0.918352 0.380394 0.109228
0.276654 0.296304 8.777035 0.918352 0.380394 0.109228
0.276654 0.296304 8.777035 0.380234 0.917967 0.112956
0.283524 0.303761 8.693305 0.380234 0.917967 0.112956
-0.020237 0.429583 8.693305 0.380234 0.917967 0.112956
-0.019649 0.419037 8.777035 0.380234 0.917967 0.112956
-0.019649 0.419037 8.777035 -0.380000 0.917401 0.118219
-0.020237 0.429583 8.693305 -0.380000 0.917401 0.118219
-0.323997 0.303762 8.693305 -0.380000 0.917401 0.118219
-0.315953 0.296304 8.777035 -0.380000 0.917401 0.118219
-0.315953 0.296304 8.777035 -0.916986 0.379829 0.121929
-0.323997 0.303762 8.693305 -0.916986 0.379829 0.121929
-0.449819 0.000001 8.693305 -0.916986 0.379829 0.121929
-0.438686 -0.000000 8.777035 -0.916986 0.379829 0.121929
-0.338435 -0.318757 9.129877 -0.379914 -0.917194 -0.120084
-0.019678 -0.450790 9.129877 -0.379914 -0.917194 -0.120084
-0.192188 -0.416476 9.413563 -0.379914 -0.917194 -0.120084
-0.019678 -0.450790 9.129877 0.379914 -0.917194 -0.120083
0.299078 -0.318757 9.129877 0.379914 -0.917194 -0.120083
0.152832 -0.416476 9.413563 0.379914 -0.917194 -0.120083
0.299078 -0.318757 9.129877 0.917194 -0.379914 -0.120084
0.431112 0.000000 9.129877 0.917194 -0.379914 -0.120084
0.396797 -0.172510 9.413563 0.917194 -0.379914 -0.120084
0.431112 0.000000 9.129877 0.917194 0.379914 -0.120084
0.299078 0.318757 9.129877 0.917194 0.379914 -0.120084
0.396797 0.172510 9.413563 0.917194 0.379914 -0.120084
-0.019678 0.450790 9.129877 0.379914 0.917194 -0.120084
0.152832 0.416476 9.413563 0.379914 0.917194 -0.120084
0.299078 0.318757 9.129877 0.379914 0.917194 -0.120084
-0.338435 0.318757 9.129877 -0.379914 0.917194 -0.120084
-0.192188 0.416476 9.413563 -0.379914 0.917194 -0.120084
-0.019678 0.450790 9.129877 -0.379914 0.917194 -0.120084
-0.338435 0.318757 9.129877 -0.917194 0.379914 -0.120084
-0.470468 -0.000000 9.129877 -0.917194 0.379914 -0.120084
-0.436154 0.172510 9.413563 -0.917194 0.379914 -0.120084
-0.470468 -0.000000 9.129877 -0.917194 -0.379915 -0.120084
-0.338435 -0.318757 9.129877 -0.917194 -0.379915 -0.120084
-0.436154 -0.172510 9.413563 -0.917194 -0.379915 -0.120084
-0.019678 -0.000000 9.216169 -0.668417 -0.526075 0.525798
-0.192188 0.416476 9.413563 -0.668417 -0.526075 0.525798
-0.338435 0.318757 9.129877 -0.668417 -0.526075 0.525798
-0.338435 0.318757 9.129877 0.526075 0.668417 0.525798
-0.436154 0.172510 9.413563 0.526075 0.668417 0.525798
-0.019678 -0.000000 9.216169 0.526075 0.668417 0.525798
-0.019678 -0.000000 9.216169 -0.100651 -0.844633 0.525798
-0.436154 0.172510 9.413563 -0.100651 -0.844633 0.525798
-0.470468 -0.000000 9.129877 -0.100651 -0.844633 0.525798
-0.019678 -0.000000 9.216169 -0.100651 0.844634 0.525798
-0.470468 -0.000000 9.129877 -0.100651 0.844634 0.525798
-0.436154 -0.172510 9.413563 -0.100651 0.844634 0.525798
-0.019678 -0.000000 9.216169 0.526075 -0.668417 0.525798
-0.436154 -0.172510 9.413563 0.526075 -0.668417 0.525798
-0.338435 -0.318757 9.129877 0.526075 -0.668417 0.525798
-0.019678 -0.000000 9.216169 -0.668417 0.526075 0.525798
-0.338435 -0.318757 9.129877 -0.668417 0.526075 0.525798
-0.192188 -0.416476 9.413563 -0.668417 0.526075 0.525798
-0.019678 -0.000000 9.216169 0.844634 -0.100651 0.525798
-0.192188 -0.416476 9.413563 0.844634 -0.100651 0.525798
-0.019678 -0.450790 9.129877 0.844634 -0.100651 0.525798
-0.019678 -0.000000 9.216169 -0.844634 -0.100651 0.525798
-0.019678 -0.450790 9.129877 -0.844634 -0.100651 0.525798
0.152832 -0.416476 9.413563 -0.844634 -0.100651 0.525798
-0.019678 -0.000000 9.216169 0.668417 0.526075 0.525798
0.152832 -0.416476 9.413563 0.668417 0.526075 0.525798
0.299078 -0.318757 9.129877 0.668417 0.526075 0.525798
-0.019678 -0.000000 9.216169 -0.526075 -0.668417 0.525798
0.299078 -0.318757 9.129877 -0.526075 -0.668417 0.525798
0.396797 -0.172510 9.413563 -0.526075 -0.668417 0.525798
-0.019678 -0.000000 9.216169 0.100650 0.844634 0.525798
0.396797 -0.172510 9.413563 0.100650 0.844634 0.525798
0.431112 0.000000 9.129877 0.100650 0.844634 0.525798
-0.019678 -0.000000 9.216169 0.100651 -0.844634 0.525798
0.431112 0.000000 9.129877 0.100651 -0.844634 0.525798
0.396797 0.172510 9.413563 0.100651 -0.844634 0.525798
-0.019678 -0.000000 9.216169 -0.526075 0.668417 0.525798
0.396797 0.172510 9.413563 -0.526075 0.668417 0.525798
0.299078 0.318757 9.129877 -0.526075 0.668417 0.525798
0.299078 0.318757 9.129877 0.668417 -0.526075 0.525798
0.152832 0.416476 9.413563 0.668417 -0.526075 0.525798
-0.019678 -0.000000 9.216169 0.668417 -0.526075 0.525798
0.152832 0.416476 9.413563 -0.844633 0.100651 0.525798
-0.019678 0.450790 9.129877 -0.844633 0.100651 0.525798
-0.019678 -0.000000 9.216169 -0.844633 0.100651 0.525798
-0.019678 -0.000000 9.216169 0.844633 0.100651 0.525798
-0.019678 0.450790 9.129877 0.844633 0.100651 0.525798
-0.192188 0.416476 9.413563 0.844633 0.100651 0.525798
4 0 1 2 3
4 4 5 6 7
4 8 9 10 11
4 12 13 14 15
4 16 17 18 19
4 20 21 22 23
4 24 25 26 27
4 28 29 30 31
4 32 33 34 35
4 36 37 38 39
4 40 41 42 43
4 44 45 46 47
4 48 49 50 51
4 52 53 54 55
4 56 57 58 59
4 60 61 62 63
4 64 65 66 67
4 68 69 70 71
4 72 73 74 75
4 76 77 78 79
4 80 81 82 83
4 84 85 86 87
4 88 89 90 91
4 92 93 94 95
4 96 97 98 99
4 100 101 102 103
4 104 105 106 107
4 108 109 110 111
4 112 113 114 115
4 116 117 118 119
4 120 121 122 123
4 124 125 126 127
4 128 129 130 131
4 132 133 134 135
4 136 137 138 139
4 140 141 142 143
4 144 145 146 147
4 148 149 150 151
4 152 153 154 155
4 156 157 158 159
4 160 161 162 163
4 164 165 166 167
4 168 169 170 171
4 172 173 174 175
4 176 177 178 179
4 180 181 182 183
4 184 185 186 187
4 188 189 190 191
4 192 193 194 195
4 196 197 198 199
4 200 201 202 203
4 204 205 206 207
4 208 209 210 211
4 212 213 214 215
4 216 217 218 219
4 220 221 222 223
3 224 225 226
3 226 227 228
3 228 229 230
3 230 231 224
3 224 226 228
3 228 230 224
4 232 233 234 235
4 236 237 238 239
4 240 241 242 243
4 244 245 246 247
4 248 249 250 251
4 252 253 254 255
4 256 257 258 259
4 260 261 262 263
4 264 265 266 267
4 268 269 270 271
4 272 273 274 275
4 276 277 278 279
4 280 281 282 283
4 284 285 286 287
4 288 289 290 291
4 292 293 294 295
4 296 297 298 299
4 300 301 302 303
4 304 305 306 307
4 308 309 310 311
4 312 313 314 315
4 316 317 318 319
4 320 321 322 323
4 324 325 326 327
4 328 329 330 331
4 332 333 334 335
4 336 337 338 339
4 340 341 342 343
4 344 345 346 347
4 348 349 350 351
4 352 353 354 355
4 356 357 358 359
4 360 361 362 363
4 364 365 366 367
4 368 369 370 371
4 372 373 374 375
4 376 377 378 379
4 380 381 382 383
4 384 385 386 387
4 388 389 390 391
4 392 393 394 395
4 396 397 398 399
4 400 401 402 403
4 404 405 406 407
4 408 409 410 411
4 412 413 414 415
4 416 417 418 419
4 420 421 422 423
4 424 425 426 427
4 428 429 430 431
4 432 433 434 435
4 436 437 438 439
4 440 441 442 443
4 444 445 446 447
4 448 449 450 451
4 452 453 454 455
4 456 457 458 459
4 460 461 462 463
4 464 465 466 467
4 468 469 470 471
4 472 473 474 475
4 476 477 478 479
4 480 481 482 483
4 484 485 486 487
4 488 489 490 491
4 492 493 494 495
4 496 497 498 499
4 500 501 502 503
4 504 505 506 507
4 508 509 510 511
4 512 513 514 515
4 516 517 518 519
4 520 521 522 523
4 524 525 526 527
4 528 529 530 531
4 532 533 534 535
4 536 537 538 539
4 540 541 542 543
4 544 545 546 547
4 548 549 550 551
4 552 553 554 555
4 556 557 558 559
4 560 561 562 563
4 564 565 566 567
4 568 569 570 571
4 572 573 574 575
4 576 577 578 579
4 580 581 582 583
4 584 585 586 587
4 588 589 590 591
4 592 593 594 595
4 596 597 598 599
4 600 601 602 603
4 604 605 606 607
4 608 609 610 611
4 612 613 614 615
3 616 617 618
3 619 620 621
3 622 623 624
3 625 626 627
3 628 629 630
3 631 632 633
3 634 635 636
3 637 638 639
3 640 641 642
3 643 644 645
3 646 647 648
3 649 650 651
3 652 653 654
3 655 656 657
3 658 659 660
3 661 662 663
3 664 665 666
3 667 668 669
3 670 671 672
3 673 674 675
3 676 677 678
3 679 680 681
3 682 683 684
3 685 686 687
