ply
format ascii 1.0
comment Created by Blender 2.79 (sub 0) - www.blender.org, source file: 'knight.blend'
element vertex 556
property float x
property float y
property float z
property float nx
property float ny
property float nz
element face 150
property list uchar uint vertex_indices
end_header
0.713342 0.718490 1.251128 0.789788 0.327128 -0.518845
0.738595 0.779623 1.328113 0.789788 0.327128 -0.518845
1.061292 0.000564 1.328113 0.789788 0.327128 -0.518845
1.010717 0.000564 1.251128 0.789788 0.327128 -0.518845
1.147539 0.000564 0.544973 0.783074 -0.324351 -0.530625
1.373440 0.000564 0.878342 0.783074 -0.324351 -0.530625
0.959318 -0.999217 0.878342 0.783074 -0.324351 -0.530625
0.799581 -0.839480 0.544973 0.783074 -0.324351 -0.530625
0.799581 -0.839480 0.544973 0.336955 -0.777734 -0.530564
0.959318 -0.999217 0.878342 0.336955 -0.777734 -0.530564
0.000000 -1.413340 0.878342 0.336955 -0.777734 -0.530564
0.000000 -1.187438 0.544973 0.336955 -0.777734 -0.530564
1.019287 -1.059187 0.054329 0.384564 -0.891903 0.237831
0.956260 -0.996160 0.390581 0.384564 -0.891903 0.237831
0.000000 -1.409016 0.390581 0.384564 -0.891903 0.237831
0.000000 -1.498150 0.054329 0.384564 -0.891903 0.237831
1.458250 0.000564 0.054329 0.897336 -0.371685 0.237861
1.369116 0.000564 0.390581 0.897336 -0.371685 0.237861
0.956260 -0.996160 0.390581 0.897336 -0.371685 0.237861
1.019287 -1.059187 0.054329 0.897336 -0.371685 0.237861
0.133251 0.960316 1.251128 0.287637 0.673513 -0.680898
0.137968 1.042041 1.328113 0.287637 0.673513 -0.680898
0.738595 0.779623 1.328113 0.287637 0.673513 -0.680898
0.713342 0.718490 1.251128 0.287637 0.673513 -0.680898
0.179198 1.337111 0.878342 0.281472 0.661763 0.694815
0.133251 0.960316 1.251128 0.281472 0.661763 0.694815
0.713342 0.718490 1.251128 0.281472 0.661763 0.694815
0.959318 1.000345 0.878342 0.281472 0.661763 0.694815
0.959318 1.000345 0.878342 0.687063 0.284585 0.668508
0.713342 0.718490 1.251128 0.687063 0.284585 0.668508
1.010717 0.000564 1.251128 0.687063 0.284585 0.668508
1.373440 0.000564 0.878342 0.687063 0.284585 0.668508
0.956260 0.997288 0.390581 0.556291 0.230415 0.798364
0.799581 0.840609 0.544973 0.556291 0.230415 0.798364
1.147539 0.000564 0.544973 0.556291 0.230415 0.798364
1.369116 0.000564 0.390581 0.556291 0.230415 0.798364
0.178627 1.333024 0.390581 0.239204 0.552080 0.798700
0.149360 1.123569 0.544973 0.239204 0.552080 0.798700
0.799581 0.840609 0.544973 0.239204 0.552080 0.798700
0.956260 0.997288 0.390581 0.239204 0.552080 0.798700
1.373440 0.000564 0.878342 0.687063 -0.284585 0.668508
1.010717 0.000564 1.251128 0.687063 -0.284585 0.668508
0.713342 -0.717362 1.251128 0.687063 -0.284585 0.668508
0.959318 -0.999217 0.878342 0.687063 -0.284585 0.668508
1.369116 0.000564 0.390581 0.556291 -0.230415 0.798364
1.147539 0.000564 0.544973 0.556291 -0.230415 0.798364
0.799581 -0.839480 0.544973 0.556291 -0.230415 0.798364
0.956260 -0.996160 0.390581 0.556291 -0.230415 0.798364
0.959318 -0.999217 0.878342 0.281106 -0.660848 0.695853
0.713342 -0.717362 1.251128 0.281106 -0.660848 0.695853
0.000000 -1.014737 1.251128 0.281106 -0.660848 0.695853
0.000000 -1.413340 0.878342 0.281106 -0.660848 0.695853
0.956260 -0.996160 0.390581 0.239418 -0.552538 0.798334
0.799581 -0.839480 0.544973 0.239418 -0.552538 0.798334
0.000000 -1.187438 0.544973 0.239418 -0.552538 0.798334
0.000000 -1.409016 0.390581 0.239418 -0.552538 0.798334
0.738595 0.779623 1.328113 0.878079 0.363689 0.310923
0.427910 0.549905 2.474151 0.878079 0.363689 0.310923
0.710409 -0.132108 2.474151 0.878079 0.363689 0.310923
1.061292 0.000564 1.328113 0.878079 0.363689 0.310923
1.061292 0.000564 1.328113 0.898648 -0.372234 0.232032
0.710409 -0.132108 2.474151 0.898648 -0.372234 0.232032
0.427910 -0.814121 2.474151 0.898648 -0.372234 0.232032
0.738595 -0.778495 1.328113 0.898648 -0.372234 0.232032
0.137968 1.042041 1.328113 0.445174 0.858089 0.255837
0.079933 0.779634 2.474151 0.445174 0.858089 0.255837
0.427910 0.549905 2.474151 0.445174 0.858089 0.255837
0.738595 0.779623 1.328113 0.445174 0.858089 0.255837
0.713342 -0.717362 1.251128 0.285318 -0.668081 -0.687185
0.738595 -0.778495 1.328113 0.285318 -0.668081 -0.687185
0.000000 -1.101192 1.328113 0.285318 -0.668081 -0.687185
0.000000 -1.014737 1.251128 0.285318 -0.668081 -0.687185
0.190400 1.417281 0.054329 0.384533 0.891842 0.238075
0.178627 1.333024 0.390581 0.384533 0.891842 0.238075
0.956260 0.997288 0.390581 0.384533 0.891842 0.238075
1.019287 1.060315 0.054329 0.384533 0.891842 0.238075
1.019287 1.060315 0.054329 0.897336 0.371685 0.237861
0.956260 0.997288 0.390581 0.897336 0.371685 0.237861
1.369116 0.000564 0.390581 0.897336 0.371685 0.237861
1.458250 0.000564 0.054329 0.897336 0.371685 0.237861
0.799581 0.840609 0.544973 0.783074 0.324351 -0.530625
0.959318 1.000345 0.878342 0.783074 0.324351 -0.530625
1.373440 0.000564 0.878342 0.783074 0.324351 -0.530625
1.147539 0.000564 0.544973 0.783074 0.324351 -0.530625
0.149360 1.123569 0.544973 0.336863 0.777490 -0.531053
0.179198 1.337111 0.878342 0.336863 0.777490 -0.531053
0.959318 1.000345 0.878342 0.336863 0.777490 -0.531053
0.799581 0.840609 0.544973 0.336863 0.777490 -0.531053
1.010717 0.000564 1.251128 0.789788 -0.327128 -0.518845
1.061292 0.000564 1.328113 0.789788 -0.327128 -0.518845
0.738595 -0.778495 1.328113 0.789788 -0.327128 -0.518845
0.713342 -0.717362 1.251128 0.789788 -0.327128 -0.518845
0.738595 -0.778495 1.328113 0.459914 -0.886502 0.050325
0.427910 -0.814121 2.474151 0.459914 -0.886502 0.050325
0.000000 -1.096620 2.474151 0.459914 -0.886502 0.050325
0.000000 -1.101192 1.328113 0.459914 -0.886502 0.050325
0.710409 -0.132108 2.474151 0.920103 0.381115 -0.089969
0.427910 0.549905 2.474151 0.920103 0.381115 -0.089969
0.378429 0.859201 3.278156 0.920103 0.381115 -0.089969
0.591077 0.345823 3.278156 0.920103 0.381115 -0.089969
0.000000 -1.096620 2.474151 0.420942 -0.685507 0.594012
0.427910 -0.814121 2.474151 0.420942 -0.685507 0.594012
0.378429 -0.167555 3.278156 0.420942 -0.685507 0.594012
0.000000 -0.380203 3.278156 0.420942 -0.685507 0.594012
0.427910 -0.814121 2.474151 0.867977 -0.359508 0.342540
0.710409 -0.132108 2.474151 0.867977 -0.359508 0.342540
0.591077 0.345823 3.278156 0.867977 -0.359508 0.342540
0.378429 -0.167555 3.278156 0.867977 -0.359508 0.342540
0.378429 -0.167555 3.278156 0.910733 -0.393353 0.125736
0.591077 0.345823 3.278156 0.910733 -0.393353 0.125736
0.591077 0.490557 3.796783 0.910733 -0.393353 0.125736
0.378429 -0.012870 3.696191 0.910733 -0.393353 0.125736
0.591077 0.345823 3.278156 0.914823 0.392163 -0.096316
0.378429 0.859201 3.278156 0.914823 0.392163 -0.096316
0.378429 0.993983 3.897376 0.914823 0.392163 -0.096316
0.591077 0.490557 3.796783 0.914823 0.392163 -0.096316
0.000000 -0.380203 3.278156 0.445357 -0.832820 0.328654
0.378429 -0.167555 3.278156 0.445357 -0.832820 0.328654
0.378429 -0.012870 3.696191 0.445357 -0.832820 0.328654
0.000000 -0.221396 3.654525 0.445357 -0.832820 0.328654
0.378429 -0.012870 3.696191 0.910245 -0.302377 -0.282815
0.591077 0.490557 3.796783 0.910245 -0.302377 -0.282815
0.601204 0.225212 4.158617 0.910245 -0.302377 -0.282815
0.383264 -0.235220 3.903978 0.910245 -0.302377 -0.282815
0.591077 0.490557 3.796783 0.919645 0.335734 0.203742
0.378429 0.993983 3.897376 0.919645 0.335734 0.203742
0.383264 0.685644 4.413256 0.919645 0.335734 0.203742
0.601204 0.225212 4.158617 0.919645 0.335734 0.203742
0.000000 -0.221396 3.654525 0.433607 -0.570086 -0.697806
0.378429 -0.012870 3.696191 0.433607 -0.570086 -0.697806
0.383264 -0.235220 3.903978 0.433607 -0.570086 -0.697806
0.000000 -0.425937 3.798503 0.433607 -0.570086 -0.697806
0.383264 -0.235220 3.903978 0.904965 -0.183142 -0.384014
0.601204 0.225212 4.158617 0.904965 -0.183142 -0.384014
0.601204 -0.172804 4.387778 0.904965 -0.183142 -0.384014
0.383264 -0.538053 4.009054 0.904965 -0.183142 -0.384014
0.601204 0.225212 4.158617 0.913968 0.221931 0.339640
0.383264 0.685644 4.413256 0.913968 0.221931 0.339640
0.383264 0.192444 4.766502 0.913968 0.221931 0.339640
0.601204 -0.172804 4.387778 0.913968 0.221931 0.339640
0.000000 -0.425937 3.798503 0.410352 -0.246162 -0.878048
0.383264 -0.235220 3.903978 0.410352 -0.246162 -0.878048
0.383264 -0.538053 4.009054 0.410352 -0.246162 -0.878048
0.000000 -0.689343 3.852181 0.410352 -0.246162 -0.878048
0.344329 -0.756115 3.976104 0.901700 -0.098910 -0.420850
0.510318 -0.613035 4.297320 0.901700 -0.098910 -0.420850
0.419431 -1.053265 4.206861 0.901700 -0.098910 -0.420850
0.305394 -0.974178 3.943155 0.901700 -0.098910 -0.420850
0.510318 -0.613035 4.297320 0.875393 -0.198370 0.440779
0.344329 -0.469955 4.618535 0.875393 -0.198370 0.440779
0.305394 -1.132353 4.470568 0.875393 -0.198370 0.440779
0.419431 -1.053265 4.206861 0.875393 -0.198370 0.440779
0.000000 -0.815381 3.843053 0.345683 0.075228 -0.935301
0.344329 -0.756115 3.976104 0.345683 0.075228 -0.935301
0.305394 -0.974178 3.943155 0.345683 0.075228 -0.935301
0.000000 -0.941418 3.833924 0.345683 0.075228 -0.935301
0.064320 -0.421759 4.726733 0.333995 -0.210486 0.918729
0.000000 -0.410689 4.751586 0.333995 -0.210486 0.918729
0.000000 -1.165112 4.579799 0.333995 -0.210486 0.918729
0.057047 -1.158993 4.559394 0.333995 -0.210486 0.918729
0.190400 1.417281 0.054329 0.000000 0.000000 -1.000000
1.019287 1.060315 0.054329 0.000000 0.000000 -0.999969
1.458250 0.000564 0.054329 0.000000 0.000000 -1.000000
1.019287 -1.059187 0.054329 0.000000 0.000000 -0.999969
0.000000 -1.498150 0.054329 0.000000 0.000000 -1.000000
0.000000 1.499278 0.054329 0.000000 0.000000 -0.999969
0.344329 -0.469955 4.618535 0.333201 -0.217658 0.917356
0.064320 -0.421759 4.726733 0.333201 -0.217658 0.917356
0.057047 -1.158993 4.559394 0.333201 -0.217658 0.917356
0.305394 -1.132353 4.470568 0.333201 -0.217658 0.917356
0.383264 0.685644 4.413256 0.475143 0.520981 0.709067
0.071593 0.840735 4.499028 0.475143 0.520981 0.709067
0.071593 0.315474 4.894072 0.475143 0.520981 0.709067
0.383264 0.192444 4.766502 0.475143 0.520981 0.709067
0.378429 0.993983 3.897376 0.482162 0.758110 0.439009
0.070690 1.163557 3.931259 0.482162 0.758110 0.439009
0.071593 0.840735 4.499028 0.482162 0.758110 0.439009
0.383264 0.685644 4.413256 0.482162 0.758110 0.439009
0.378429 0.859201 3.278156 0.470626 0.863613 -0.180670
0.070690 1.032127 3.278156 0.470626 0.863613 -0.180670
0.070690 1.163557 3.931259 0.470626 0.863613 -0.180670
0.378429 0.993983 3.897376 0.470626 0.863613 -0.180670
0.427910 0.549905 2.474151 0.504074 0.820887 -0.268380
0.079933 0.779634 2.474151 0.504074 0.820887 -0.268380
0.070690 1.032127 3.278156 0.504074 0.820887 -0.268380
0.378429 0.859201 3.278156 0.504074 0.820887 -0.268380
0.000000 1.188566 0.544973 0.337474 0.778954 -0.528489
0.000000 1.414469 0.878342 0.337474 0.778954 -0.528489
0.179198 1.337111 0.878342 0.337474 0.778954 -0.528489
0.149360 1.123569 0.544973 0.337474 0.778954 -0.528489
0.000000 1.499278 0.054329 0.384686 0.892148 0.236732
0.000000 1.410144 0.390581 0.384686 0.892148 0.236732
0.178627 1.333024 0.390581 0.384686 0.892148 0.236732
0.190400 1.417281 0.054329 0.384686 0.892148 0.236732
0.000000 1.410144 0.390581 0.240242 0.554460 0.796747
0.000000 1.188566 0.544973 0.240242 0.554460 0.796747
0.149360 1.123569 0.544973 0.240242 0.554460 0.796747
0.178627 1.333024 0.390581 0.240242 0.554460 0.796747
0.000000 1.414469 0.878342 0.279397 0.656819 0.700339
0.000000 1.015865 1.251128 0.279397 0.656819 0.700339
0.133251 0.960316 1.251128 0.279397 0.656819 0.700339
0.179198 1.337111 0.878342 0.279397 0.656819 0.700339
0.000000 1.015865 1.251128 0.275399 0.644917 -0.712882
0.000000 1.102320 1.328113 0.275399 0.644917 -0.712882
0.137968 1.042041 1.328113 0.275399 0.644917 -0.712882
0.133251 0.960316 1.251128 0.275399 0.644917 -0.712882
0.000000 0.343735 4.923375 0.023041 -0.691183 0.722282
0.071593 0.315474 4.894072 0.023041 -0.691183 0.722282
0.069829 0.424893 4.998811 0.023041 -0.691183 0.722282
0.000000 0.453153 5.028114 0.023041 -0.691183 0.722282
0.070690 1.163557 3.931259 0.999969 0.007141 -0.001434
0.070690 1.032127 3.278156 0.999969 0.007141 -0.001434
0.070056 1.141546 3.382895 0.999969 0.007141 -0.001434
0.070056 1.272976 4.035998 0.999969 0.007141 -0.001434
0.071593 0.840735 4.499028 0.999939 0.007447 0.003632
0.070690 1.163557 3.931259 0.999939 0.007447 0.003632
0.070056 1.272976 4.035998 0.999939 0.007447 0.003632
0.069829 0.950154 4.603767 0.999939 0.007447 0.003632
0.137968 1.042041 1.328113 0.443709 0.703421 -0.555223
0.000000 1.102320 1.328113 0.443709 0.703421 -0.555223
0.000000 1.211739 1.432853 0.443709 0.703421 -0.555223
0.053157 1.151460 1.432853 0.443709 0.703421 -0.555223
0.079933 0.779634 2.474151 0.940153 0.327830 0.092868
0.137968 1.042041 1.328113 0.940153 0.327830 0.092868
0.053157 1.151460 1.432853 0.940153 0.327830 0.092868
0.067734 0.889053 2.578891 0.940153 0.327830 0.092868
0.067734 0.889053 2.578891 0.540056 0.804559 -0.246895
0.000000 0.941823 2.578891 0.540056 0.804559 -0.246895
0.000000 1.181268 3.382895 0.540056 0.804559 -0.246895
0.070056 1.141546 3.382895 0.540056 0.804559 -0.246895
0.070056 1.141546 3.382895 0.474990 0.862972 -0.172124
0.000000 1.181268 3.382895 0.474990 0.862972 -0.172124
0.000000 1.311928 4.043781 0.474990 0.862972 -0.172124
0.070056 1.272976 4.035998 0.474990 0.862972 -0.172124
0.070056 1.272976 4.035998 0.489090 0.759148 0.429456
0.000000 1.311928 4.043781 0.489090 0.759148 0.429456
0.000000 0.985780 4.623469 0.489090 0.759148 0.429456
0.069829 0.950154 4.603767 0.489090 0.759148 0.429456
0.069829 0.950154 4.603767 0.485763 0.527085 0.697256
0.000000 0.985780 4.623469 0.485763 0.527085 0.697256
0.000000 0.453153 5.028114 0.485763 0.527085 0.697256
0.069829 0.424893 4.998811 0.485763 0.527085 0.697256
0.000000 1.211739 1.432853 0.673849 0.720603 0.163060
0.000000 0.941823 2.578891 0.673849 0.720603 0.163060
0.067734 0.889053 2.578891 0.673849 0.720603 0.163060
0.053157 1.151460 1.432853 0.673849 0.720603 0.163060
0.070690 1.032127 3.278156 0.996765 0.077670 -0.020081
0.079933 0.779634 2.474151 0.996765 0.077670 -0.020081
0.067734 0.889053 2.578891 0.996765 0.077670 -0.020081
0.070056 1.141546 3.382895 0.996765 0.077670 -0.020081
0.071593 0.315474 4.894072 0.999908 0.007080 0.009400
0.071593 0.840735 4.499028 0.999908 0.007080 0.009400
0.069829 0.950154 4.603767 0.999908 0.007080 0.009400
0.069829 0.424893 4.998811 0.999908 0.007080 0.009400
0.383264 0.192444 4.766502 0.305856 -0.218818 0.926572
0.071593 0.315474 4.894072 0.305856 -0.218818 0.926572
0.064320 -0.421759 4.726733 0.305856 -0.218818 0.926572
0.344329 -0.469955 4.618535 0.305856 -0.218818 0.926572
0.071593 0.315474 4.894072 0.308054 -0.212317 0.927335
0.000000 0.343735 4.923375 0.308054 -0.212317 0.927335
0.000000 -0.410689 4.751586 0.308054 -0.212317 0.927335
0.064320 -0.421759 4.726733 0.308054 -0.212317 0.927335
0.000000 -0.689343 3.852181 0.350444 0.074496 -0.933592
0.383264 -0.538053 4.009054 0.350444 0.074496 -0.933592
0.344329 -0.756115 3.976104 0.350444 0.074496 -0.933592
0.000000 -0.815381 3.843053 0.350444 0.074496 -0.933592
0.601204 -0.172804 4.387778 0.779839 -0.218635 0.586535
0.383264 0.192444 4.766502 0.779839 -0.218635 0.586535
0.344329 -0.469955 4.618535 0.779839 -0.218635 0.586535
0.510318 -0.613035 4.297320 0.779839 -0.218635 0.586535
0.383264 -0.538053 4.009054 0.900906 -0.098422 -0.422681
0.601204 -0.172804 4.387778 0.900906 -0.098422 -0.422681
0.510318 -0.613035 4.297320 0.900906 -0.098422 -0.422681
0.344329 -0.756115 3.976104 0.900906 -0.098422 -0.422681
-0.713342 0.718490 1.251128 -0.789788 0.327128 -0.518845
-1.010717 0.000564 1.251128 -0.789788 0.327128 -0.518845
-1.061292 0.000564 1.328113 -0.789788 0.327128 -0.518845
-0.738595 0.779623 1.328113 -0.789788 0.327128 -0.518845
-1.147539 0.000564 0.544973 -0.783074 -0.324351 -0.530625
-0.799581 -0.839480 0.544973 -0.783074 -0.324351 -0.530625
-0.959318 -0.999217 0.878342 -0.783074 -0.324351 -0.530625
-1.373440 0.000564 0.878342 -0.783074 -0.324351 -0.530625
-0.799581 -0.839480 0.544973 -0.336955 -0.777734 -0.530564
0.000000 -1.187438 0.544973 -0.336955 -0.777734 -0.530564
0.000000 -1.413340 0.878342 -0.336955 -0.777734 -0.530564
-0.959318 -0.999217 0.878342 -0.336955 -0.777734 -0.530564
-1.019287 -1.059187 0.054329 -0.384564 -0.891903 0.237831
0.000000 -1.498150 0.054329 -0.384564 -0.891903 0.237831
0.000000 -1.409016 0.390581 -0.384564 -0.891903 0.237831
-0.956260 -0.996160 0.390581 -0.384564 -0.891903 0.237831
-1.458250 0.000564 0.054329 -0.897336 -0.371685 0.237861
-1.019287 -1.059187 0.054329 -0.897336 -0.371685 0.237861
-0.956260 -0.996160 0.390581 -0.897336 -0.371685 0.237861
-1.369116 0.000564 0.390581 -0.897336 -0.371685 0.237861
-0.133251 0.960316 1.251128 -0.287637 0.673513 -0.680898
-0.713342 0.718490 1.251128 -0.287637 0.673513 -0.680898
-0.738595 0.779623 1.328113 -0.287637 0.673513 -0.680898
-0.137968 1.042041 1.328113 -0.287637 0.673513 -0.680898
-0.179198 1.337111 0.878342 -0.281472 0.661763 0.694815
-0.959318 1.000345 0.878342 -0.281472 0.661763 0.694815
-0.713342 0.718490 1.251128 -0.281472 0.661763 0.694815
-0.133251 0.960316 1.251128 -0.281472 0.661763 0.694815
-0.959318 1.000345 0.878342 -0.687063 0.284585 0.668508
-1.373440 0.000564 0.878342 -0.687063 0.284585 0.668508
-1.010717 0.000564 1.251128 -0.687063 0.284585 0.668508
-0.713342 0.718490 1.251128 -0.687063 0.284585 0.668508
-0.956260 0.997288 0.390581 -0.556291 0.230415 0.798364
-1.369116 0.000564 0.390581 -0.556291 0.230415 0.798364
-1.147539 0.000564 0.544973 -0.556291 0.230415 0.798364
-0.799581 0.840609 0.544973 -0.556291 0.230415 0.798364
-0.178627 1.333024 0.390581 -0.239204 0.552080 0.798700
-0.956260 0.997288 0.390581 -0.239204 0.552080 0.798700
-0.799581 0.840609 0.544973 -0.239204 0.552080 0.798700
-0.149360 1.123569 0.544973 -0.239204 0.552080 0.798700
-1.373440 0.000564 0.878342 -0.687063 -0.284585 0.668508
-0.959318 -0.999217 0.878342 -0.687063 -0.284585 0.668508
-0.713342 -0.717362 1.251128 -0.687063 -0.284585 0.668508
-1.010717 0.000564 1.251128 -0.687063 -0.284585 0.668508
-1.369116 0.000564 0.390581 -0.556291 -0.230415 0.798364
-0.956260 -0.996160 0.390581 -0.556291 -0.230415 0.798364
-0.799581 -0.839480 0.544973 -0.556291 -0.230415 0.798364
-1.147539 0.000564 0.544973 -0.556291 -0.230415 0.798364
-0.959318 -0.999217 0.878342 -0.281106 -0.660848 0.695853
0.000000 -1.413340 0.878342 -0.281106 -0.660848 0.695853
0.000000 -1.014737 1.251128 -0.281106 -0.660848 0.695853
-0.713342 -0.717362 1.251128 -0.281106 -0.660848 0.695853
-0.956260 -0.996160 0.390581 -0.239418 -0.552538 0.798334
0.000000 -1.409016 0.390581 -0.239418 -0.552538 0.798334
0.000000 -1.187438 0.544973 -0.239418 -0.552538 0.798334
-0.799581 -0.839480 0.544973 -0.239418 -0.552538 0.798334
-0.738595 0.779623 1.328113 -0.878079 0.363689 0.310923
-1.061292 0.000564 1.328113 -0.878079 0.363689 0.310923
-0.710409 -0.132108 2.474151 -0.878079 0.363689 0.310923
-0.427910 0.549905 2.474151 -0.878079 0.363689 0.310923
-1.061292 0.000564 1.328113 -0.898648 -0.372234 0.232032
-0.738595 -0.778495 1.328113 -0.898648 -0.372234 0.232032
-0.427910 -0.814121 2.474151 -0.898648 -0.372234 0.232032
-0.710409 -0.132108 2.474151 -0.898648 -0.372234 0.232032
-0.137968 1.042041 1.328113 -0.445174 0.858089 0.255837
-0.738595 0.779623 1.328113 -0.445174 0.858089 0.255837
-0.427910 0.549905 2.474151 -0.445174 0.858089 0.255837
-0.079933 0.779634 2.474151 -0.445174 0.858089 0.255837
-0.713342 -0.717362 1.251128 -0.285318 -0.668081 -0.687185
0.000000 -1.014737 1.251128 -0.285318 -0.668081 -0.687185
0.000000 -1.101192 1.328113 -0.285318 -0.668081 -0.687185
-0.738595 -0.778495 1.328113 -0.285318 -0.668081 -0.687185
-0.190400 1.417281 0.054329 -0.384533 0.891842 0.238075
-1.019287 1.060315 0.054329 -0.384533 0.891842 0.238075
-0.956260 0.997288 0.390581 -0.384533 0.891842 0.238075
-0.178627 1.333024 0.390581 -0.384533 0.891842 0.238075
-1.019287 1.060315 0.054329 -0.897336 0.371685 0.237861
-1.458250 0.000564 0.054329 -0.897336 0.371685 0.237861
-1.369116 0.000564 0.390581 -0.897336 0.371685 0.237861
-0.956260 0.997288 0.390581 -0.897336 0.371685 0.237861
-0.799581 0.840609 0.544973 -0.783074 0.324351 -0.530625
-1.147539 0.000564 0.544973 -0.783074 0.324351 -0.530625
-1.373440 0.000564 0.878342 -0.783074 0.324351 -0.530625
-0.959318 1.000345 0.878342 -0.783074 0.324351 -0.530625
-0.149360 1.123569 0.544973 -0.336863 0.777490 -0.531053
-0.799581 0.840609 0.544973 -0.336863 0.777490 -0.531053
-0.959318 1.000345 0.878342 -0.336863 0.777490 -0.531053
-0.179198 1.337111 0.878342 -0.336863 0.777490 -0.531053
-1.010717 0.000564 1.251128 -0.789788 -0.327128 -0.518845
-0.713342 -0.717362 1.251128 -0.789788 -0.327128 -0.518845
-0.738595 -0.778495 1.328113 -0.789788 -0.327128 -0.518845
-1.061292 0.000564 1.328113 -0.789788 -0.327128 -0.518845
-0.738595 -0.778495 1.328113 -0.459914 -0.886502 0.050325
0.000000 -1.101192 1.328113 -0.459914 -0.886502 0.050325
0.000000 -1.096620 2.474151 -0.459914 -0.886502 0.050325
-0.427910 -0.814121 2.474151 -0.459914 -0.886502 0.050325
-0.710409 -0.132108 2.474151 -0.920103 0.381115 -0.089969
-0.591077 0.345823 3.278156 -0.920103 0.381115 -0.089969
-0.378429 0.859201 3.278156 -0.920103 0.381115 -0.089969
-0.427910 0.549905 2.474151 -0.920103 0.381115 -0.089969
0.000000 -1.096620 2.474151 -0.420942 -0.685507 0.594012
0.000000 -0.380203 3.278156 -0.420942 -0.685507 0.594012
-0.378429 -0.167555 3.278156 -0.420942 -0.685507 0.594012
-0.427910 -0.814121 2.474151 -0.420942 -0.685507 0.594012
-0.427910 -0.814121 2.474151 -0.867977 -0.359508 0.342540
-0.378429 -0.167555 3.278156 -0.867977 -0.359508 0.342540
-0.591077 0.345823 3.278156 -0.867977 -0.359508 0.342540
-0.710409 -0.132108 2.474151 -0.867977 -0.359508 0.342540
-0.378429 -0.167555 3.278156 -0.910733 -0.393353 0.125736
-0.378429 -0.012870 3.696191 -0.910733 -0.393353 0.125736
-0.591077 0.490557 3.796783 -0.910733 -0.393353 0.125736
-0.591077 0.345823 3.278156 -0.910733 -0.393353 0.125736
-0.591077 0.345823 3.278156 -0.914823 0.392163 -0.096316
-0.591077 0.490557 3.796783 -0.914823 0.392163 -0.096316
-0.378429 0.993983 3.897376 -0.914823 0.392163 -0.096316
-0.378429 0.859201 3.278156 -0.914823 0.392163 -0.096316
0.000000 -0.380203 3.278156 -0.445357 -0.832820 0.328654
0.000000 -0.221396 3.654525 -0.445357 -0.832820 0.328654
-0.378429 -0.012870 3.696191 -0.445357 -0.832820 0.328654
-0.378429 -0.167555 3.278156 -0.445357 -0.832820 0.328654
-0.378429 -0.012870 3.696191 -0.910245 -0.302377 -0.282815
-0.383264 -0.235220 3.903978 -0.910245 -0.302377 -0.282815
-0.601204 0.225212 4.158617 -0.910245 -0.302377 -0.282815
-0.591077 0.490557 3.796783 -0.910245 -0.302377 -0.282815
-0.591077 0.490557 3.796783 -0.919645 0.335734 0.203742
-0.601204 0.225212 4.158617 -0.919645 0.335734 0.203742
-0.383264 0.685644 4.413256 -0.919645 0.335734 0.203742
-0.378429 0.993983 3.897376 -0.919645 0.335734 0.203742
0.000000 -0.221396 3.654525 -0.433607 -0.570086 -0.697806
0.000000 -0.425937 3.798503 -0.433607 -0.570086 -0.697806
-0.383264 -0.235220 3.903978 -0.433607 -0.570086 -0.697806
-0.378429 -0.012870 3.696191 -0.433607 -0.570086 -0.697806
-0.383264 -0.235220 3.903978 -0.904965 -0.183142 -0.384014
-0.383264 -0.538053 4.009054 -0.904965 -0.183142 -0.384014
-0.601204 -0.172804 4.387778 -0.904965 -0.183142 -0.384014
-0.601204 0.225212 4.158617 -0.904965 -0.183142 -0.384014
-0.601204 0.225212 4.158617 -0.913968 0.221931 0.339640
-0.601204 -0.172804 4.387778 -0.913968 0.221931 0.339640
-0.383264 0.192444 4.766502 -0.913968 0.221931 0.339640
-0.383264 0.685644 4.413256 -0.913968 0.221931 0.339640
0.000000 -0.425937 3.798503 -0.410352 -0.246162 -0.878048
0.000000 -0.689343 3.852181 -0.410352 -0.246162 -0.878048
-0.383264 -0.538053 4.009054 -0.410352 -0.246162 -0.878048
-0.383264 -0.235220 3.903978 -0.410352 -0.246162 -0.878048
-0.344329 -0.756115 3.976104 -0.901700 -0.098910 -0.420850
-0.305394 -0.974178 3.943155 -0.901700 -0.098910 -0.420850
-0.419431 -1.053265 4.206861 -0.901700 -0.098910 -0.420850
-0.510318 -0.613035 4.297320 -0.901700 -0.098910 -0.420850
-0.510318 -0.613035 4.297320 -0.875393 -0.198370 0.440779
-0.419431 -1.053265 4.206861 -0.875393 -0.198370 0.440779
-0.305394 -1.132353 4.470568 -0.875393 -0.198370 0.440779
-0.344329 -0.469955 4.618535 -0.875393 -0.198370 0.440779
0.000000 -0.815381 3.843053 -0.345683 0.075228 -0.935301
0.000000 -0.941418 3.833924 -0.345683 0.075228 -0.935301
-0.305394 -0.974178 3.943155 -0.345683 0.075228 -0.935301
-0.344329 -0.756115 3.976104 -0.345683 0.075228 -0.935301
-0.064320 -0.421759 4.726733 -0.333995 -0.210486 0.918729
-0.057047 -1.158993 4.559394 -0.333995 -0.210486 0.918729
0.000000 -1.165112 4.579799 -0.333995 -0.210486 0.918729
0.000000 -0.410689 4.751586 -0.333995 -0.210486 0.918729
-1.458250 0.000564 0.054329 0.000000 0.000000 -1.000000
-1.019287 1.060315 0.054329 0.000000 0.000000 -0.999969
-0.190400 1.417281 0.054329 0.000000 0.000000 -1.000000
-1.019287 -1.059187 0.054329 0.000000 0.000000 -0.999969
-0.344329 -0.469955 4.618535 -0.333201 -0.217658 0.917356
-0.305394 -1.132353 4.470568 -0.333201 -0.217658 0.917356
-0.057047 -1.158993 4.559394 -0.333201 -0.217658 0.917356
-0.064320 -0.421759 4.726733 -0.333201 -0.217658 0.917356
-0.383264 0.685644 4.413256 -0.475143 0.520981 0.709067
-0.383264 0.192444 4.766502 -0.475143 0.520981 0.709067
-0.071593 0.315474 4.894072 -0.475143 0.520981 0.709067
-0.071593 0.840735 4.499028 -0.475143 0.520981 0.709067
-0.378429 0.993983 3.897376 -0.482162 0.758110 0.439009
-0.383264 0.685644 4.413256 -0.482162 0.758110 0.439009
-0.071593 0.840735 4.499028 -0.482162 0.758110 0.439009
-0.070690 1.163557 3.931259 -0.482162 0.758110 0.439009
-0.378429 0.859201 3.278156 -0.470626 0.863613 -0.180670
-0.378429 0.993983 3.897376 -0.470626 0.863613 -0.180670
-0.070690 1.163557 3.931259 -0.470626 0.863613 -0.180670
-0.070690 1.032127 3.278156 -0.470626 0.863613 -0.180670
-0.427910 0.549905 2.474151 -0.504074 0.820887 -0.268380
-0.378429 0.859201 3.278156 -0.504074 0.820887 -0.268380
-0.070690 1.032127 3.278156 -0.504074 0.820887 -0.268380
-0.079933 0.779634 2.474151 -0.504074 0.820887 -0.268380
0.000000 1.188566 0.544973 -0.337474 0.778954 -0.528489
-0.149360 1.123569 0.544973 -0.337474 0.778954 -0.528489
-0.179198 1.337111 0.878342 -0.337474 0.778954 -0.528489
0.000000 1.414469 0.878342 -0.337474 0.778954 -0.528489
0.000000 1.499278 0.054329 -0.384686 0.892148 0.236732
-0.190400 1.417281 0.054329 -0.384686 0.892148 0.236732
-0.178627 1.333024 0.390581 -0.384686 0.892148 0.236732
0.000000 1.410144 0.390581 -0.384686 0.892148 0.236732
0.000000 1.410144 0.390581 -0.240242 0.554460 0.796747
-0.178627 1.333024 0.390581 -0.240242 0.554460 0.796747
-0.149360 1.123569 0.544973 -0.240242 0.554460 0.796747
0.000000 1.188566 0.544973 -0.240242 0.554460 0.796747
0.000000 1.414469 0.878342 -0.279397 0.656819 0.700339
-0.179198 1.337111 0.878342 -0.279397 0.656819 0.700339
-0.133251 0.960316 1.251128 -0.279397 0.656819 0.700339
0.000000 1.015865 1.251128 -0.279397 0.656819 0.700339
0.000000 1.015865 1.251128 -0.275399 0.644917 -0.712882
-0.133251 0.960316 1.251128 -0.275399 0.644917 -0.712882
-0.137968 1.042041 1.328113 -0.275399 0.644917 -0.712882
0.000000 1.102320 1.328113 -0.275399 0.644917 -0.712882
0.000000 0.343735 4.923375 -0.023041 -0.691183 0.722282
0.000000 0.453153 5.028114 -0.023041 -0.691183 0.722282
-0.069829 0.424893 4.998811 -0.023041 -0.691183 0.722282
-0.071593 0.315474 4.894072 -0.023041 -0.691183 0.722282
-0.070690 1.163557 3.931259 -0.999969 0.007141 -0.001434
-0.070056 1.272976 4.035998 -0.999969 0.007141 -0.001434
-0.070056 1.141546 3.382895 -0.999969 0.007141 -0.001434
-0.070690 1.032127 3.278156 -0.999969 0.007141 -0.001434
-0.071593 0.840735 4.499028 -0.999939 0.007447 0.003632
-0.069829 0.950154 4.603767 -0.999939 0.007447 0.003632
-0.070056 1.272976 4.035998 -0.999939 0.007447 0.003632
-0.070690 1.163557 3.931259 -0.999939 0.007447 0.003632
-0.137968 1.042041 1.328113 -0.443709 0.703421 -0.555223
-0.053157 1.151460 1.432853 -0.443709 0.703421 -0.555223
0.000000 1.211739 1.432853 -0.443709 0.703421 -0.555223
0.000000 1.102320 1.328113 -0.443709 0.703421 -0.555223
-0.079933 0.779634 2.474151 -0.940153 0.327830 0.092868
-0.067734 0.889053 2.578891 -0.940153 0.327830 0.092868
-0.053157 1.151460 1.432853 -0.940153 0.327830 0.092868
-0.137968 1.042041 1.328113 -0.940153 0.327830 0.092868
-0.067734 0.889053 2.578891 -0.540056 0.804559 -0.246895
-0.070056 1.141546 3.382895 -0.540056 0.804559 -0.246895
0.000000 1.181268 3.382895 -0.540056 0.804559 -0.246895
0.000000 0.941823 2.578891 -0.540056 0.804559 -0.246895
-0.070056 1.141546 3.382895 -0.474990 0.862972 -0.172124
-0.070056 1.272976 4.035998 -0.474990 0.862972 -0.172124
0.000000 1.311928 4.043781 -0.474990 0.862972 -0.172124
0.000000 1.181268 3.382895 -0.474990 0.862972 -0.172124
-0.070056 1.272976 4.035998 -0.489090 0.759148 0.429456
-0.069829 0.950154 4.603767 -0.489090 0.759148 0.429456
0.000000 0.985780 4.623469 -0.489090 0.759148 0.429456
0.000000 1.311928 4.043781 -0.489090 0.759148 0.429456
-0.069829 0.950154 4.603767 -0.485763 0.527085 0.697256
-0.069829 0.424893 4.998811 -0.485763 0.527085 0.697256
0.000000 0.453153 5.028114 -0.485763 0.527085 0.697256
0.000000 0.985780 4.623469 -0.485763 0.527085 0.697256
0.000000 1.211739 1.432853 -0.673849 0.720603 0.163060
-0.053157 1.151460 1.432853 -0.673849 0.720603 0.163060
-0.067734 0.889053 2.578891 -0.673849 0.720603 0.163060
0.000000 0.941823 2.578891 -0.673849 0.720603 0.163060
-0.070690 1.032127 3.278156 -0.996765 0.077670 -0.020081
-0.070056 1.141546 3.382895 -0.996765 0.077670 -0.020081
-0.067734 0.889053 2.578891 -0.996765 0.077670 -0.020081
-0.079933 0.779634 2.474151 -0.996765 0.077670 -0.020081
-0.071593 0.315474 4.894072 -0.999908 0.007080 0.009400
-0.069829 0.424893 4.998811 -0.999908 0.007080 0.009400
-0.069829 0.950154 4.603767 -0.999908 0.007080 0.009400
-0.071593 0.840735 4.499028 -0.999908 0.007080 0.009400
-0.383264 0.192444 4.766502 -0.305856 -0.218818 0.926572
-0.344329 -0.469955 4.618535 -0.305856 -0.218818 0.926572
-0.064320 -0.421759 4.726733 -0.305856 -0.218818 0.926572
-0.071593 0.315474 4.894072 -0.305856 -0.218818 0.926572
-0.071593 0.315474 4.894072 -0.308054 -0.212317 0.927335
-0.064320 -0.421759 4.726733 -0.308054 -0.212317 0.927335
0.000000 -0.410689 4.751586 -0.308054 -0.212317 0.927335
0.000000 0.343735 4.923375 -0.308054 -0.212317 0.927335
0.000000 -0.689343 3.852181 -0.350444 0.074496 -0.933592
0.000000 -0.815381 3.843053 -0.350444 0.074496 -0.933592
-0.344329 -0.756115 3.976104 -0.350444 0.074496 -0.933592
-0.383264 -0.538053 4.009054 -0.350444 0.074496 -0.933592
-0.601204 -0.172804 4.387778 -0.779839 -0.218635 0.586535
-0.510318 -0.613035 4.297320 -0.779839 -0.218635 0.586535
-0.344329 -0.469955 4.618535 -0.779839 -0.218635 0.586535
-0.383264 0.192444 4.766502 -0.779839 -0.218635 0.586535
-0.383264 -0.538053 4.009054 -0.900906 -0.098422 -0.422681
-0.344329 -0.756115 3.976104 -0.900906 -0.098422 -0.422681
-0.510318 -0.613035 4.297320 -0.900906 -0.098422 -0.422681
-0.601204 -0.172804 4.387778 -0.900906 -0.098422 -0.422681
0.305394 -0.974178 3.943155 0.000000 -0.957823 -0.287240
0.419431 -1.053265 4.206861 0.000000 -0.957823 -0.287240
0.305394 -1.132353 4.470568 0.000000 -0.957823 -0.287240
0.057047 -1.158993 4.559394 0.000000 -0.957823 -0.287240
0.000000 -1.165112 4.579799 0.000000 -0.957823 -0.287240
-0.057047 -1.158993 4.559394 0.000000 -0.957823 -0.287240
-0.305394 -0.974178 3.943155 0.000000 -0.957823 -0.287240
0.000000 -0.941418 3.833924 0.000000 -0.957823 -0.287240
-0.305394 -1.132353 4.470568 0.000000 -0.957823 -0.287240
-0.419431 -1.053265 4.206861 0.000000 -0.957823 -0.287240
4 0 1 2 3
4 4 5 6 7
4 8 9 10 11
4 12 13 14 15
4 16 17 18 19
4 20 21 22 23
4 24 25 26 27
4 28 29 30 31
4 32 33 34 35
4 36 37 38 39
4 40 41 42 43
4 44 45 46 47
4 48 49 50 51
4 52 53 54 55
4 56 57 58 59
4 60 61 62 63
4 64 65 66 67
4 68 69 70 71
4 72 73 74 75
4 76 77 78 79
4 80 81 82 83
4 84 85 86 87
4 88 89 90 91
4 92 93 94 95
4 96 97 98 99
4 100 101 102 103
4 104 105 106 107
4 108 109 110 111
4 112 113 114 115
4 116 117 118 119
4 120 121 122 123
4 124 125 126 127
4 128 129 130 131
4 132 133 134 135
4 136 137 138 139
4 140 141 142 143
4 144 145 146 147
4 148 149 150 151
4 152 153 154 155
4 156 157 158 159
3 160 161 162
3 162 163 164
3 164 165 160
3 162 164 160
4 166 167 168 169
4 170 171 172 173
4 174 175 176 177
4 178 179 180 181
4 182 183 184 185
4 186 187 188 189
4 190 191 192 193
4 194 195 196 197
4 198 199 200 201
4 202 203 204 205
4 206 207 208 209
4 210 211 212 213
4 214 215 216 217
4 218 219 220 221
4 222 223 224 225
4 226 227 228 229
4 230 231 232 233
4 234 235 236 237
4 238 239 240 241
4 242 243 244 245
4 246 247 248 249
4 250 251 252 253
4 254 255 256 257
4 258 259 260 261
4 262 263 264 265
4 266 267 268 269
4 270 271 272 273
4 274 275 276 277
4 278 279 280 281
4 282 283 284 285
4 286 287 288 289
4 290 291 292 293
4 294 295 296 297
4 298 299 300 301
4 302 303 304 305
4 306 307 308 309
4 310 311 312 313
4 314 315 316 317
4 318 319 320 321
4 322 323 324 325
4 326 327 328 329
4 330 331 332 333
4 334 335 336 337
4 338 339 340 341
4 342 343 344 345
4 346 347 348 349
4 350 351 352 353
4 354 355 356 357
4 358 359 360 361
4 362 363 364 365
4 366 367 368 369
4 370 371 372 373
4 374 375 376 377
4 378 379 380 381
4 382 383 384 385
4 386 387 388 389
4 390 391 392 393
4 394 395 396 397
4 398 399 400 401
4 402 403 404 405
4 406 407 408 409
4 410 411 412 413
4 414 415 416 417
4 418 419 420 421
4 422 423 424 425
4 426 427 428 429
4 430 431 432 433
3 434 435 436
3 436 165 164
3 164 437 434
3 436 164 434
4 438 439 440 441
4 442 443 444 445
4 446 447 448 449
4 450 451 452 453
4 454 455 456 457
4 458 459 460 461
4 462 463 464 465
4 466 467 468 469
4 470 471 472 473
4 474 475 476 477
4 478 479 480 481
4 482 483 484 485
4 486 487 488 489
4 490 491 492 493
4 494 495 496 497
4 498 499 500 501
4 502 503 504 505
4 506 507 508 509
4 510 511 512 513
4 514 515 516 517
4 518 519 520 521
4 522 523 524 525
4 526 527 528 529
4 530 531 532 533
4 534 535 536 537
4 538 539 540 541
4 542 543 544 545
3 546 547 548
3 549 550 551
3 546 548 549
3 552 553 546
3 554 555 552
3 549 551 554
3 552 546 549
3 549 554 552
