ply
format ascii 1.0
comment Created by Blender 2.79 (sub 0) - www.blender.org, source file: 'pawn.blend'
element vertex 452
property float x
property float y
property float z
property float nx
property float ny
property float nz
element face 124
property list uchar uint vertex_indices
end_header
0.000000 0.000000 3.063977 -0.423300 0.244392 -0.872405
-0.527576 0.000000 3.319963 -0.423300 0.244392 -0.872405
-0.263788 0.456894 3.319963 -0.423300 0.244392 -0.872405
-0.746105 0.000000 3.847539 -0.815165 0.470635 0.337652
-0.527576 0.000000 4.375114 -0.815165 0.470635 0.337652
-0.263788 0.456894 4.375114 -0.815165 0.470635 0.337652
-0.373053 0.646146 3.847539 -0.815165 0.470635 0.337652
-0.527576 0.000000 3.319963 -0.815165 0.470635 -0.337652
-0.746105 0.000000 3.847539 -0.815165 0.470635 -0.337652
-0.373053 0.646146 3.847539 -0.815165 0.470635 -0.337652
-0.263788 0.456894 3.319963 -0.815165 0.470635 -0.337652
-0.527576 0.000000 4.375114 -0.373672 0.215740 0.902123
0.000000 -0.000000 4.593644 -0.373672 0.215740 0.902123
-0.263788 0.456894 4.375114 -0.373672 0.215740 0.902123
-0.373053 0.646146 3.847539 0.000000 0.941271 0.337652
-0.263788 0.456894 4.375114 0.000000 0.941271 0.337652
0.263788 0.456894 4.375114 0.000000 0.941271 0.337652
0.373053 0.646146 3.847539 0.000000 0.941271 0.337652
-0.263788 0.456894 3.319963 0.000000 0.941271 -0.337652
-0.373053 0.646146 3.847539 0.000000 0.941271 -0.337652
0.373053 0.646146 3.847539 0.000000 0.941271 -0.337652
0.263788 0.456894 3.319963 0.000000 0.941271 -0.337652
-0.263788 0.456894 4.375114 0.000000 0.431479 0.902123
0.000000 -0.000000 4.593644 0.000000 0.431479 0.902123
0.263788 0.456894 4.375114 0.000000 0.431479 0.902123
0.000000 0.000000 3.063977 0.000000 0.488784 -0.872405
-0.263788 0.456894 3.319963 0.000000 0.488784 -0.872405
0.263788 0.456894 3.319963 0.000000 0.488784 -0.872405
0.000000 0.000000 3.063977 0.423300 0.244392 -0.872405
0.263788 0.456894 3.319963 0.423300 0.244392 -0.872405
0.527576 -0.000000 3.319963 0.423300 0.244392 -0.872405
0.373053 0.646146 3.847539 0.815165 0.470635 0.337652
0.263788 0.456894 4.375114 0.815165 0.470635 0.337652
0.527576 -0.000000 4.375114 0.815165 0.470635 0.337652
0.746105 -0.000000 3.847539 0.815165 0.470635 0.337652
0.263788 0.456894 3.319963 0.815165 0.470635 -0.337652
0.373053 0.646146 3.847539 0.815165 0.470635 -0.337652
0.746105 -0.000000 3.847539 0.815165 0.470635 -0.337652
0.527576 -0.000000 3.319963 0.815165 0.470635 -0.337652
0.263788 0.456894 4.375114 0.373672 0.215739 0.902123
0.000000 -0.000000 4.593644 0.373672 0.215739 0.902123
0.527576 -0.000000 4.375114 0.373672 0.215739 0.902123
0.000000 0.000000 3.063977 0.423300 -0.244392 -0.872405
0.527576 -0.000000 3.319963 0.423300 -0.244392 -0.872405
0.263788 -0.456894 3.319963 0.423300 -0.244392 -0.872405
0.746105 -0.000000 3.847539 0.815165 -0.470636 0.337652
0.527576 -0.000000 4.375114 0.815165 -0.470636 0.337652
0.263788 -0.456894 4.375114 0.815165 -0.470636 0.337652
0.373052 -0.646146 3.847539 0.815165 -0.470636 0.337652
0.527576 -0.000000 3.319963 0.815165 -0.470636 -0.337652
0.746105 -0.000000 3.847539 0.815165 -0.470636 -0.337652
0.373052 -0.646146 3.847539 0.815165 -0.470636 -0.337652
0.263788 -0.456894 3.319963 0.815165 -0.470636 -0.337652
0.527576 -0.000000 4.375114 0.373672 -0.215740 0.902123
0.000000 -0.000000 4.593644 0.373672 -0.215740 0.902123
0.263788 -0.456894 4.375114 0.373672 -0.215740 0.902123
0.000000 0.000000 3.063977 -0.000000 -0.488784 -0.872405
0.263788 -0.456894 3.319963 -0.000000 -0.488784 -0.872405
-0.263788 -0.456894 3.319963 -0.000000 -0.488784 -0.872405
0.373052 -0.646146 3.847539 -0.000000 -0.941271 0.337652
0.263788 -0.456894 4.375114 -0.000000 -0.941271 0.337652
-0.263788 -0.456894 4.375114 -0.000000 -0.941271 0.337652
-0.373053 -0.646146 3.847539 -0.000000 -0.941271 0.337652
0.263788 -0.456894 3.319963 -0.000000 -0.941271 -0.337652
0.373052 -0.646146 3.847539 -0.000000 -0.941271 -0.337652
-0.373053 -0.646146 3.847539 -0.000000 -0.941271 -0.337652
-0.263788 -0.456894 3.319963 -0.000000 -0.941271 -0.337652
0.263788 -0.456894 4.375114 -0.000000 -0.431479 0.902123
0.000000 -0.000000 4.593644 -0.000000 -0.431479 0.902123
-0.263788 -0.456894 4.375114 -0.000000 -0.431479 0.902123
0.000000 0.000000 3.063977 -0.423300 -0.244392 -0.872405
-0.263788 -0.456894 3.319963 -0.423300 -0.244392 -0.872405
-0.527576 0.000000 3.319963 -0.423300 -0.244392 -0.872405
-0.527576 0.000000 4.375114 -0.815165 -0.470635 0.337652
-0.746105 0.000000 3.847539 -0.815165 -0.470635 0.337652
-0.373053 -0.646146 3.847539 -0.815165 -0.470635 0.337652
-0.263788 -0.456894 4.375114 -0.815165 -0.470635 0.337652
-0.263788 -0.456894 3.319963 -0.815165 -0.470635 -0.337652
-0.373053 -0.646146 3.847539 -0.815165 -0.470635 -0.337652
-0.746105 0.000000 3.847539 -0.815165 -0.470635 -0.337652
-0.527576 0.000000 3.319963 -0.815165 -0.470635 -0.337652
-0.263788 -0.456894 4.375114 -0.373672 -0.215739 0.902123
0.000000 -0.000000 4.593644 -0.373672 -0.215739 0.902123
-0.527576 0.000000 4.375114 -0.373672 -0.215739 0.902123
0.667359 0.667359 1.196811 0.910243 0.377035 -0.171179
0.676177 0.676177 1.263126 0.910243 0.377035 -0.171179
0.956259 0.000000 1.263126 0.910243 0.377035 -0.171179
0.943788 0.000000 1.196811 0.910243 0.377035 -0.171179
1.189022 0.000000 0.587637 0.659531 -0.273187 -0.700277
1.415118 0.000000 0.800578 0.659531 -0.273187 -0.700277
1.000639 -1.000639 0.800578 0.659531 -0.273187 -0.700277
0.840765 -0.840765 0.587637 0.659531 -0.273187 -0.700277
0.840765 -0.840765 0.587637 0.273187 -0.659531 -0.700277
1.000639 -1.000639 0.800578 0.273187 -0.659531 -0.700277
-0.000000 -1.415118 0.800578 0.273187 -0.659531 -0.700277
-0.000000 -1.189022 0.587637 0.273187 -0.659531 -0.700277
1.060660 -1.060660 0.000000 0.375937 -0.907593 0.186941
0.997579 -0.997579 0.433112 0.375937 -0.907593 0.186941
-0.000000 -1.410790 0.433112 0.375937 -0.907593 0.186941
-0.000000 -1.500000 0.000000 0.375937 -0.907593 0.186941
1.500000 0.000000 0.000000 0.907593 -0.375937 0.186941
1.410790 0.000000 0.433112 0.907593 -0.375937 0.186941
0.997579 -0.997579 0.433112 0.907593 -0.375937 0.186941
1.060660 -1.060660 0.000000 0.907593 -0.375937 0.186941
0.000000 0.943788 1.196811 0.377035 0.910243 -0.171180
0.000000 0.956259 1.263126 0.377035 0.910243 -0.171180
0.676177 0.676177 1.263126 0.377035 0.910243 -0.171180
0.667359 0.667359 1.196811 0.377035 0.910243 -0.171180
-0.000000 -1.189022 0.587637 -0.273187 -0.659531 -0.700277
-0.000000 -1.415118 0.800578 -0.273187 -0.659531 -0.700277
-1.000640 -1.000639 0.800578 -0.273187 -0.659531 -0.700277
-0.840766 -0.840765 0.587637 -0.273187 -0.659531 -0.700277
-0.840766 -0.840765 0.587637 -0.659531 -0.273186 -0.700277
-1.000640 -1.000639 0.800578 -0.659531 -0.273186 -0.700277
-1.415118 0.000001 0.800578 -0.659531 -0.273186 -0.700277
-1.189022 0.000001 0.587637 -0.659531 -0.273186 -0.700277
-1.060661 -1.060660 0.000000 -0.907593 -0.375936 0.186941
-0.997580 -0.997578 0.433112 -0.907593 -0.375936 0.186941
-1.410790 0.000001 0.433112 -0.907593 -0.375936 0.186941
-1.500000 0.000001 0.000000 -0.907593 -0.375936 0.186941
-0.000000 -1.500000 0.000000 -0.375938 -0.907592 0.186941
-0.000000 -1.410790 0.433112 -0.375938 -0.907592 0.186941
-0.997580 -0.997578 0.433112 -0.375938 -0.907592 0.186941
-1.060661 -1.060660 0.000000 -0.375938 -0.907592 0.186941
-0.667358 0.667360 1.196811 -0.377034 0.910243 -0.171180
-0.676176 0.676178 1.263126 -0.377034 0.910243 -0.171180
0.000000 0.956259 1.263126 -0.377034 0.910243 -0.171180
0.000000 0.943788 1.196811 -0.377034 0.910243 -0.171180
-1.415118 0.000001 0.800578 -0.621784 0.257552 0.739629
-0.943788 0.000001 1.196811 -0.621784 0.257552 0.739629
-0.667358 0.667360 1.196811 -0.621784 0.257552 0.739629
-1.000638 1.000641 0.800578 -0.621784 0.257552 0.739629
-1.000638 1.000641 0.800578 -0.257551 0.621785 0.739629
-0.667358 0.667360 1.196811 -0.257551 0.621785 0.739629
0.000000 0.943788 1.196811 -0.257551 0.621785 0.739629
0.000000 1.415118 0.800578 -0.257551 0.621785 0.739629
-0.997578 0.997580 0.433112 -0.230429 0.556307 0.798389
-0.840764 0.840767 0.587637 -0.230429 0.556307 0.798389
0.000000 1.189022 0.587637 -0.230429 0.556307 0.798389
0.000000 1.410790 0.433112 -0.230429 0.556307 0.798389
-1.410790 0.000001 0.433112 -0.556307 0.230431 0.798389
-1.189022 0.000001 0.587637 -0.556307 0.230431 0.798389
-0.840764 0.840767 0.587637 -0.556307 0.230431 0.798389
-0.997578 0.997580 0.433112 -0.556307 0.230431 0.798389
-0.943788 0.000001 1.196811 -0.910243 0.377036 -0.171179
-0.956259 0.000001 1.263126 -0.910243 0.377036 -0.171179
-0.676176 0.676178 1.263126 -0.910243 0.377036 -0.171179
-0.667358 0.667360 1.196811 -0.910243 0.377036 -0.171179
0.000000 1.415118 0.800578 0.257552 0.621785 0.739629
0.000000 0.943788 1.196811 0.257552 0.621785 0.739629
0.667359 0.667359 1.196811 0.257552 0.621785 0.739629
1.000639 1.000639 0.800578 0.257552 0.621785 0.739629
1.000639 1.000639 0.800578 0.621785 0.257552 0.739629
0.667359 0.667359 1.196811 0.621785 0.257552 0.739629
0.943788 0.000000 1.196811 0.621785 0.257552 0.739629
1.415118 0.000000 0.800578 0.621785 0.257552 0.739629
0.997579 0.997579 0.433112 0.556307 0.230430 0.798389
0.840765 0.840765 0.587637 0.556307 0.230430 0.798389
1.189022 0.000000 0.587637 0.556307 0.230430 0.798389
1.410790 0.000000 0.433112 0.556307 0.230430 0.798389
0.000000 1.410790 0.433112 0.230430 0.556307 0.798389
0.000000 1.189022 0.587637 0.230430 0.556307 0.798389
0.840765 0.840765 0.587637 0.230430 0.556307 0.798389
0.997579 0.997579 0.433112 0.230430 0.556307 0.798389
-0.000000 -0.943788 1.196811 -0.377035 -0.910243 -0.171178
-0.000000 -0.956259 1.263126 -0.377035 -0.910243 -0.171178
-0.676177 -0.676177 1.263126 -0.377035 -0.910243 -0.171178
-0.667359 -0.667358 1.196811 -0.377035 -0.910243 -0.171178
-0.000000 -1.415118 0.800578 -0.257552 -0.621784 0.739629
-0.000000 -0.943788 1.196811 -0.257552 -0.621784 0.739629
-0.667359 -0.667358 1.196811 -0.257552 -0.621784 0.739629
-1.000640 -1.000639 0.800578 -0.257552 -0.621784 0.739629
1.415118 0.000000 0.800578 0.621785 -0.257552 0.739629
0.943788 0.000000 1.196811 0.621785 -0.257552 0.739629
0.667359 -0.667359 1.196811 0.621785 -0.257552 0.739629
1.000639 -1.000639 0.800578 0.621785 -0.257552 0.739629
1.410790 0.000000 0.433112 0.556307 -0.230430 0.798389
1.189022 0.000000 0.587637 0.556307 -0.230430 0.798389
0.840765 -0.840765 0.587637 0.556307 -0.230430 0.798389
0.997579 -0.997579 0.433112 0.556307 -0.230430 0.798389
-0.000000 -1.410790 0.433112 -0.230430 -0.556307 0.798389
-0.000000 -1.189022 0.587637 -0.230430 -0.556307 0.798389
-0.840766 -0.840765 0.587637 -0.230430 -0.556307 0.798389
-0.997580 -0.997578 0.433112 -0.230430 -0.556307 0.798389
-0.667359 -0.667358 1.196811 -0.910244 -0.377034 -0.171178
-0.676177 -0.676177 1.263126 -0.910244 -0.377034 -0.171178
-0.956259 0.000001 1.263126 -0.910244 -0.377034 -0.171178
-0.943788 0.000001 1.196811 -0.910244 -0.377034 -0.171178
-1.000640 -1.000639 0.800578 -0.621785 -0.257551 0.739629
-0.667359 -0.667358 1.196811 -0.621785 -0.257551 0.739629
-0.943788 0.000001 1.196811 -0.621785 -0.257551 0.739629
-1.415118 0.000001 0.800578 -0.621785 -0.257551 0.739629
1.000639 -1.000639 0.800578 0.257551 -0.621785 0.739629
0.667359 -0.667359 1.196811 0.257551 -0.621785 0.739629
-0.000000 -0.943788 1.196811 0.257551 -0.621785 0.739629
-0.000000 -1.415118 0.800578 0.257551 -0.621785 0.739629
0.997579 -0.997579 0.433112 0.230430 -0.556307 0.798389
0.840765 -0.840765 0.587637 0.230430 -0.556307 0.798389
-0.000000 -1.189022 0.587637 0.230430 -0.556307 0.798389
-0.000000 -1.410790 0.433112 0.230430 -0.556307 0.798389
-0.997580 -0.997578 0.433112 -0.556307 -0.230429 0.798389
-0.840766 -0.840765 0.587637 -0.556307 -0.230429 0.798389
-1.189022 0.000001 0.587637 -0.556307 -0.230429 0.798389
-1.410790 0.000001 0.433112 -0.556307 -0.230429 0.798389
0.676177 0.676177 1.263126 0.401814 0.166437 0.900469
0.543150 0.543150 1.347075 0.401814 0.166437 0.900469
0.768130 0.000000 1.347075 0.401814 0.166437 0.900469
0.956259 0.000000 1.263126 0.401814 0.166437 0.900469
0.956259 0.000000 1.263126 0.401814 -0.166437 0.900469
0.768130 0.000000 1.347075 0.401814 -0.166437 0.900469
0.543150 -0.543149 1.347075 0.401814 -0.166437 0.900469
0.676177 -0.676177 1.263126 0.401814 -0.166437 0.900469
-0.676176 0.676178 1.263126 -0.166437 0.401814 0.900469
-0.543149 0.543151 1.347075 -0.166437 0.401814 0.900469
0.000000 0.768130 1.347075 -0.166437 0.401814 0.900469
0.000000 0.956259 1.263126 -0.166437 0.401814 0.900469
-0.956259 0.000001 1.263126 -0.401814 0.166437 0.900469
-0.768129 0.000001 1.347075 -0.401814 0.166437 0.900469
-0.543149 0.543151 1.347075 -0.401814 0.166437 0.900469
-0.676176 0.676178 1.263126 -0.401814 0.166437 0.900469
0.000000 0.956259 1.263126 0.166437 0.401814 0.900469
0.000000 0.768130 1.347075 0.166437 0.401814 0.900469
0.543150 0.543150 1.347075 0.166437 0.401814 0.900469
0.676177 0.676177 1.263126 0.166437 0.401814 0.900469
0.667359 -0.667359 1.196811 0.377035 -0.910243 -0.171178
0.676177 -0.676177 1.263126 0.377035 -0.910243 -0.171178
-0.000000 -0.956259 1.263126 0.377035 -0.910243 -0.171178
-0.000000 -0.943788 1.196811 0.377035 -0.910243 -0.171178
-1.189022 0.000001 0.587637 -0.659531 0.273187 -0.700277
-1.415118 0.000001 0.800578 -0.659531 0.273187 -0.700277
-1.000638 1.000641 0.800578 -0.659531 0.273187 -0.700277
-0.840764 0.840767 0.587637 -0.659531 0.273187 -0.700277
-0.840764 0.840767 0.587637 -0.273186 0.659531 -0.700277
-1.000638 1.000641 0.800578 -0.273186 0.659531 -0.700277
0.000000 1.415118 0.800578 -0.273186 0.659531 -0.700277
0.000000 1.189022 0.587637 -0.273186 0.659531 -0.700277
-1.060659 1.060662 0.000000 -0.375936 0.907593 0.186941
-0.997578 0.997580 0.433112 -0.375936 0.907593 0.186941
0.000000 1.410790 0.433112 -0.375936 0.907593 0.186941
0.000000 1.500000 0.000000 -0.375936 0.907593 0.186941
-1.500000 0.000001 0.000000 -0.907592 0.375938 0.186941
-1.410790 0.000001 0.433112 -0.907592 0.375938 0.186941
-0.997578 0.997580 0.433112 -0.907592 0.375938 0.186941
-1.060659 1.060662 0.000000 -0.907592 0.375938 0.186941
-1.060661 -1.060660 0.000000 0.000000 -0.000000 -1.000000
-1.500000 0.000001 0.000000 0.000000 -0.000000 -1.000000
-1.060659 1.060662 0.000000 0.000000 -0.000000 -1.000000
0.000000 1.500000 0.000000 -0.000000 0.000000 -1.000000
1.060660 1.060660 0.000000 -0.000000 0.000000 -1.000000
1.500000 0.000000 0.000000 0.000000 0.000000 -1.000000
1.060660 -1.060660 0.000000 0.000000 0.000000 -1.000000
-0.000000 -1.500000 0.000000 0.000000 0.000000 -1.000000
-0.668609 -0.668608 3.007843 -0.123376 -0.297857 0.946604
-0.000000 -0.945555 3.007843 -0.123376 -0.297857 0.946604
0.000000 -0.280450 3.217124 -0.123376 -0.297857 0.946604
-0.198308 -0.198308 3.217124 -0.123376 -0.297857 0.946604
0.000000 1.500000 0.000000 0.375937 0.907593 0.186941
0.000000 1.410790 0.433112 0.375937 0.907593 0.186941
0.997579 0.997579 0.433112 0.375937 0.907593 0.186941
1.060660 1.060660 0.000000 0.375937 0.907593 0.186941
1.060660 1.060660 0.000000 0.907593 0.375937 0.186941
0.997579 0.997579 0.433112 0.907593 0.375937 0.186941
1.410790 0.000000 0.433112 0.907593 0.375937 0.186941
1.500000 0.000000 0.000000 0.907593 0.375937 0.186941
0.840765 0.840765 0.587637 0.659531 0.273187 -0.700277
1.000639 1.000639 0.800578 0.659531 0.273187 -0.700277
1.415118 0.000000 0.800578 0.659531 0.273187 -0.700277
1.189022 0.000000 0.587637 0.659531 0.273187 -0.700277
0.000000 1.189022 0.587637 0.273187 0.659531 -0.700277
0.000000 1.415118 0.800578 0.273187 0.659531 -0.700277
1.000639 1.000639 0.800578 0.273187 0.659531 -0.700277
0.840765 0.840765 0.587637 0.273187 0.659531 -0.700277
0.943788 0.000000 1.196811 0.910243 -0.377035 -0.171179
0.956259 0.000000 1.263126 0.910243 -0.377035 -0.171179
0.676177 -0.676177 1.263126 0.910243 -0.377035 -0.171179
0.667359 -0.667359 1.196811 0.910243 -0.377035 -0.171179
-0.676177 -0.676177 1.263126 -0.401814 -0.166437 0.900469
-0.543150 -0.543149 1.347075 -0.401814 -0.166437 0.900469
-0.768129 0.000001 1.347075 -0.401814 -0.166437 0.900469
-0.956259 0.000001 1.263126 -0.401814 -0.166437 0.900469
0.676177 -0.676177 1.263126 0.166437 -0.401814 0.900469
0.543150 -0.543149 1.347075 0.166437 -0.401814 0.900469
-0.000000 -0.768129 1.347075 0.166437 -0.401814 0.900469
-0.000000 -0.956259 1.263126 0.166437 -0.401814 0.900469
-0.000000 -0.956259 1.263126 -0.166437 -0.401814 0.900469
-0.000000 -0.768129 1.347075 -0.166437 -0.401814 0.900469
-0.543150 -0.543149 1.347075 -0.166437 -0.401814 0.900469
-0.676177 -0.676177 1.263126 -0.166437 -0.401814 0.900469
-0.198308 -0.198308 3.217124 0.000000 0.000000 1.000000
0.000000 -0.280450 3.217124 0.000000 0.000000 1.000000
0.198309 -0.198308 3.217124 0.000000 0.000000 1.000000
0.280451 0.000000 3.217124 0.000000 0.000000 1.000000
0.198309 0.198309 3.217124 0.000000 0.000000 1.000000
0.000000 0.280451 3.217124 -0.000000 0.000000 1.000000
-0.198308 0.198309 3.217124 -0.000000 0.000000 1.000000
-0.280450 0.000001 3.217124 0.000000 -0.000000 1.000000
-0.000000 -0.945555 3.007843 0.123376 -0.297857 0.946604
0.668608 -0.668608 3.007843 0.123376 -0.297857 0.946604
0.198309 -0.198308 3.217124 0.123376 -0.297857 0.946604
0.000000 -0.280450 3.217124 0.123376 -0.297857 0.946604
0.945555 0.000000 3.007843 0.297857 0.123376 0.946604
0.668608 0.668608 3.007843 0.297857 0.123376 0.946604
0.198309 0.198309 3.217124 0.297857 0.123376 0.946604
0.280451 0.000000 3.217124 0.297857 0.123376 0.946604
-0.945555 0.000001 3.007843 -0.297857 -0.123376 0.946604
-0.668609 -0.668608 3.007843 -0.297857 -0.123376 0.946604
-0.198308 -0.198308 3.217124 -0.297857 -0.123376 0.946604
-0.280450 0.000001 3.217124 -0.297857 -0.123376 0.946604
0.000000 0.945555 3.007843 -0.123376 0.297857 0.946604
-0.668607 0.668609 3.007843 -0.123376 0.297857 0.946604
-0.198308 0.198309 3.217124 -0.123376 0.297857 0.946604
0.000000 0.280451 3.217124 -0.123376 0.297857 0.946604
0.668608 -0.668608 3.007843 0.297857 -0.123376 0.946604
0.945555 0.000000 3.007843 0.297857 -0.123376 0.946604
0.280451 0.000000 3.217124 0.297857 -0.123376 0.946604
0.198309 -0.198308 3.217124 0.297857 -0.123376 0.946604
0.668608 0.668608 3.007843 0.123376 0.297857 0.946604
0.000000 0.945555 3.007843 0.123376 0.297857 0.946604
0.000000 0.280451 3.217124 0.123376 0.297857 0.946604
0.198309 0.198309 3.217124 0.123376 0.297857 0.946604
-0.668607 0.668609 3.007843 -0.297857 0.123377 0.946604
-0.945555 0.000001 3.007843 -0.297857 0.123377 0.946604
-0.280450 0.000001 3.217124 -0.297857 0.123377 0.946604
-0.198308 0.198309 3.217124 -0.297857 0.123377 0.946604
-0.543149 0.543151 1.347075 -0.842593 0.349015 0.410153
-0.768129 0.000001 1.347075 -0.842593 0.349015 0.410153
-0.524742 0.000001 1.847076 -0.842593 0.349015 0.410153
-0.371048 0.371049 1.847076 -0.842593 0.349015 0.410153
-0.371048 0.371049 1.847076 -0.918967 0.380650 0.102985
-0.524742 0.000001 1.847076 -0.918967 0.380650 0.102985
-0.468709 0.000001 2.347078 -0.918967 0.380650 0.102985
-0.331426 0.331428 2.347078 -0.918967 0.380650 0.102985
-0.331426 0.331428 2.347078 -0.923704 0.382612 0.019481
-0.468709 0.000001 2.347078 -0.923704 0.382612 0.019481
-0.456892 0.000001 2.907371 -0.923704 0.382612 0.019481
-0.323071 0.323072 2.907371 -0.923704 0.382612 0.019481
0.543150 0.543150 1.347075 0.349014 0.842594 0.410153
0.000000 0.768130 1.347075 0.349014 0.842594 0.410153
0.000000 0.524742 1.847076 0.349014 0.842594 0.410153
0.371049 0.371049 1.847076 0.349014 0.842594 0.410153
0.371049 0.371049 1.847076 0.380649 0.918967 0.102985
0.000000 0.524742 1.847076 0.380649 0.918967 0.102985
0.000000 0.468709 2.347078 0.380649 0.918967 0.102985
0.331427 0.331427 2.347078 0.380649 0.918967 0.102985
0.331427 0.331427 2.347078 0.382611 0.923704 0.019481
0.000000 0.468709 2.347078 0.382611 0.923704 0.019481
0.000000 0.456892 2.907371 0.382611 0.923704 0.019481
0.323072 0.323072 2.907371 0.382611 0.923704 0.019481
0.543150 -0.543149 1.347075 0.842594 -0.349014 0.410153
0.768130 0.000000 1.347075 0.842594 -0.349014 0.410153
0.524742 0.000000 1.847076 0.842594 -0.349014 0.410153
0.371049 -0.371048 1.847076 0.842594 -0.349014 0.410153
0.371049 -0.371048 1.847076 0.918967 -0.380649 0.102985
0.524742 0.000000 1.847076 0.918967 -0.380649 0.102985
0.468709 0.000000 2.347078 0.918967 -0.380649 0.102985
0.331427 -0.331427 2.347078 0.918967 -0.380649 0.102985
0.331427 -0.331427 2.347078 0.923704 -0.382611 0.019481
0.468709 0.000000 2.347078 0.923704 -0.382611 0.019481
0.456892 0.000000 2.907371 0.923704 -0.382611 0.019481
0.323072 -0.323071 2.907371 0.923704 -0.382611 0.019481
0.000000 0.768130 1.347075 -0.349013 0.842594 0.410153
-0.543149 0.543151 1.347075 -0.349013 0.842594 0.410153
-0.371048 0.371049 1.847076 -0.349013 0.842594 0.410153
0.000000 0.524742 1.847076 -0.349013 0.842594 0.410153
0.000000 0.524742 1.847076 -0.380648 0.918967 0.102985
-0.371048 0.371049 1.847076 -0.380648 0.918967 0.102985
-0.331426 0.331428 2.347078 -0.380648 0.918967 0.102985
0.000000 0.468709 2.347078 -0.380648 0.918967 0.102985
0.000000 0.468709 2.347078 -0.382610 0.923704 0.019481
-0.331426 0.331428 2.347078 -0.382610 0.923704 0.019481
-0.323071 0.323072 2.907371 -0.382610 0.923704 0.019481
0.000000 0.456892 2.907371 -0.382610 0.923704 0.019481
-0.768129 0.000001 1.347075 -0.842594 -0.349013 0.410153
-0.543150 -0.543149 1.347075 -0.842594 -0.349013 0.410153
-0.371049 -0.371048 1.847076 -0.842594 -0.349013 0.410153
-0.524742 0.000001 1.847076 -0.842594 -0.349013 0.410153
-0.524742 0.000001 1.847076 -0.918968 -0.380648 0.102985
-0.371049 -0.371048 1.847076 -0.918968 -0.380648 0.102985
-0.331427 -0.331427 2.347078 -0.918968 -0.380648 0.102985
-0.468709 0.000001 2.347078 -0.918968 -0.380648 0.102985
-0.468709 0.000001 2.347078 -0.923705 -0.382610 0.019481
-0.331427 -0.331427 2.347078 -0.923705 -0.382610 0.019481
-0.323072 -0.323071 2.907371 -0.923705 -0.382610 0.019481
-0.456892 0.000001 2.907371 -0.923705 -0.382610 0.019481
0.768130 0.000000 1.347075 0.842594 0.349014 0.410153
0.543150 0.543150 1.347075 0.842594 0.349014 0.410153
0.371049 0.371049 1.847076 0.842594 0.349014 0.410153
0.524742 0.000000 1.847076 0.842594 0.349014 0.410153
0.524742 0.000000 1.847076 0.918967 0.380649 0.102985
0.371049 0.371049 1.847076 0.918967 0.380649 0.102985
0.331427 0.331427 2.347078 0.918967 0.380649 0.102985
0.468709 0.000000 2.347078 0.918967 0.380649 0.102985
0.468709 0.000000 2.347078 0.923704 0.382611 0.019481
0.331427 0.331427 2.347078 0.923704 0.382611 0.019481
0.323072 0.323072 2.907371 0.923704 0.382611 0.019481
0.456892 0.000000 2.907371 0.923704 0.382611 0.019481
-0.000000 -0.768129 1.347075 0.349014 -0.842594 0.410153
0.543150 -0.543149 1.347075 0.349014 -0.842594 0.410153
0.371049 -0.371048 1.847076 0.349014 -0.842594 0.410153
-0.000000 -0.524741 1.847076 0.349014 -0.842594 0.410153
-0.000000 -0.524741 1.847076 0.380649 -0.918967 0.102985
0.371049 -0.371048 1.847076 0.380649 -0.918967 0.102985
0.331427 -0.331427 2.347078 0.380649 -0.918967 0.102985
-0.000000 -0.468708 2.347078 0.380649 -0.918967 0.102985
-0.000000 -0.468708 2.347078 0.382611 -0.923704 0.019481
0.331427 -0.331427 2.347078 0.382611 -0.923704 0.019481
0.323072 -0.323071 2.907371 0.382611 -0.923704 0.019481
-0.000000 -0.456892 2.907371 0.382611 -0.923704 0.019481
-0.543150 -0.543149 1.347075 -0.349014 -0.842594 0.410153
-0.000000 -0.768129 1.347075 -0.349014 -0.842594 0.410153
-0.000000 -0.524741 1.847076 -0.349014 -0.842594 0.410153
-0.371049 -0.371048 1.847076 -0.349014 -0.842594 0.410153
-0.371049 -0.371048 1.847076 -0.380649 -0.918967 0.102985
-0.000000 -0.524741 1.847076 -0.380649 -0.918967 0.102985
-0.000000 -0.468708 2.347078 -0.380649 -0.918967 0.102985
-0.331427 -0.331427 2.347078 -0.380649 -0.918967 0.102985
-0.331427 -0.331427 2.347078 -0.382611 -0.923704 0.019481
-0.000000 -0.468708 2.347078 -0.382611 -0.923704 0.019481
-0.000000 -0.456892 2.907371 -0.382611 -0.923704 0.019481
-0.323072 -0.323071 2.907371 -0.382611 -0.923704 0.019481
-0.323071 0.323072 2.907371 -0.200697 0.083132 -0.976120
-0.456892 0.000001 2.907371 -0.200697 0.083132 -0.976120
-0.945555 0.000001 3.007843 -0.200697 0.083132 -0.976120
-0.668607 0.668609 3.007843 -0.200697 0.083132 -0.976120
0.323072 0.323072 2.907371 0.083132 0.200697 -0.976120
0.000000 0.456892 2.907371 0.083132 0.200697 -0.976120
0.000000 0.945555 3.007843 0.083132 0.200697 -0.976120
0.668608 0.668608 3.007843 0.083132 0.200697 -0.976120
0.323072 -0.323071 2.907371 0.200697 -0.083132 -0.976120
0.456892 0.000000 2.907371 0.200697 -0.083132 -0.976120
0.945555 0.000000 3.007843 0.200697 -0.083132 -0.976120
0.668608 -0.668608 3.007843 0.200697 -0.083132 -0.976120
0.000000 0.456892 2.907371 -0.083131 0.200697 -0.976120
-0.323071 0.323072 2.907371 -0.083131 0.200697 -0.976120
-0.668607 0.668609 3.007843 -0.083131 0.200697 -0.976120
0.000000 0.945555 3.007843 -0.083131 0.200697 -0.976120
-0.456892 0.000001 2.907371 -0.200697 -0.083131 -0.976120
-0.323072 -0.323071 2.907371 -0.200697 -0.083131 -0.976120
-0.668609 -0.668608 3.007843 -0.200697 -0.083131 -0.976120
-0.945555 0.000001 3.007843 -0.200697 -0.083131 -0.976120
0.456892 0.000000 2.907371 0.200697 0.083132 -0.976120
0.323072 0.323072 2.907371 0.200697 0.083132 -0.976120
0.668608 0.668608 3.007843 0.200697 0.083132 -0.976120
0.945555 0.000000 3.007843 0.200697 0.083132 -0.976120
-0.000000 -0.456892 2.907371 0.083132 -0.200697 -0.976120
0.323072 -0.323071 2.907371 0.083132 -0.200697 -0.976120
0.668608 -0.668608 3.007843 0.083132 -0.200697 -0.976120
-0.000000 -0.945555 3.007843 0.083132 -0.200697 -0.976120
-0.323072 -0.323071 2.907371 -0.083132 -0.200697 -0.976120
-0.000000 -0.456892 2.907371 -0.083132 -0.200697 -0.976120
-0.000000 -0.945555 3.007843 -0.083132 -0.200697 -0.976120
-0.668609 -0.668608 3.007843 -0.083132 -0.200697 -0.976120
3 0 1 2
4 3 4 5 6
4 7 8 9 10
3 11 12 13
4 14 15 16 17
4 18 19 20 21
3 22 23 24
3 25 26 27
3 28 29 30
4 31 32 33 34
4 35 36 37 38
3 39 40 41
3 42 43 44
4 45 46 47 48
4 49 50 51 52
3 53 54 55
3 56 57 58
4 59 60 61 62
4 63 64 65 66
3 67 68 69
3 70 71 72
4 73 74 75 76
4 77 78 79 80
3 81 82 83
4 84 85 86 87
4 88 89 90 91
4 92 93 94 95
4 96 97 98 99
4 100 101 102 103
4 104 105 106 107
4 108 109 110 111
4 112 113 114 115
4 116 117 118 119
4 120 121 122 123
4 124 125 126 127
4 128 129 130 131
4 132 133 134 135
4 136 137 138 139
4 140 141 142 143
4 144 145 146 147
4 148 149 150 151
4 152 153 154 155
4 156 157 158 159
4 160 161 162 163
4 164 165 166 167
4 168 169 170 171
4 172 173 174 175
4 176 177 178 179
4 180 181 182 183
4 184 185 186 187
4 188 189 190 191
4 192 193 194 195
4 196 197 198 199
4 200 201 202 203
4 204 205 206 207
4 208 209 210 211
4 212 213 214 215
4 216 217 218 219
4 220 221 222 223
4 224 225 226 227
4 228 229 230 231
4 232 233 234 235
4 236 237 238 239
4 240 241 242 243
3 244 245 246
3 246 247 248
3 248 249 250
3 250 251 244
3 244 246 248
3 248 250 244
4 252 253 254 255
4 256 257 258 259
4 260 261 262 263
4 264 265 266 267
4 268 269 270 271
4 272 273 274 275
4 276 277 278 279
4 280 281 282 283
4 284 285 286 287
3 288 289 290
3 290 291 292
3 292 293 294
3 294 295 288
3 288 290 292
3 292 294 288
4 296 297 298 299
4 300 301 302 303
4 304 305 306 307
4 308 309 310 311
4 312 313 314 315
4 316 317 318 319
4 320 321 322 323
4 324 325 326 327
4 328 329 330 331
4 332 333 334 335
4 336 337 338 339
4 340 341 342 343
4 344 345 346 347
4 348 349 350 351
4 352 353 354 355
4 356 357 358 359
4 360 361 362 363
4 364 365 366 367
4 368 369 370 371
4 372 373 374 375
4 376 377 378 379
4 380 381 382 383
4 384 385 386 387
4 388 389 390 391
4 392 393 394 395
4 396 397 398 399
4 400 401 402 403
4 404 405 406 407
4 408 409 410 411
4 412 413 414 415
4 416 417 418 419
4 420 421 422 423
4 424 425 426 427
4 428 429 430 431
4 432 433 434 435
4 436 437 438 439
4 440 441 442 443
4 444 445 446 447
4 448 449 450 451
