ply
format ascii 1.0
comment Created by Blender 2.79 (sub 0) - www.blender.org, source file: 'queen.blend'
element vertex 704
property float x
property float y
property float z
property float nx
property float ny
property float nz
element face 190
property list uchar uint vertex_indices
end_header
-0.669312 0.670604 5.746130 -0.215279 0.089000 0.972489
-0.946551 0.000001 5.746130 -0.215279 0.089000 0.972489
-0.665525 0.000000 5.808340 -0.215279 0.089000 0.972489
-0.470596 0.471505 5.808340 -0.215279 0.089000 0.972489
0.000000 0.948377 5.746130 -0.089178 0.214880 0.972560
-0.669312 0.670604 5.746130 -0.089178 0.214880 0.972560
-0.470596 0.471505 5.808340 -0.089178 0.214880 0.972560
0.000000 0.666808 5.808340 -0.089178 0.214880 0.972560
-0.946551 0.000001 5.746130 -0.920199 0.380427 -0.092242
-0.669312 0.670604 5.746130 -0.920199 0.380427 -0.092242
-0.654624 0.655889 5.538921 -0.920199 0.380427 -0.092242
-0.925780 0.000001 5.538921 -0.920199 0.380427 -0.092242
-0.946551 0.000001 5.746130 -0.215279 -0.089000 0.972489
-0.669313 -0.670604 5.746130 -0.215279 -0.089000 0.972489
-0.470597 -0.471505 5.808340 -0.215279 -0.089000 0.972489
-0.665525 0.000000 5.808340 -0.215279 -0.089000 0.972489
-0.470596 0.471505 5.808340 -0.920986 0.380752 -0.082539
-0.665525 0.000000 5.808340 -0.920986 0.380752 -0.082539
-0.716893 0.000001 6.381514 -0.920986 0.380752 -0.082539
-0.506919 0.507898 6.381514 -0.920986 0.380752 -0.082539
0.669313 0.670604 5.746130 0.089178 0.214880 0.972560
0.000000 0.948377 5.746130 0.089178 0.214880 0.972560
0.000000 0.666808 5.808340 0.089178 0.214880 0.972560
0.470597 0.471505 5.808340 0.089178 0.214880 0.972560
-0.669312 0.670604 5.746130 -0.381674 0.919670 -0.092367
0.000000 0.948377 5.746130 -0.381674 0.919670 -0.092367
0.000000 0.927566 5.538921 -0.381674 0.919670 -0.092367
-0.654624 0.655889 5.538921 -0.381674 0.919670 -0.092367
0.000000 0.666808 5.808340 -0.382001 0.920459 -0.082651
-0.470596 0.471505 5.808340 -0.382001 0.920459 -0.082651
-0.506919 0.507898 6.381514 -0.382001 0.920459 -0.082651
0.000000 0.718276 6.381514 -0.382001 0.920459 -0.082651
-0.933663 0.935466 5.389114 -0.351150 0.145172 0.924997
-1.320400 0.000001 5.389114 -0.351150 0.145172 0.924997
-0.925780 0.000001 5.538921 -0.351150 0.145172 0.924997
-0.654624 0.655889 5.538921 -0.351150 0.145172 0.924997
-0.925780 0.000001 5.538921 -0.920200 -0.380424 -0.092243
-0.654626 -0.655888 5.538921 -0.920200 -0.380424 -0.092243
-0.669313 -0.670604 5.746130 -0.920200 -0.380424 -0.092243
-0.946551 0.000001 5.746130 -0.920200 -0.380424 -0.092243
-0.669313 -0.670604 5.746130 -0.089178 -0.214880 0.972560
-0.000000 -0.948377 5.746130 -0.089178 -0.214880 0.972560
-0.000000 -0.666809 5.808340 -0.089178 -0.214880 0.972560
-0.470597 -0.471505 5.808340 -0.089178 -0.214880 0.972560
-0.665525 0.000000 5.808340 -0.920987 -0.380750 -0.082539
-0.470597 -0.471505 5.808340 -0.920987 -0.380750 -0.082539
-0.506920 -0.507898 6.381514 -0.920987 -0.380750 -0.082539
-0.716893 0.000001 6.381514 -0.920987 -0.380750 -0.082539
-0.506919 0.507898 6.381514 -0.751846 0.310826 -0.581476
-0.716893 0.000001 6.381514 -0.751846 0.310826 -0.581476
-1.233055 -0.009881 7.043627 -0.751846 0.310826 -0.581476
-0.871900 0.863702 7.043627 -0.751846 0.310826 -0.581476
0.946551 -0.000000 5.746130 0.215279 0.089000 0.972489
0.669313 0.670604 5.746130 0.215279 0.089000 0.972489
0.470597 0.471505 5.808340 0.215279 0.089000 0.972489
0.665525 -0.000000 5.808340 0.215279 0.089000 0.972489
0.654625 0.655888 5.538921 0.381675 0.919670 -0.092367
0.000000 0.927566 5.538921 0.381675 0.919670 -0.092367
0.000000 0.948377 5.746130 0.381675 0.919670 -0.092367
0.669313 0.670604 5.746130 0.381675 0.919670 -0.092367
0.470597 0.471505 5.808340 0.382002 0.920458 -0.082651
0.000000 0.666808 5.808340 0.382002 0.920458 -0.082651
0.000000 0.718276 6.381514 0.382002 0.920458 -0.082651
0.506920 0.507898 6.381514 0.382002 0.920458 -0.082651
0.000000 1.322947 5.389114 -0.145480 0.350543 0.925179
-0.933663 0.935466 5.389114 -0.145480 0.350543 0.925179
-0.654624 0.655889 5.538921 -0.145480 0.350543 0.925179
0.000000 0.927566 5.538921 -0.145480 0.350543 0.925179
0.000000 0.718276 6.381514 -0.312897 0.753947 -0.577633
-0.506919 0.507898 6.381514 -0.312897 0.753947 -0.577633
-0.871900 0.863702 7.043627 -0.312897 0.753947 -0.577633
0.000000 1.225551 7.043627 -0.312897 0.753947 -0.577633
-0.469914 0.470822 4.943182 -0.547673 0.226418 -0.805474
-0.664560 0.000000 4.943182 -0.547673 0.226418 -0.805474
-1.320400 0.000001 5.389114 -0.547673 0.226418 -0.805474
-0.933663 0.935466 5.389114 -0.547673 0.226418 -0.805474
-1.320400 0.000001 5.389114 -0.351150 -0.145171 0.924997
-0.933665 -0.935465 5.389114 -0.351150 -0.145171 0.924997
-0.654626 -0.655888 5.538921 -0.351150 -0.145171 0.924997
-0.925780 0.000001 5.538921 -0.351150 -0.145171 0.924997
-0.654626 -0.655888 5.538921 -0.381675 -0.919670 -0.092367
-0.000000 -0.927566 5.538921 -0.381675 -0.919670 -0.092367
-0.000000 -0.948377 5.746130 -0.381675 -0.919670 -0.092367
-0.669313 -0.670604 5.746130 -0.381675 -0.919670 -0.092367
-0.000000 -0.948377 5.746130 0.089178 -0.214880 0.972560
0.669313 -0.670604 5.746130 0.089178 -0.214880 0.972560
0.470597 -0.471505 5.808340 0.089178 -0.214880 0.972560
-0.000000 -0.666809 5.808340 0.089178 -0.214880 0.972560
-0.470597 -0.471505 5.808340 -0.382002 -0.920458 -0.082651
-0.000000 -0.666809 5.808340 -0.382002 -0.920458 -0.082651
-0.000000 -0.718276 6.381514 -0.382002 -0.920458 -0.082651
-0.506920 -0.507898 6.381514 -0.382002 -0.920458 -0.082651
-0.716893 0.000001 6.381514 -0.747791 -0.309148 -0.587568
-0.506920 -0.507898 6.381514 -0.747791 -0.309148 -0.587568
-0.871902 -0.883466 7.043627 -0.747791 -0.309148 -0.587568
-1.233055 -0.009881 7.043627 -0.747791 -0.309148 -0.587568
-1.358007 0.608400 7.543008 0.290491 -0.120094 0.949311
-0.620085 -0.009882 7.238986 0.290491 -0.120094 0.949311
-0.438070 0.430387 7.238986 0.290491 -0.120094 0.949311
0.669313 -0.670604 5.746130 0.215279 -0.089000 0.972489
0.946551 -0.000000 5.746130 0.215279 -0.089000 0.972489
0.665525 -0.000000 5.808340 0.215279 -0.089000 0.972489
0.470597 -0.471505 5.808340 0.215279 -0.089000 0.972489
0.925780 -0.000000 5.538921 0.920200 0.380425 -0.092242
0.654625 0.655888 5.538921 0.920200 0.380425 -0.092242
0.669313 0.670604 5.746130 0.920200 0.380425 -0.092242
0.946551 -0.000000 5.746130 0.920200 0.380425 -0.092242
0.665525 -0.000000 5.808340 0.920987 0.380751 -0.082539
0.470597 0.471505 5.808340 0.920987 0.380751 -0.082539
0.506920 0.507898 6.381514 0.920987 0.380751 -0.082539
0.716893 -0.000000 6.381514 0.920987 0.380751 -0.082539
0.933664 0.935465 5.389114 0.145480 0.350543 0.925178
0.000000 1.322947 5.389114 0.145480 0.350543 0.925178
0.000000 0.927566 5.538921 0.145480 0.350543 0.925178
0.654625 0.655888 5.538921 0.145480 0.350543 0.925178
0.506920 0.507898 6.381514 0.312897 0.753947 -0.577633
0.000000 0.718276 6.381514 0.312897 0.753947 -0.577633
0.000000 1.225551 7.043627 0.312897 0.753947 -0.577633
0.871902 0.863701 7.043627 0.312897 0.753947 -0.577633
0.000000 0.665842 4.943182 -0.226962 0.546881 -0.805860
-0.469914 0.470822 4.943182 -0.226962 0.546881 -0.805860
-0.933663 0.935466 5.389114 -0.226962 0.546881 -0.805860
0.000000 1.322947 5.389114 -0.226962 0.546881 -0.805860
-1.358007 0.608400 7.543008 -0.233555 -0.639089 0.732814
-1.233055 -0.009881 7.043627 -0.233555 -0.639089 0.732814
-0.620085 -0.009882 7.238986 -0.233555 -0.639089 0.732814
-0.480535 0.481463 3.181356 -0.924111 0.382043 0.007878
-0.679580 0.000000 3.181356 -0.924111 0.382043 0.007878
-0.664560 0.000000 4.943182 -0.924111 0.382043 0.007878
-0.469914 0.470822 4.943182 -0.924111 0.382043 0.007878
-0.664560 0.000000 4.943182 -0.547674 -0.226417 -0.805474
-0.469915 -0.470821 4.943182 -0.547674 -0.226417 -0.805474
-0.933665 -0.935465 5.389114 -0.547674 -0.226417 -0.805474
-1.320400 0.000001 5.389114 -0.547674 -0.226417 -0.805474
-0.933665 -0.935465 5.389114 -0.145480 -0.350543 0.925179
-0.000000 -1.322948 5.389114 -0.145480 -0.350543 0.925179
-0.000000 -0.927566 5.538921 -0.145480 -0.350543 0.925179
-0.654626 -0.655888 5.538921 -0.145480 -0.350543 0.925179
-0.000000 -0.927566 5.538921 0.381675 -0.919670 -0.092367
0.654625 -0.655888 5.538921 0.381675 -0.919670 -0.092367
0.669313 -0.670604 5.746130 0.381675 -0.919670 -0.092367
-0.000000 -0.948377 5.746130 0.381675 -0.919670 -0.092367
-0.000000 -0.666809 5.808340 0.382002 -0.920458 -0.082651
0.470597 -0.471505 5.808340 0.382002 -0.920458 -0.082651
0.506920 -0.507898 6.381514 0.382002 -0.920458 -0.082651
-0.000000 -0.718276 6.381514 0.382002 -0.920458 -0.082651
-0.506920 -0.507898 6.381514 -0.308831 -0.744148 -0.592340
-0.000000 -0.718276 6.381514 -0.308831 -0.744148 -0.592340
-0.000000 -1.245317 7.043627 -0.308831 -0.744148 -0.592340
-0.871902 -0.883466 7.043627 -0.308831 -0.744148 -0.592340
-0.620085 -0.009882 7.238986 -0.234263 0.636268 0.735040
-1.233055 -0.009881 7.043627 -0.234263 0.636268 0.735040
-1.320810 -0.619095 7.543008 -0.234263 0.636268 0.735040
0.654625 -0.655888 5.538921 0.920200 -0.380425 -0.092242
0.925780 -0.000000 5.538921 0.920200 -0.380425 -0.092242
0.946551 -0.000000 5.746130 0.920200 -0.380425 -0.092242
0.669313 -0.670604 5.746130 0.920200 -0.380425 -0.092242
0.470597 -0.471505 5.808340 0.920987 -0.380751 -0.082539
0.665525 -0.000000 5.808340 0.920987 -0.380751 -0.082539
0.716893 -0.000000 6.381514 0.920987 -0.380751 -0.082539
0.506920 -0.507898 6.381514 0.920987 -0.380751 -0.082539
1.320400 -0.000000 5.389114 0.351150 0.145171 0.924997
0.933664 0.935465 5.389114 0.351150 0.145171 0.924997
0.654625 0.655888 5.538921 0.351150 0.145171 0.924997
0.925780 -0.000000 5.538921 0.351150 0.145171 0.924997
0.716893 -0.000000 6.381514 0.751847 0.310825 -0.581476
0.506920 0.507898 6.381514 0.751847 0.310825 -0.581476
0.871902 0.863701 7.043627 0.751847 0.310825 -0.581476
1.233055 -0.009883 7.043627 0.751847 0.310825 -0.581476
0.469915 0.470821 4.943182 0.226962 0.546881 -0.805860
0.000000 0.665842 4.943182 0.226962 0.546881 -0.805860
0.000000 1.322947 5.389114 0.226962 0.546881 -0.805860
0.933664 0.935465 5.389114 0.226962 0.546881 -0.805860
-1.320810 -0.619095 7.543008 0.301672 0.124716 0.945219
-0.438071 -0.450152 7.238986 0.301672 0.124716 0.945219
-0.620085 -0.009882 7.238986 0.301672 0.124716 0.945219
0.000000 0.680891 3.181356 -0.383301 0.923590 0.007889
-0.480535 0.481463 3.181356 -0.383301 0.923590 0.007889
-0.469914 0.470822 4.943182 -0.383301 0.923590 0.007889
0.000000 0.665842 4.943182 -0.383301 0.923590 0.007889
-0.586067 0.587199 2.509916 -0.905239 0.374241 0.201213
-0.828825 0.000001 2.509916 -0.905239 0.374241 0.201213
-0.679580 0.000000 3.181356 -0.905239 0.374241 0.201213
-0.480535 0.481463 3.181356 -0.905239 0.374241 0.201213
-0.679580 0.000000 3.181356 -0.924112 -0.382042 0.007878
-0.480536 -0.481462 3.181356 -0.924112 -0.382042 0.007878
-0.469915 -0.470821 4.943182 -0.924112 -0.382042 0.007878
-0.664560 0.000000 4.943182 -0.924112 -0.382042 0.007878
-0.469915 -0.470821 4.943182 -0.226963 -0.546880 -0.805860
-0.000000 -0.665842 4.943182 -0.226963 -0.546880 -0.805860
-0.000000 -1.322948 5.389114 -0.226963 -0.546880 -0.805860
-0.933665 -0.935465 5.389114 -0.226963 -0.546880 -0.805860
-0.000000 -1.322948 5.389114 0.145480 -0.350543 0.925179
0.933664 -0.935465 5.389114 0.145480 -0.350543 0.925179
0.654625 -0.655888 5.538921 0.145480 -0.350543 0.925179
-0.000000 -0.927566 5.538921 0.145480 -0.350543 0.925179
-0.000000 -0.718276 6.381514 0.308831 -0.744148 -0.592340
0.506920 -0.507898 6.381514 0.308831 -0.744148 -0.592340
0.871902 -0.883466 7.043627 0.308831 -0.744148 -0.592340
-0.000000 -1.245317 7.043627 0.308831 -0.744148 -0.592340
-0.623370 -1.344433 7.543008 0.123042 0.296477 0.947081
-0.000000 -0.631957 7.238986 0.123042 0.296477 0.947081
-0.438071 -0.450152 7.238986 0.123042 0.296477 0.947081
0.933664 -0.935465 5.389114 0.351150 -0.145171 0.924997
1.320400 -0.000000 5.389114 0.351150 -0.145171 0.924997
0.925780 -0.000000 5.538921 0.351150 -0.145171 0.924997
0.654625 -0.655888 5.538921 0.351150 -0.145171 0.924997
0.506920 -0.507898 6.381514 0.747791 -0.309149 -0.587568
0.716893 -0.000000 6.381514 0.747791 -0.309149 -0.587568
1.233055 -0.009883 7.043627 0.747791 -0.309149 -0.587568
0.871902 -0.883466 7.043627 0.747791 -0.309149 -0.587568
0.664560 -0.000000 4.943182 0.547674 0.226417 -0.805474
0.469915 0.470821 4.943182 0.547674 0.226417 -0.805474
0.933664 0.935465 5.389114 0.547674 0.226417 -0.805474
1.320400 -0.000000 5.389114 0.547674 0.226417 -0.805474
-1.320810 -0.619095 7.543008 0.354980 -0.655793 0.666277
-0.871902 -0.883466 7.043627 0.354980 -0.655793 0.666277
-0.438071 -0.450152 7.238986 0.354980 -0.655793 0.666277
0.480536 0.481462 3.181356 0.383301 0.923590 0.007889
0.000000 0.680891 3.181356 0.383301 0.923590 0.007889
0.000000 0.665842 4.943182 0.383301 0.923590 0.007889
0.469915 0.470821 4.943182 0.383301 0.923590 0.007889
0.000000 0.830423 2.509916 -0.375452 0.904678 0.201476
-0.586067 0.587199 2.509916 -0.375452 0.904678 0.201476
-0.480535 0.481463 3.181356 -0.375452 0.904678 0.201476
0.000000 0.680891 3.181356 -0.375452 0.904678 0.201476
1.384391 -0.508966 7.543008 0.770628 -0.318590 -0.551936
0.871902 -0.883466 7.043627 0.770628 -0.318590 -0.551936
1.233055 -0.009883 7.043627 0.770628 -0.318590 -0.551936
-0.727979 0.729385 2.094873 -0.843728 0.348812 0.407986
-1.029519 0.000001 2.094873 -0.843728 0.348812 0.407986
-0.828825 0.000001 2.509916 -0.843728 0.348812 0.407986
-0.586067 0.587199 2.509916 -0.843728 0.348812 0.407986
-0.828825 0.000001 2.509916 -0.905239 -0.374240 0.201213
-0.586068 -0.587198 2.509916 -0.905239 -0.374240 0.201213
-0.480536 -0.481462 3.181356 -0.905239 -0.374240 0.201213
-0.679580 0.000000 3.181356 -0.905239 -0.374240 0.201213
-0.480536 -0.481462 3.181356 -0.383302 -0.923589 0.007889
-0.000000 -0.680891 3.181356 -0.383302 -0.923589 0.007889
-0.000000 -0.665842 4.943182 -0.383302 -0.923589 0.007889
-0.469915 -0.470821 4.943182 -0.383302 -0.923589 0.007889
-0.000000 -0.665842 4.943182 0.226962 -0.546880 -0.805860
0.469915 -0.470822 4.943182 0.226962 -0.546880 -0.805860
0.933664 -0.935465 5.389114 0.226962 -0.546880 -0.805860
-0.000000 -1.322948 5.389114 0.226962 -0.546880 -0.805860
-0.000000 -0.631957 7.238986 -0.131096 0.315883 0.939698
0.555392 -1.305875 7.543008 -0.131096 0.315883 0.939698
0.438071 -0.450152 7.238986 -0.131096 0.315883 0.939698
-0.178700 0.169558 7.609363 -0.681381 0.281504 0.675630
-0.438070 0.430387 7.238986 -0.681381 0.281504 0.675630
-0.620085 -0.009882 7.238986 -0.681381 0.281504 0.675630
-0.252482 -0.010070 7.609672 -0.681381 0.281504 0.675630
0.469915 -0.470822 4.943182 0.547674 -0.226417 -0.805474
0.664560 -0.000000 4.943182 0.547674 -0.226417 -0.805474
1.320400 -0.000000 5.389114 0.547674 -0.226417 -0.805474
0.933664 -0.935465 5.389114 0.547674 -0.226417 -0.805474
0.679580 -0.000000 3.181356 0.924111 0.382043 0.007878
0.480536 0.481462 3.181356 0.924111 0.382043 0.007878
0.469915 0.470821 4.943182 0.924111 0.382043 0.007878
0.664560 -0.000000 4.943182 0.924111 0.382043 0.007878
0.586068 0.587198 2.509916 0.375453 0.904678 0.201476
0.000000 0.830423 2.509916 0.375453 0.904678 0.201476
0.000000 0.680891 3.181356 0.375453 0.904678 0.201476
0.480536 0.481462 3.181356 0.375453 0.904678 0.201476
0.000000 1.031505 2.094873 -0.349881 0.843061 0.408450
-0.727979 0.729385 2.094873 -0.349881 0.843061 0.408450
-0.586067 0.587199 2.509916 -0.349881 0.843061 0.408450
0.000000 0.830423 2.509916 -0.349881 0.843061 0.408450
0.000021 0.243827 7.609941 -0.283002 0.680127 0.676268
-0.000000 0.612191 7.238986 -0.283002 0.680127 0.676268
-0.438070 0.430387 7.238986 -0.283002 0.680127 0.676268
-0.178700 0.169558 7.609363 -0.283002 0.680127 0.676268
-1.281668 0.000001 1.982141 -0.402464 0.166386 0.900188
-1.029519 0.000001 2.094873 -0.402464 0.166386 0.900188
-0.727979 0.729385 2.094873 -0.402464 0.166386 0.900188
-0.906275 0.908025 1.982141 -0.402464 0.166386 0.900188
-1.029519 0.000001 2.094873 -0.843729 -0.348810 0.407986
-0.727980 -0.729384 2.094873 -0.843729 -0.348810 0.407986
-0.586068 -0.587198 2.509916 -0.843729 -0.348810 0.407986
-0.828825 0.000001 2.509916 -0.843729 -0.348810 0.407986
-0.586068 -0.587198 2.509916 -0.375453 -0.904678 0.201476
-0.000000 -0.830424 2.509916 -0.375453 -0.904678 0.201476
-0.000000 -0.680891 3.181356 -0.375453 -0.904678 0.201476
-0.480536 -0.481462 3.181356 -0.375453 -0.904678 0.201476
-0.000000 -0.680891 3.181356 0.383301 -0.923590 0.007889
0.480536 -0.481463 3.181356 0.383301 -0.923590 0.007889
0.469915 -0.470822 4.943182 0.383301 -0.923590 0.007889
-0.000000 -0.665842 4.943182 0.383301 -0.923590 0.007889
-0.252482 -0.010070 7.609672 -0.681339 -0.281720 0.675582
-0.620085 -0.009882 7.238986 -0.681339 -0.281720 0.675582
-0.438071 -0.450152 7.238986 -0.681339 -0.281720 0.675582
-0.178812 -0.187997 7.609745 -0.681339 -0.281720 0.675582
0.480536 -0.481463 3.181356 0.924111 -0.382043 0.007878
0.679580 -0.000000 3.181356 0.924111 -0.382043 0.007878
0.664560 -0.000000 4.943182 0.924111 -0.382043 0.007878
0.469915 -0.470822 4.943182 0.924111 -0.382043 0.007878
0.828825 -0.000000 2.509916 0.905239 0.374241 0.201213
0.586068 0.587198 2.509916 0.905239 0.374241 0.201213
0.480536 0.481462 3.181356 0.905239 0.374241 0.201213
0.679580 -0.000000 3.181356 0.905239 0.374241 0.201213
0.727980 0.729384 2.094873 0.349881 0.843061 0.408450
0.000000 1.031505 2.094873 0.349881 0.843061 0.408450
0.000000 0.830423 2.509916 0.349881 0.843061 0.408450
0.586068 0.587198 2.509916 0.349881 0.843061 0.408450
0.178744 0.169558 7.609363 0.283008 0.680142 0.676250
0.438071 0.430387 7.238986 0.283008 0.680142 0.676250
-0.000000 0.612191 7.238986 0.283008 0.680142 0.676250
0.000021 0.243827 7.609941 0.283008 0.680142 0.676250
-0.906275 0.908025 1.982141 -0.166749 0.401793 0.900421
-0.727979 0.729385 2.094873 -0.166749 0.401793 0.900421
0.000000 1.031505 2.094873 -0.166749 0.401793 0.900421
0.000000 1.284140 1.982141 -0.166749 0.401793 0.900421
-1.264953 0.000001 1.893088 -0.910543 0.376434 -0.170906
-1.281668 0.000001 1.982141 -0.910543 0.376434 -0.170906
-0.906275 0.908025 1.982141 -0.910543 0.376434 -0.170906
-0.894456 0.896183 1.893088 -0.910543 0.376434 -0.170906
-0.906277 -0.908024 1.982141 -0.402464 -0.166385 0.900188
-0.727980 -0.729384 2.094873 -0.402464 -0.166385 0.900188
-1.029519 0.000001 2.094873 -0.402464 -0.166385 0.900188
-1.281668 0.000001 1.982141 -0.402464 -0.166385 0.900188
-0.727980 -0.729384 2.094873 -0.349881 -0.843061 0.408450
-0.000000 -1.031505 2.094873 -0.349881 -0.843061 0.408450
-0.000000 -0.830424 2.509916 -0.349881 -0.843061 0.408450
-0.586068 -0.587198 2.509916 -0.349881 -0.843061 0.408450
-0.000000 -0.830424 2.509916 0.375453 -0.904678 0.201476
0.586068 -0.587198 2.509916 0.375453 -0.904678 0.201476
0.480536 -0.481463 3.181356 0.375453 -0.904678 0.201476
-0.000000 -0.680891 3.181356 0.375453 -0.904678 0.201476
-0.178812 -0.187997 7.609745 -0.283536 -0.679392 0.676782
-0.438071 -0.450152 7.238986 -0.283536 -0.679392 0.676782
-0.000000 -0.631957 7.238986 -0.283536 -0.679392 0.676782
0.000021 -0.262536 7.610863 -0.283536 -0.679392 0.676782
0.586068 -0.587198 2.509916 0.905239 -0.374241 0.201213
0.828825 -0.000000 2.509916 0.905239 -0.374241 0.201213
0.679580 -0.000000 3.181356 0.905239 -0.374241 0.201213
0.480536 -0.481463 3.181356 0.905239 -0.374241 0.201213
1.029519 -0.000000 2.094873 0.843729 0.348811 0.407986
0.727980 0.729384 2.094873 0.843729 0.348811 0.407986
0.586068 0.587198 2.509916 0.843729 0.348811 0.407986
0.828825 -0.000000 2.509916 0.843729 0.348811 0.407986
0.252525 -0.010070 7.609672 0.681417 0.281518 0.675587
0.620085 -0.009883 7.238986 0.681417 0.281518 0.675587
0.438071 0.430387 7.238986 0.681417 0.281518 0.675587
0.178744 0.169558 7.609363 0.681417 0.281518 0.675587
0.000000 1.284140 1.982141 0.166749 0.401793 0.900420
0.000000 1.031505 2.094873 0.166749 0.401793 0.900420
0.727980 0.729384 2.094873 0.166749 0.401793 0.900420
0.906276 0.908024 1.982141 0.166749 0.401793 0.900420
-0.894456 0.896183 1.893088 -0.377658 0.909993 -0.171134
-0.906275 0.908025 1.982141 -0.377658 0.909993 -0.171134
0.000000 1.284140 1.982141 -0.377658 0.909993 -0.171134
0.000000 1.267393 1.893088 -0.377658 0.909993 -0.171134
-1.896674 0.000001 1.120478 -0.737319 0.304820 0.602865
-1.264953 0.000001 1.893088 -0.737319 0.304820 0.602865
-0.894456 0.896183 1.893088 -0.737319 0.304820 0.602865
-1.341149 1.343739 1.120478 -0.737319 0.304820 0.602865
-0.894457 -0.896182 1.893088 -0.910544 -0.376433 -0.170905
-0.906277 -0.908024 1.982141 -0.910544 -0.376433 -0.170905
-1.281668 0.000001 1.982141 -0.910544 -0.376433 -0.170905
-1.264953 0.000001 1.893088 -0.910544 -0.376433 -0.170905
-0.000000 -1.284141 1.982141 -0.166749 -0.401793 0.900421
-0.000000 -1.031505 2.094873 -0.166749 -0.401793 0.900421
-0.727980 -0.729384 2.094873 -0.166749 -0.401793 0.900421
-0.906277 -0.908024 1.982141 -0.166749 -0.401793 0.900421
-0.000000 -1.031505 2.094873 0.349881 -0.843061 0.408450
0.727980 -0.729385 2.094873 0.349881 -0.843061 0.408450
0.586068 -0.587198 2.509916 0.349881 -0.843061 0.408450
-0.000000 -0.830424 2.509916 0.349881 -0.843061 0.408450
0.000021 -0.262536 7.610863 0.282413 -0.680601 0.676037
-0.000000 -0.631957 7.238986 0.282413 -0.680601 0.676037
0.438071 -0.450152 7.238986 0.282413 -0.680601 0.676037
0.176679 -0.189333 7.610791 0.282413 -0.680601 0.676037
0.727980 -0.729385 2.094873 0.843729 -0.348811 0.407986
1.029519 -0.000000 2.094873 0.843729 -0.348811 0.407986
0.828825 -0.000000 2.509916 0.843729 -0.348811 0.407986
0.586068 -0.587198 2.509916 0.843729 -0.348811 0.407986
0.176679 -0.189333 7.610791 0.680900 -0.282183 0.675832
0.438071 -0.450152 7.238986 0.680900 -0.282183 0.675832
0.620085 -0.009883 7.238986 0.680900 -0.282183 0.675832
0.252525 -0.010070 7.609672 0.680900 -0.282183 0.675832
0.906276 0.908024 1.982141 0.402464 0.166385 0.900188
0.727980 0.729384 2.094873 0.402464 0.166385 0.900188
1.029519 -0.000000 2.094873 0.402464 0.166385 0.900188
1.281668 -0.000000 1.982141 0.402464 0.166385 0.900188
0.000000 1.267393 1.893088 0.377659 0.909993 -0.171134
0.000000 1.284140 1.982141 0.377659 0.909993 -0.171134
0.906276 0.908024 1.982141 0.377659 0.909993 -0.171134
0.894457 0.896182 1.893088 0.377659 0.909993 -0.171134
-1.341149 1.343739 1.120478 -0.305672 0.736538 0.603388
-0.894456 0.896183 1.893088 -0.305672 0.736538 0.603388
0.000000 1.267393 1.893088 -0.305672 0.736538 0.603388
-0.000000 1.900332 1.120478 -0.305672 0.736538 0.603388
-1.593639 0.000001 0.643972 -0.796731 0.329382 -0.506683
-1.896674 0.000001 1.120478 -0.796731 0.329382 -0.506683
-1.341149 1.343739 1.120478 -0.796731 0.329382 -0.506683
-1.126871 1.129047 0.643972 -0.796731 0.329382 -0.506683
-1.341152 -1.343738 1.120478 -0.737319 -0.304819 0.602865
-0.894457 -0.896182 1.893088 -0.737319 -0.304819 0.602865
-1.264953 0.000001 1.893088 -0.737319 -0.304819 0.602865
-1.896674 0.000001 1.120478 -0.737319 -0.304819 0.602865
-0.000000 -1.267394 1.893088 -0.377659 -0.909993 -0.171133
-0.000000 -1.284141 1.982141 -0.377659 -0.909993 -0.171133
-0.906277 -0.908024 1.982141 -0.377659 -0.909993 -0.171133
-0.894457 -0.896182 1.893088 -0.377659 -0.909993 -0.171133
0.906276 -0.908025 1.982141 0.166749 -0.401793 0.900421
0.727980 -0.729385 2.094873 0.166749 -0.401793 0.900421
-0.000000 -1.031505 2.094873 0.166749 -0.401793 0.900421
-0.000000 -1.284141 1.982141 0.166749 -0.401793 0.900421
1.281668 -0.000000 1.982141 0.402464 -0.166385 0.900188
1.029519 -0.000000 2.094873 0.402464 -0.166385 0.900188
0.727980 -0.729385 2.094873 0.402464 -0.166385 0.900188
0.906276 -0.908025 1.982141 0.402464 -0.166385 0.900188
0.894457 0.896182 1.893088 0.910543 0.376433 -0.170907
0.906276 0.908024 1.982141 0.910543 0.376433 -0.170907
1.281668 -0.000000 1.982141 0.910543 0.376433 -0.170907
1.264953 -0.000000 1.893088 0.910543 0.376433 -0.170907
-0.000000 1.900332 1.120478 0.305672 0.736538 0.603388
0.000000 1.267393 1.893088 0.305672 0.736538 0.603388
0.894457 0.896182 1.893088 0.305672 0.736538 0.603388
1.341151 1.343737 1.120478 0.305672 0.736538 0.603388
-1.126871 1.129047 0.643972 -0.330350 0.796003 -0.507196
-1.341149 1.343739 1.120478 -0.330350 0.796003 -0.507196
-0.000000 1.900332 1.120478 -0.330350 0.796003 -0.507196
-0.000000 1.596712 0.643972 -0.330350 0.796003 -0.507196
-1.890873 0.000001 0.436464 -0.557046 0.230293 0.797913
-1.593639 0.000001 0.643972 -0.557046 0.230293 0.797913
-1.126871 1.129047 0.643972 -0.557046 0.230293 0.797913
-1.337047 1.339629 0.436464 -0.557046 0.230293 0.797913
-1.126873 -1.129046 0.643972 -0.796731 -0.329381 -0.506683
-1.341152 -1.343738 1.120478 -0.796731 -0.329381 -0.506683
-1.896674 0.000001 1.120478 -0.796731 -0.329381 -0.506683
-1.593639 0.000001 0.643972 -0.796731 -0.329381 -0.506683
-0.000001 -1.900333 1.120478 -0.305673 -0.736537 0.603388
-0.000000 -1.267394 1.893088 -0.305673 -0.736537 0.603388
-0.894457 -0.896182 1.893088 -0.305673 -0.736537 0.603388
-1.341152 -1.343738 1.120478 -0.305673 -0.736537 0.603388
0.894457 -0.896183 1.893088 0.377659 -0.909993 -0.171133
0.906276 -0.908025 1.982141 0.377659 -0.909993 -0.171133
-0.000000 -1.284141 1.982141 0.377659 -0.909993 -0.171133
-0.000000 -1.267394 1.893088 0.377659 -0.909993 -0.171133
1.264953 -0.000000 1.893088 0.910543 -0.376433 -0.170907
1.281668 -0.000000 1.982141 0.910543 -0.376433 -0.170907
0.906276 -0.908025 1.982141 0.910543 -0.376433 -0.170907
0.894457 -0.896183 1.893088 0.910543 -0.376433 -0.170907
1.341151 1.343737 1.120478 0.737319 0.304820 0.602865
0.894457 0.896182 1.893088 0.737319 0.304820 0.602865
1.264953 -0.000000 1.893088 0.737319 0.304820 0.602865
1.896673 -0.000000 1.120478 0.737319 0.304820 0.602865
-0.000000 1.596712 0.643972 0.330351 0.796003 -0.507196
-0.000000 1.900332 1.120478 0.330351 0.796003 -0.507196
1.341151 1.343737 1.120478 0.330351 0.796003 -0.507196
1.126873 1.129046 0.643972 0.330351 0.796003 -0.507196
-1.337047 1.339629 0.436464 -0.230850 0.556249 0.798307
-1.126871 1.129047 0.643972 -0.230850 0.556249 0.798307
-0.000000 1.596712 0.643972 -0.230850 0.556249 0.798307
-0.000000 1.894520 0.436464 -0.230850 0.556249 0.798307
-2.010441 0.000001 0.029522 -0.891847 0.368705 0.262042
-1.890873 0.000001 0.436464 -0.891847 0.368705 0.262042
-1.337047 1.339629 0.436464 -0.891847 0.368705 0.262042
-1.421595 1.424340 0.029522 -0.891847 0.368705 0.262042
-1.337050 -1.339628 0.436464 -0.557047 -0.230292 0.797913
-1.126873 -1.129046 0.643972 -0.557047 -0.230292 0.797913
-1.593639 0.000001 0.643972 -0.557047 -0.230292 0.797913
-1.890873 0.000001 0.436464 -0.557047 -0.230292 0.797913
-0.000001 -1.596713 0.643972 -0.330351 -0.796002 -0.507196
-0.000001 -1.900333 1.120478 -0.330351 -0.796002 -0.507196
-1.341152 -1.343738 1.120478 -0.330351 -0.796002 -0.507196
-1.126873 -1.129046 0.643972 -0.330351 -0.796002 -0.507196
1.341151 -1.343739 1.120478 0.305672 -0.736538 0.603388
0.894457 -0.896183 1.893088 0.305672 -0.736538 0.603388
-0.000000 -1.267394 1.893088 0.305672 -0.736538 0.603388
-0.000001 -1.900333 1.120478 0.305672 -0.736538 0.603388
1.896673 -0.000000 1.120478 0.737319 -0.304819 0.602865
1.264953 -0.000000 1.893088 0.737319 -0.304819 0.602865
0.894457 -0.896183 1.893088 0.737319 -0.304819 0.602865
1.341151 -1.343739 1.120478 0.737319 -0.304819 0.602865
1.126873 1.129046 0.643972 0.796731 0.329381 -0.506683
1.341151 1.343737 1.120478 0.796731 0.329381 -0.506683
1.896673 -0.000000 1.120478 0.796731 0.329381 -0.506683
1.593639 -0.000000 0.643972 0.796731 0.329381 -0.506683
-0.000000 1.894520 0.436464 0.230851 0.556249 0.798307
-0.000000 1.596712 0.643972 0.230851 0.556249 0.798307
1.126873 1.129046 0.643972 0.230851 0.556249 0.798307
1.337049 1.339628 0.436464 0.230851 0.556249 0.798307
-1.421595 1.424340 0.029522 -0.369884 0.891261 0.262375
-1.337047 1.339629 0.436464 -0.369884 0.891261 0.262375
-0.000000 1.894520 0.436464 -0.369884 0.891261 0.262375
-0.000000 2.014318 0.029522 -0.369884 0.891261 0.262375
-1.421597 -1.424338 0.029522 0.000000 -0.000000 -1.000000
-2.010441 0.000001 0.029522 0.000000 -0.000000 -1.000000
-1.421595 1.424340 0.029522 0.000000 -0.000000 -1.000000
-0.000000 2.014318 0.029522 -0.000000 0.000000 -1.000000
1.421596 1.424338 0.029522 -0.000000 0.000000 -1.000000
2.010441 -0.000000 0.029522 0.000000 0.000000 -1.000000
1.421596 -1.424339 0.029522 0.000000 0.000000 -1.000000
-0.000001 -2.014319 0.029522 0.000000 0.000000 -1.000000
-1.421597 -1.424338 0.029522 -0.891847 -0.368703 0.262042
-1.337050 -1.339628 0.436464 -0.891847 -0.368703 0.262042
-1.890873 0.000001 0.436464 -0.891847 -0.368703 0.262042
-2.010441 0.000001 0.029522 -0.891847 -0.368703 0.262042
-0.000001 -1.894521 0.436464 -0.230851 -0.556249 0.798308
-0.000001 -1.596713 0.643972 -0.230851 -0.556249 0.798308
-1.126873 -1.129046 0.643972 -0.230851 -0.556249 0.798308
-1.337050 -1.339628 0.436464 -0.230851 -0.556249 0.798308
1.126873 -1.129047 0.643972 0.330351 -0.796003 -0.507196
1.341151 -1.343739 1.120478 0.330351 -0.796003 -0.507196
-0.000001 -1.900333 1.120478 0.330351 -0.796003 -0.507196
-0.000001 -1.596713 0.643972 0.330351 -0.796003 -0.507196
1.593639 -0.000000 0.643972 0.796731 -0.329381 -0.506683
1.896673 -0.000000 1.120478 0.796731 -0.329381 -0.506683
1.341151 -1.343739 1.120478 0.796731 -0.329381 -0.506683
1.126873 -1.129047 0.643972 0.796731 -0.329381 -0.506683
1.337049 1.339628 0.436464 0.557047 0.230292 0.797913
1.126873 1.129046 0.643972 0.557047 0.230292 0.797913
1.593639 -0.000000 0.643972 0.557047 0.230292 0.797913
1.890873 -0.000000 0.436464 0.557047 0.230292 0.797913
-0.000000 2.014318 0.029522 0.369884 0.891260 0.262375
-0.000000 1.894520 0.436464 0.369884 0.891260 0.262375
1.337049 1.339628 0.436464 0.369884 0.891260 0.262375
1.421596 1.424338 0.029522 0.369884 0.891260 0.262375
1.421596 1.424338 0.029522 0.891847 0.368704 0.262042
1.337049 1.339628 0.436464 0.891847 0.368704 0.262042
1.890873 -0.000000 0.436464 0.891847 0.368704 0.262042
2.010441 -0.000000 0.029522 0.891847 0.368704 0.262042
2.010441 -0.000000 0.029522 0.891847 -0.368704 0.262042
1.890873 -0.000000 0.436464 0.891847 -0.368704 0.262042
1.337049 -1.339629 0.436464 0.891847 -0.368704 0.262042
1.421596 -1.424339 0.029522 0.891847 -0.368704 0.262042
1.421596 -1.424339 0.029522 0.369884 -0.891260 0.262375
1.337049 -1.339629 0.436464 0.369884 -0.891260 0.262375
-0.000001 -1.894521 0.436464 0.369884 -0.891260 0.262375
-0.000001 -2.014319 0.029522 0.369884 -0.891260 0.262375
-0.000001 -2.014319 0.029522 -0.369885 -0.891260 0.262375
-0.000001 -1.894521 0.436464 -0.369885 -0.891260 0.262375
-1.337050 -1.339628 0.436464 -0.369885 -0.891260 0.262375
-1.421597 -1.424338 0.029522 -0.369885 -0.891260 0.262375
1.337049 -1.339629 0.436464 0.230850 -0.556249 0.798307
1.126873 -1.129047 0.643972 0.230850 -0.556249 0.798307
-0.000001 -1.596713 0.643972 0.230850 -0.556249 0.798307
-0.000001 -1.894521 0.436464 0.230850 -0.556249 0.798307
1.890873 -0.000000 0.436464 0.557047 -0.230292 0.797913
1.593639 -0.000000 0.643972 0.557047 -0.230292 0.797913
1.126873 -1.129047 0.643972 0.557047 -0.230292 0.797913
1.337049 -1.339629 0.436464 0.557047 -0.230292 0.797913
-0.326809 -0.009164 7.788207 -0.862856 0.357407 0.357406
-0.231082 -0.009164 8.019311 -0.862856 0.357407 0.357406
-0.163394 0.154252 8.019311 -0.862856 0.357407 0.357406
-0.231082 0.221940 7.788207 -0.862856 0.357407 0.357406
-0.252482 -0.010070 7.609672 -0.862854 0.355827 -0.358984
-0.326809 -0.009164 7.788207 -0.862854 0.355827 -0.358984
-0.231082 0.221940 7.788207 -0.862854 0.355827 -0.358984
-0.178700 0.169558 7.609363 -0.862854 0.355827 -0.358984
-0.231082 -0.240268 7.788207 -0.862856 -0.357407 0.357406
-0.163394 -0.172579 8.019311 -0.862856 -0.357407 0.357406
-0.231082 -0.009164 8.019311 -0.862856 -0.357407 0.357406
-0.326809 -0.009164 7.788207 -0.862856 -0.357407 0.357406
-0.231082 -0.009164 8.019311 -0.377963 0.156557 0.912488
0.000022 -0.009164 8.115037 -0.377963 0.156557 0.912488
-0.163394 0.154252 8.019311 -0.377963 0.156557 0.912488
-0.231082 0.221940 7.788207 -0.357407 0.862856 0.357406
-0.163394 0.154252 8.019311 -0.357407 0.862856 0.357406
0.000022 0.221940 8.019311 -0.357407 0.862856 0.357406
0.000022 0.317667 7.788207 -0.357407 0.862856 0.357406
-0.178812 -0.187997 7.609745 -0.862856 -0.357407 -0.357406
-0.231082 -0.240268 7.788207 -0.862856 -0.357407 -0.357406
-0.326809 -0.009164 7.788207 -0.862856 -0.357407 -0.357406
-0.252482 -0.010070 7.609672 -0.862856 -0.357407 -0.357406
-0.178700 0.169558 7.609363 -0.357407 0.862856 -0.357406
-0.231082 0.221940 7.788207 -0.357407 0.862856 -0.357406
0.000022 0.317667 7.788207 -0.357407 0.862856 -0.357406
0.000021 0.243827 7.609941 -0.357407 0.862856 -0.357406
0.000022 -0.335994 7.788207 -0.357407 -0.862856 0.357406
0.000022 -0.240268 8.019311 -0.357407 -0.862856 0.357406
-0.163394 -0.172579 8.019311 -0.357407 -0.862856 0.357406
-0.231082 -0.240268 7.788207 -0.357407 -0.862856 0.357406
-0.163394 -0.172579 8.019311 -0.377963 -0.156558 0.912488
0.000022 -0.009164 8.115037 -0.377963 -0.156558 0.912488
-0.231082 -0.009164 8.019311 -0.377963 -0.156558 0.912488
-0.163394 0.154252 8.019311 -0.156557 0.377963 0.912488
0.000022 -0.009164 8.115037 -0.156557 0.377963 0.912488
0.000022 0.221940 8.019311 -0.156557 0.377963 0.912488
0.000022 0.317667 7.788207 0.357407 0.862856 0.357406
0.000022 0.221940 8.019311 0.357407 0.862856 0.357406
0.163437 0.154252 8.019311 0.357407 0.862856 0.357406
0.231126 0.221940 7.788207 0.357407 0.862856 0.357406
0.000021 -0.262536 7.610863 -0.357407 -0.862856 -0.357406
0.000022 -0.335994 7.788207 -0.357407 -0.862856 -0.357406
-0.231082 -0.240268 7.788207 -0.357407 -0.862856 -0.357406
-0.178812 -0.187997 7.609745 -0.357407 -0.862856 -0.357406
0.000021 0.243827 7.609941 0.357406 0.862856 -0.357407
0.000022 0.317667 7.788207 0.357406 0.862856 -0.357407
0.231126 0.221940 7.788207 0.357406 0.862856 -0.357407
0.178744 0.169558 7.609363 0.357406 0.862856 -0.357407
0.231126 -0.240268 7.788207 0.357407 -0.862856 0.357406
0.163437 -0.172579 8.019311 0.357407 -0.862856 0.357406
0.000022 -0.240268 8.019311 0.357407 -0.862856 0.357406
0.000022 -0.335994 7.788207 0.357407 -0.862856 0.357406
0.000022 -0.240268 8.019311 -0.156558 -0.377963 0.912488
0.000022 -0.009164 8.115037 -0.156558 -0.377963 0.912488
-0.163394 -0.172579 8.019311 -0.156558 -0.377963 0.912488
0.000022 0.221940 8.019311 0.156557 0.377963 0.912488
0.000022 -0.009164 8.115037 0.156557 0.377963 0.912488
0.163437 0.154252 8.019311 0.156557 0.377963 0.912488
0.231126 0.221940 7.788207 0.862856 0.357407 0.357406
0.163437 0.154252 8.019311 0.862856 0.357407 0.357406
0.231126 -0.009164 8.019311 0.862856 0.357407 0.357406
0.326852 -0.009164 7.788207 0.862856 0.357407 0.357406
0.176679 -0.189333 7.610791 0.357407 -0.862856 -0.357407
0.231126 -0.240268 7.788207 0.357407 -0.862856 -0.357407
0.000022 -0.335994 7.788207 0.357407 -0.862856 -0.357407
0.000021 -0.262536 7.610863 0.357407 -0.862856 -0.357407
0.178744 0.169558 7.609363 0.862855 0.355827 -0.358984
0.231126 0.221940 7.788207 0.862855 0.355827 -0.358984
0.326852 -0.009164 7.788207 0.862855 0.355827 -0.358984
0.252525 -0.010070 7.609672 0.862855 0.355827 -0.358984
0.326852 -0.009164 7.788207 0.862856 -0.357407 0.357406
0.231126 -0.009164 8.019311 0.862856 -0.357407 0.357406
0.163437 -0.172579 8.019311 0.862856 -0.357407 0.357406
0.231126 -0.240268 7.788207 0.862856 -0.357407 0.357406
0.163437 -0.172579 8.019311 0.156557 -0.377963 0.912488
0.000022 -0.009164 8.115037 0.156557 -0.377963 0.912488
0.000022 -0.240268 8.019311 0.156557 -0.377963 0.912488
0.163437 0.154252 8.019311 0.377963 0.156557 0.912488
0.000022 -0.009164 8.115037 0.377963 0.156557 0.912488
0.231126 -0.009164 8.019311 0.377963 0.156557 0.912488
0.252525 -0.010070 7.609672 0.859786 -0.360461 -0.361712
0.326852 -0.009164 7.788207 0.859786 -0.360461 -0.361712
0.231126 -0.240268 7.788207 0.859786 -0.360461 -0.361712
0.176679 -0.189333 7.610791 0.859786 -0.360461 -0.361712
0.231126 -0.009164 8.019311 0.377963 -0.156557 0.912488
0.000022 -0.009164 8.115037 0.377963 -0.156557 0.912488
0.163437 -0.172579 8.019311 0.377963 -0.156557 0.912488
1.233055 -0.009883 7.043627 0.209899 0.722632 0.658593
0.620085 -0.009883 7.238986 0.209899 0.722632 0.658593
1.384391 -0.508966 7.543008 0.209899 0.722632 0.658593
0.620085 -0.009883 7.238986 -0.296645 0.122638 0.947081
0.438071 -0.450152 7.238986 -0.296645 0.122638 0.947081
1.384391 -0.508966 7.543008 -0.296645 0.122638 0.947081
1.384391 -0.508966 7.543008 -0.276294 -0.611062 0.741799
0.438071 -0.450152 7.238986 -0.276294 -0.611062 0.741799
0.871902 -0.883466 7.043627 -0.276294 -0.611062 0.741799
0.871902 -0.883466 7.043627 0.643194 0.333128 0.689440
0.438071 -0.450152 7.238986 0.643194 0.333128 0.689440
0.555392 -1.305875 7.543008 0.643194 0.333128 0.689440
-0.000000 -0.631957 7.238986 -0.664758 -0.226720 0.711825
-0.000000 -1.245317 7.043627 -0.664758 -0.226720 0.711825
0.555392 -1.305875 7.543008 -0.664758 -0.226720 0.711825
-0.000000 -1.245317 7.043627 0.337518 -0.813270 -0.473997
0.871902 -0.883466 7.043627 0.337518 -0.813270 -0.473997
0.555392 -1.305875 7.543008 0.337518 -0.813270 -0.473997
-0.000000 -0.631957 7.238986 0.630158 -0.235646 0.739846
-0.623370 -1.344433 7.543008 0.630158 -0.235646 0.739846
-0.000000 -1.245317 7.043627 0.630158 -0.235646 0.739846
-0.871902 -0.883466 7.043627 -0.319652 -0.770222 -0.551889
-0.000000 -1.245317 7.043627 -0.319652 -0.770222 -0.551889
-0.623370 -1.344433 7.543008 -0.319652 -0.770222 -0.551889
-0.871902 -0.883466 7.043627 -0.658103 0.360991 0.660747
-0.623370 -1.344433 7.543008 -0.658103 0.360991 0.660747
-0.438071 -0.450152 7.238986 -0.658103 0.360991 0.660747
-1.320810 -0.619095 7.543008 -0.782444 -0.323474 -0.532115
-1.233055 -0.009881 7.043627 -0.782444 -0.323474 -0.532115
-0.871902 -0.883466 7.043627 -0.782444 -0.323474 -0.532115
0.558240 1.360323 7.543008 0.317302 0.764561 -0.561039
0.871902 0.863701 7.043627 0.317302 0.764561 -0.561039
0.000000 1.225551 7.043627 0.317302 0.764561 -0.561039
-0.576874 1.343037 7.543008 -0.319903 0.770830 -0.550893
0.000000 1.225551 7.043627 -0.319903 0.770830 -0.550893
-0.871900 0.863702 7.043627 -0.319903 0.770830 -0.550893
-0.871900 0.863702 7.043627 -0.755572 0.312366 -0.575794
-1.233055 -0.009881 7.043627 -0.755572 0.312366 -0.575794
-1.358007 0.608400 7.543008 -0.755572 0.312366 -0.575794
1.393730 0.628548 7.543008 0.726646 0.300407 -0.617852
1.233055 -0.009883 7.043627 0.726646 0.300407 -0.617852
0.871902 0.863701 7.043627 0.726646 0.300407 -0.617852
-0.438070 0.430387 7.238986 0.348630 0.652422 0.672906
-0.871900 0.863702 7.043627 0.348630 0.652422 0.672906
-1.358007 0.608400 7.543008 0.348630 0.652422 0.672906
-0.576874 1.343037 7.543008 -0.640695 -0.328603 0.693924
-0.871900 0.863702 7.043627 -0.640695 -0.328603 0.693924
-0.438070 0.430387 7.238986 -0.640695 -0.328603 0.693924
-0.576874 1.343037 7.543008 0.123147 -0.296732 0.946987
-0.438070 0.430387 7.238986 0.123147 -0.296732 0.946987
-0.000000 0.612191 7.238986 0.123147 -0.296732 0.946987
-0.000000 0.612191 7.238986 0.663426 0.227079 0.712952
0.000000 1.225551 7.043627 0.663426 0.227079 0.712952
-0.576874 1.343037 7.543008 0.663426 0.227079 0.712952
0.558240 1.360323 7.543008 -0.679295 0.222717 0.699253
0.000000 1.225551 7.043627 -0.679295 0.222717 0.699253
-0.000000 0.612191 7.238986 -0.679295 0.222717 0.699253
0.558240 1.360323 7.543008 -0.122069 -0.294133 0.947937
-0.000000 0.612191 7.238986 -0.122069 -0.294133 0.947937
0.438071 0.430387 7.238986 -0.122069 -0.294133 0.947937
0.438071 0.430387 7.238986 0.632122 -0.313371 0.708675
0.871902 0.863701 7.043627 0.632122 -0.313371 0.708675
0.558240 1.360323 7.543008 0.632122 -0.313371 0.708675
0.871902 0.863701 7.043627 -0.349224 0.652740 0.672289
0.438071 0.430387 7.238986 -0.349224 0.652740 0.672289
1.393730 0.628548 7.543008 -0.349224 0.652740 0.672289
0.438071 0.430387 7.238986 -0.279307 -0.115470 0.953234
0.620085 -0.009883 7.238986 -0.279307 -0.115470 0.953234
1.393730 0.628548 7.543008 -0.279307 -0.115470 0.953234
1.233055 -0.009883 7.043627 0.234616 -0.634859 0.736145
1.393730 0.628548 7.543008 0.234616 -0.634859 0.736145
0.620085 -0.009883 7.238986 0.234616 -0.634859 0.736145
4 0 1 2 3
4 4 5 6 7
4 8 9 10 11
4 12 13 14 15
4 16 17 18 19
4 20 21 22 23
4 24 25 26 27
4 28 29 30 31
4 32 33 34 35
4 36 37 38 39
4 40 41 42 43
4 44 45 46 47
4 48 49 50 51
4 52 53 54 55
4 56 57 58 59
4 60 61 62 63
4 64 65 66 67
4 68 69 70 71
4 72 73 74 75
4 76 77 78 79
4 80 81 82 83
4 84 85 86 87
4 88 89 90 91
4 92 93 94 95
3 96 97 98
4 99 100 101 102
4 103 104 105 106
4 107 108 109 110
4 111 112 113 114
4 115 116 117 118
4 119 120 121 122
3 123 124 125
4 126 127 128 129
4 130 131 132 133
4 134 135 136 137
4 138 139 140 141
4 142 143 144 145
4 146 147 148 149
3 150 151 152
4 153 154 155 156
4 157 158 159 160
4 161 162 163 164
4 165 166 167 168
4 169 170 171 172
3 173 174 175
4 176 177 178 179
4 180 181 182 183
4 184 185 186 187
4 188 189 190 191
4 192 193 194 195
4 196 197 198 199
3 200 201 202
4 203 204 205 206
4 207 208 209 210
4 211 212 213 214
3 215 216 217
4 218 219 220 221
4 222 223 224 225
3 226 227 228
4 229 230 231 232
4 233 234 235 236
4 237 238 239 240
4 241 242 243 244
3 245 246 247
4 248 249 250 251
4 252 253 254 255
4 256 257 258 259
4 260 261 262 263
4 264 265 266 267
4 268 269 270 271
4 272 273 274 275
4 276 277 278 279
4 280 281 282 283
4 284 285 286 287
4 288 289 290 291
4 292 293 294 295
4 296 297 298 299
4 300 301 302 303
4 304 305 306 307
4 308 309 310 311
4 312 313 314 315
4 316 317 318 319
4 320 321 322 323
4 324 325 326 327
4 328 329 330 331
4 332 333 334 335
4 336 337 338 339
4 340 341 342 343
4 344 345 346 347
4 348 349 350 351
4 352 353 354 355
4 356 357 358 359
4 360 361 362 363
4 364 365 366 367
4 368 369 370 371
4 372 373 374 375
4 376 377 378 379
4 380 381 382 383
4 384 385 386 387
4 388 389 390 391
4 392 393 394 395
4 396 397 398 399
4 400 401 402 403
4 404 405 406 407
4 408 409 410 411
4 412 413 414 415
4 416 417 418 419
4 420 421 422 423
4 424 425 426 427
4 428 429 430 431
4 432 433 434 435
4 436 437 438 439
4 440 441 442 443
4 444 445 446 447
4 448 449 450 451
4 452 453 454 455
4 456 457 458 459
4 460 461 462 463
4 464 465 466 467
4 468 469 470 471
4 472 473 474 475
4 476 477 478 479
4 480 481 482 483
4 484 485 486 487
3 488 489 490
3 490 491 492
3 492 493 494
3 494 495 488
3 488 490 492
3 492 494 488
4 496 497 498 499
4 500 501 502 503
4 504 505 506 507
4 508 509 510 511
4 512 513 514 515
4 516 517 518 519
4 520 521 522 523
4 524 525 526 527
4 528 529 530 531
4 532 533 534 535
4 536 537 538 539
4 540 541 542 543
4 544 545 546 547
4 548 549 550 551
4 552 553 554 555
3 556 557 558
4 559 560 561 562
4 563 564 565 566
4 567 568 569 570
4 571 572 573 574
3 575 576 577
3 578 579 580
4 581 582 583 584
4 585 586 587 588
4 589 590 591 592
4 593 594 595 596
3 597 598 599
3 600 601 602
4 603 604 605 606
4 607 608 609 610
4 611 612 613 614
4 615 616 617 618
3 619 620 621
3 622 623 624
4 625 626 627 628
3 629 630 631
3 632 633 634
3 635 636 637
3 638 639 640
3 641 642 643
3 644 645 646
3 647 648 649
3 650 651 652
3 653 654 655
3 656 657 658
3 659 660 661
3 662 663 664
3 665 666 667
3 668 669 670
3 671 672 673
3 674 675 676
3 677 678 679
3 680 681 682
3 683 684 685
3 686 687 688
3 689 690 691
3 692 693 694
3 695 696 697
3 698 699 700
3 701 702 703
