ply
format ascii 1.0
comment VCGLIB generated
element vertex 83
property float x
property float y
property float z
element face 162
property list uchar int vertex_indices
end_header
-0.4627625 -0.1684319 20.44081 
-0.2947655 0.3965164 0.5442849 
0.282867 -0.4048334 0.545233 
-0.4920349 -0.04249098 0.5495009 
0.1207254 -0.479494 0.5613899 
0.2158091 0.4448723 0.5530503 
-0.4756174 0.1351966 0.558084 
-0.3557056 -0.341695 0.5480798 
-0.2157347 -0.444915 0.5577143 
0.4756171 -0.135199 0.5408352 
0.343166 0.3547929 0.5580497 
-0.4087574 0.2782122 20.46989 
0.03584896 0.4922857 0.3933297 
-0.1208644 0.4794545 0.4281518 
-0.4409782 -0.2220164 0.3903899 
-0.3165109 -0.3772031 20.46952 
-0.05310999 -0.0609148 0.1784526 
0.4080993 -0.2776554 0.3883082 
0.492462 -7.298381e-08 0.553036 
0.3449586 0.3542461 20.46965 
0.2003136 0.4507079 20.45561 
0.03652705 0.4930751 20.45891 
-0.1363918 0.4739852 20.46977 
-0.2827822 0.4048955 20.45682 
-0.4786427 0.1190153 20.45327 
-0.4920335 -0.04249214 20.46927 
-0.2003144 -0.4507075 20.45295 
-0.03654766 -0.4931 20.46989 
0.1362609 -0.4740213 20.4546 
0.2828805 -0.4048192 20.47002 
0.4786438 -0.1190091 20.4529 
0.4737602 0.1372366 0.5510727 
-0.3982302 0.2910244 0.551533 
-0.398272 -0.2909663 20.46944 
0.4438149 0.2160306 20.46978 
-0.03489626 -0.4923689 0.5521044 
0.4087446 -0.2781959 20.46948 
0.4935225 0.03642176 20.47005 
0.4264346 0.2462012 0.5530369 
-1.665308 0.6427606 23.48712 
-3.028866 -0.6495004 22.72123 
-3.110507 -0.6396871 23.17207 
-3.326073 -0.3329026 22.8152 
-2.048966 -0.010405 22.60023 
-1.892214 -0.6382849 22.66127 
-1.87041 -0.6387885 20.16071 
1.86019 0.6317518 20.17163 
0.00478528 -0.02993594 27.29377 
-0.005749745 -0.6396344 25.58202 
-3.191048 -0.1269789 23.21634 
-0.004135391 0.3105167 27.2124 
-0.0044188 0.6397432 25.58411 
-0.01391788 0.6408411 27.00125 
-1.980904 0.1646169 20.00418 
-2.944653 0.3724636 22.6407 
-1.859706 0.6447262 20.15342 
-1.048941 -0.6461861 23.45629 
-0.9714471 0.6383075 21.06485 
-0.9753284 0.6047361 23.44336 
-0.9746842 -0.6493044 21.06481 
-1.877763 0.6517524 22.69238 
-3.00061 0.2692758 23.43396 
0.9928967 -0.6436782 23.44724 
1.991232 0.07559274 19.98573 
3.163324 -0.4679444 22.69329 
2.029755 -0.002385599 22.60232 
1.875354 -0.6383472 22.66537 
1.883904 0.6444075 22.63347 
0.9690498 0.6444917 21.05015 
0.9674367 -0.6472763 21.06078 
0.9823159 0.6366585 23.45055 
-1.961247 -0.2890968 20.02905 
1.854523 -0.6388825 20.15565 
1.659134 0.6378326 23.48363 
-1.635159 -0.6332052 23.51515 
-3.261726 0.6360719 22.96578 
-0.003898226 -0.3167422 27.20505 
0.005877252 -0.6409077 27.00603 
3.301645 0.1911117 23.0618 
1.65001 -0.6457921 23.49146 
3.145222 0.6322904 23.11303 
3.153003 0.6490303 22.73892 
3.281019 -0.6399442 22.93504 
3 37 31 34 
3 31 38 34 
3 19 34 38 
3 0 3 14 
3 2 17 36 
3 36 29 2 
3 11 37 34 
3 11 34 19 
3 21 19 20 
3 19 21 22 
3 11 19 22 
3 22 23 11 
3 11 24 25 
3 37 11 25 
3 37 25 33 
3 37 33 15 
3 15 26 27 
3 37 15 27 
3 27 28 29 
3 37 27 29 
3 37 29 36 
3 36 30 37 
3 12 16 13 
3 16 31 18 
3 16 10 38 
3 16 38 31 
3 19 5 20 
3 12 5 10 
3 16 12 10 
3 5 12 21 
3 5 21 20 
3 21 13 22 
3 13 1 23 
3 13 23 22 
3 16 32 1 
3 13 16 1 
3 11 6 24 
3 16 6 32 
3 6 25 24 
3 14 3 6 
3 16 14 6 
3 33 25 0 
3 15 8 26 
3 14 8 7 
3 8 35 27 
3 8 27 26 
3 16 35 8 
3 14 16 8 
3 27 4 28 
3 16 4 35 
3 4 2 29 
3 4 29 28 
3 17 2 4 
3 16 17 4 
3 36 9 30 
3 9 36 17 
3 9 37 30 
3 16 18 9 
3 17 16 9 
3 18 31 37 
3 38 10 19 
3 10 5 19 
3 12 13 21 
3 1 32 11 
3 11 23 1 
3 32 6 11 
3 25 6 3 
3 3 0 25 
3 14 7 33 
3 33 0 14 
3 7 15 33 
3 8 15 7 
3 35 4 27 
3 37 9 18 
3 75 61 50 
3 47 61 49 
3 51 39 52 
3 60 53 43 
3 44 59 56 
3 68 55 57 
3 41 40 77 
3 48 77 40 
3 54 40 42 
3 50 52 75 
3 44 54 43 
3 44 40 54 
3 44 71 45 
3 39 75 52 
3 42 40 41 
3 74 51 48 
3 74 39 51 
3 40 56 74 
3 57 58 59 
3 58 57 60 
3 58 56 59 
3 39 58 60 
3 45 59 44 
3 57 55 60 
3 44 43 71 
3 53 71 43 
3 60 55 53 
3 72 45 71 
3 68 57 59 
3 47 50 61 
3 76 47 49 
3 77 76 41 
3 40 74 48 
3 54 42 75 
3 44 56 40 
3 75 39 60 
3 56 39 74 
3 39 56 58 
3 75 60 54 
3 43 54 60 
3 51 52 81 
3 51 81 73 
3 65 63 67 
3 66 62 69 
3 70 67 68 
3 69 59 72 
3 45 72 59 
3 73 79 51 
3 78 82 64 
3 72 63 65 
3 78 80 50 
3 64 66 65 
3 53 55 63 
3 46 63 55 
3 52 80 81 
3 82 66 64 
3 68 46 55 
3 81 65 67 
3 79 73 70 
3 69 72 66 
3 68 69 70 
3 67 63 46 
3 65 66 72 
3 67 46 68 
3 62 70 69 
3 53 63 71 
3 71 63 72 
3 59 69 68 
3 82 47 76 
3 82 78 47 
3 78 81 80 
3 78 64 81 
3 66 82 62 
3 62 82 79 
3 73 67 70 
3 81 67 73 
3 62 79 70 
3 65 81 64 
3 75 49 61 
3 49 75 42 
3 41 49 42 
3 76 49 41 
3 47 78 50 
3 77 79 82 
3 48 79 77 
3 48 51 79 
3 52 50 80 
3 76 77 82 
